<?xml version="1.0" encoding="UTF-8" standalone="no"?><!-- Generator: Gravit.io --><svg xmlns="http://www.w3.org/2000/svg" xmlns:xlink="http://www.w3.org/1999/xlink" style="isolation:isolate" viewBox="0 0 1280 640" width="1280pt" height="640pt"><linearGradient id="_lgradient_0" x1="0" y1="0.5" x2="1" y2="0.5" gradientTransform="matrix(503.112,0,0,231.084,393.37,288.327)" gradientUnits="userSpaceOnUse"><stop offset="0%" stop-opacity="1" style="stop-color:rgb(91,142,174)"/><stop offset="28.749999999999996%" stop-opacity="1" style="stop-color:rgb(54,97,124)"/><stop offset="100%" stop-opacity="1" style="stop-color:rgb(95,146,179)"/></linearGradient><path d=" M 407.331 374.905 L 407.331 374.905 L 407.331 374.905 Q 406.705 376.572 405.82 378.656 L 405.82 378.656 L 405.82 378.656 Q 404.934 380.74 403.788 383.032 L 403.788 383.032 L 403.788 383.032 Q 402.851 384.803 401.861 385.793 L 401.861 385.793 L 401.861 385.793 Q 400.871 386.783 399.308 386.783 L 399.308 386.783 L 399.308 386.783 Q 397.537 386.783 396.495 385.689 L 396.495 385.689 L 396.495 385.689 Q 395.453 384.595 395.453 383.136 L 395.453 383.136 L 395.453 383.136 Q 395.453 382.615 395.558 382.251 L 395.558 382.251 L 395.558 382.251 Q 395.662 381.886 396.079 381.052 L 396.079 381.052 L 396.079 381.052 Q 398.787 375.843 400.09 371.936 L 400.09 371.936 L 400.09 371.936 Q 401.392 368.029 402.225 363.758 L 402.225 363.758 L 402.225 363.758 Q 401.496 361.361 401.184 359.694 L 401.184 359.694 L 401.184 359.694 Q 400.871 358.027 400.871 356.256 L 400.871 356.256 L 400.871 356.256 Q 400.871 352.818 402.33 350.682 L 402.33 350.682 L 402.33 350.682 Q 403.788 348.546 406.393 348.546 L 406.393 348.546 L 406.393 348.546 Q 408.789 348.546 410.196 350.63 L 410.196 350.63 L 410.196 350.63 Q 411.602 352.714 411.602 355.735 L 411.602 355.735 L 411.602 355.735 Q 411.602 357.402 411.29 359.069 L 411.29 359.069 L 411.29 359.069 Q 410.977 360.736 410.456 363.237 L 410.456 363.237 L 410.456 363.237 Q 412.852 369.175 415.249 373.759 L 415.249 373.759 L 415.249 373.759 Q 417.645 378.344 419.52 382.146 L 419.52 382.146 L 419.52 382.146 Q 421.396 385.949 422.594 389.283 L 422.594 389.283 L 422.594 389.283 Q 423.792 392.617 423.792 395.951 L 423.792 395.951 L 423.792 395.951 Q 423.792 400.327 422.021 404.286 L 422.021 404.286 L 422.021 404.286 Q 420.25 408.245 416.186 410.954 L 416.186 410.954 L 416.186 410.954 Q 416.707 411.058 417.228 411.058 L 417.228 411.058 L 417.228 411.058 Q 417.749 411.058 418.27 411.058 L 418.27 411.058 L 418.27 411.058 Q 424.209 411.058 429.21 408.349 L 429.21 408.349 L 429.21 408.349 Q 434.21 405.64 438.222 401.316 L 438.222 401.316 L 438.222 401.316 Q 442.233 396.993 445.358 391.731 L 445.358 391.731 L 445.358 391.731 Q 448.484 386.47 450.776 381.261 L 450.776 381.261 L 450.776 381.261 Q 451.818 378.864 453.693 378.864 L 453.693 378.864 L 453.693 378.864 Q 455.464 378.864 456.454 380.115 L 456.454 380.115 L 456.454 380.115 Q 457.444 381.365 457.444 382.824 L 457.444 382.824 L 457.444 382.824 Q 457.444 383.657 457.131 384.386 L 457.131 384.386 L 457.131 384.386 Q 455.985 387.199 454.162 390.794 L 454.162 390.794 L 454.162 390.794 Q 452.339 394.388 449.786 398.191 L 449.786 398.191 L 449.786 398.191 Q 447.234 401.994 443.9 405.64 L 443.9 405.64 L 443.9 405.64 Q 440.566 409.287 436.45 412.152 L 436.45 412.152 L 436.45 412.152 Q 432.335 415.017 427.438 416.736 L 427.438 416.736 L 427.438 416.736 Q 422.542 418.455 416.707 418.455 L 416.707 418.455 L 416.707 418.455 Q 409.727 418.455 403.736 416.007 L 403.736 416.007 L 403.736 416.007 Q 397.745 413.558 393.995 407.932 L 393.995 407.932 L 393.995 407.932 Q 393.37 406.995 393.37 405.953 L 393.37 405.953 L 393.37 405.953 Q 393.37 404.39 394.568 403.192 L 394.568 403.192 L 394.568 403.192 Q 395.766 401.994 397.329 401.994 L 397.329 401.994 L 397.329 401.994 Q 398.996 401.994 400.142 403.14 L 400.142 403.14 L 400.142 403.14 Q 400.246 403.348 400.871 403.817 L 400.871 403.817 L 400.871 403.817 Q 401.496 404.286 402.382 404.859 L 402.382 404.859 L 402.382 404.859 Q 403.267 405.432 404.465 405.849 L 404.465 405.849 L 404.465 405.849 Q 405.664 406.265 406.914 406.265 L 406.914 406.265 L 406.914 406.265 Q 409.414 406.265 411.133 405.223 L 411.133 405.223 L 411.133 405.223 Q 412.852 404.182 413.894 402.671 L 413.894 402.671 L 413.894 402.671 Q 414.936 401.16 415.405 399.441 L 415.405 399.441 L 415.405 399.441 Q 415.874 397.722 415.874 396.472 L 415.874 396.472 L 415.874 396.472 Q 415.874 393.867 415.04 391.263 L 415.04 391.263 L 415.04 391.263 Q 414.207 388.658 412.904 386.053 L 412.904 386.053 L 412.904 386.053 Q 411.602 383.449 410.091 380.688 L 410.091 380.688 L 410.091 380.688 Q 408.581 377.927 407.331 374.905 Z  M 484.532 401.785 L 484.532 401.785 L 484.532 401.785 Q 480.886 407.724 476.041 411.162 L 476.041 411.162 L 476.041 411.162 Q 471.196 414.6 466.3 414.6 L 466.3 414.6 L 466.3 414.6 Q 462.341 414.6 459.215 413.142 L 459.215 413.142 L 459.215 413.142 Q 456.089 411.683 453.797 409.026 L 453.797 409.026 L 453.797 409.026 Q 451.505 406.369 450.307 402.619 L 450.307 402.619 L 450.307 402.619 Q 449.109 398.868 449.109 394.18 L 449.109 394.18 L 449.109 394.18 Q 449.109 386.887 450.515 381.261 L 450.515 381.261 L 450.515 381.261 Q 451.922 375.635 453.589 371.832 L 453.589 371.832 L 453.589 371.832 Q 455.256 368.029 456.715 366.05 L 456.715 366.05 L 456.715 366.05 Q 458.173 364.07 458.173 364.07 L 458.173 364.07 L 458.173 364.07 Q 458.694 363.445 459.475 363.132 L 459.475 363.132 L 459.475 363.132 Q 460.257 362.82 461.09 362.82 L 461.09 362.82 L 461.09 362.82 Q 462.757 362.82 463.851 364.018 L 463.851 364.018 L 463.851 364.018 Q 464.945 365.216 464.945 366.779 L 464.945 366.779 L 464.945 366.779 Q 464.945 367.404 464.685 368.029 L 464.685 368.029 L 464.685 368.029 Q 464.424 368.654 464.112 369.279 L 464.112 369.279 L 464.112 369.279 Q 463.591 370.217 462.445 372.145 L 462.445 372.145 L 462.445 372.145 Q 461.299 374.072 460.048 377.198 L 460.048 377.198 L 460.048 377.198 Q 458.798 380.323 457.861 384.543 L 457.861 384.543 L 457.861 384.543 Q 456.923 388.762 456.923 394.18 L 456.923 394.18 L 456.923 394.18 Q 456.923 400.327 459.371 403.504 L 459.371 403.504 L 459.371 403.504 Q 461.82 406.682 466.3 406.682 L 466.3 406.682 L 466.3 406.682 Q 468.175 406.682 470.623 405.484 L 470.623 405.484 L 470.623 405.484 Q 473.072 404.286 475.416 401.785 L 475.416 401.785 L 475.416 401.785 Q 477.76 399.285 479.531 395.43 L 479.531 395.43 L 479.531 395.43 Q 481.302 391.575 481.823 386.366 L 481.823 386.366 L 483.386 368.446 L 483.386 368.446 Q 483.594 366.883 484.74 365.841 L 484.74 365.841 L 484.74 365.841 Q 485.886 364.799 487.449 364.799 L 487.449 364.799 L 487.449 364.799 Q 489.22 364.799 490.262 366.102 L 490.262 366.102 L 490.262 366.102 Q 491.304 367.404 491.304 369.071 L 491.304 369.071 L 489.95 386.366 L 489.95 386.366 Q 489.741 388.554 490.106 392.096 L 490.106 392.096 L 490.106 392.096 Q 490.471 395.638 491.617 399.076 L 491.617 399.076 L 491.617 399.076 Q 492.763 402.515 495.055 404.963 L 495.055 404.963 L 495.055 404.963 Q 497.347 407.411 501.098 407.411 L 501.098 407.411 L 501.098 407.411 Q 503.806 407.411 506.411 406.005 L 506.411 406.005 L 506.411 406.005 Q 509.016 404.598 511.412 402.306 L 511.412 402.306 L 511.412 402.306 Q 513.808 400.014 515.84 397.149 L 515.84 397.149 L 515.84 397.149 Q 517.871 394.284 519.59 391.367 L 519.59 391.367 L 519.59 391.367 Q 521.31 388.45 522.56 385.793 L 522.56 385.793 L 522.56 385.793 Q 523.81 383.136 524.643 381.261 L 524.643 381.261 L 524.643 381.261 Q 525.164 380.115 526.102 379.49 L 526.102 379.49 L 526.102 379.49 Q 527.04 378.864 528.186 378.864 L 528.186 378.864 L 528.186 378.864 Q 530.061 378.864 531.103 380.115 L 531.103 380.115 L 531.103 380.115 Q 532.145 381.365 532.145 382.824 L 532.145 382.824 L 532.145 382.824 Q 532.145 383.657 531.832 384.386 L 531.832 384.386 L 531.832 384.386 Q 531.416 385.22 530.217 387.877 L 530.217 387.877 L 530.217 387.877 Q 529.019 390.533 527.092 393.919 L 527.092 393.919 L 527.092 393.919 Q 525.164 397.305 522.456 401.056 L 522.456 401.056 L 522.456 401.056 Q 519.747 404.807 516.413 407.984 L 516.413 407.984 L 516.413 407.984 Q 513.079 411.162 509.172 413.194 L 509.172 413.194 L 509.172 413.194 Q 505.265 415.225 500.785 415.225 L 500.785 415.225 L 500.785 415.225 Q 494.638 415.225 490.575 411.735 L 490.575 411.735 L 490.575 411.735 Q 486.512 408.245 484.532 401.785 Z  M 535.583 370.634 L 535.583 370.634 L 535.583 370.634 Q 535.166 373.447 534.541 375.895 L 534.541 375.895 L 534.541 375.895 Q 533.916 378.344 533.343 380.167 L 533.343 380.167 L 533.343 380.167 Q 532.77 381.99 532.353 383.136 L 532.353 383.136 L 532.353 383.136 Q 531.936 384.282 531.832 384.386 L 531.832 384.386 L 531.832 384.386 Q 530.79 386.783 528.186 386.783 L 528.186 386.783 L 528.186 386.783 Q 526.727 386.783 525.477 385.689 L 525.477 385.689 L 525.477 385.689 Q 524.227 384.595 524.227 382.928 L 524.227 382.928 L 524.227 382.928 Q 524.227 382.303 524.435 381.99 L 524.435 381.99 L 524.435 381.99 Q 524.643 381.677 525.06 380.74 L 525.06 380.74 L 525.06 380.74 Q 525.477 379.802 526.102 377.614 L 526.102 377.614 L 526.102 377.614 Q 526.727 375.426 527.665 370.842 L 527.665 370.842 L 527.665 370.842 Q 525.894 370.842 524.018 370.738 L 524.018 370.738 L 524.018 370.738 Q 522.143 370.634 520.528 370.009 L 520.528 370.009 L 520.528 370.009 Q 518.913 369.384 517.871 368.029 L 517.871 368.029 L 517.871 368.029 Q 516.83 366.675 516.83 364.279 L 516.83 364.279 L 516.83 364.279 Q 516.83 362.507 517.819 359.486 L 517.819 359.486 L 517.819 359.486 Q 518.809 356.465 520.476 353.547 L 520.476 353.547 L 520.476 353.547 Q 522.143 350.63 524.227 348.494 L 524.227 348.494 L 524.227 348.494 Q 526.31 346.359 528.394 346.359 L 528.394 346.359 L 528.394 346.359 Q 530.79 346.359 532.301 348.13 L 532.301 348.13 L 532.301 348.13 Q 533.812 349.901 534.645 352.453 L 534.645 352.453 L 534.645 352.453 Q 535.479 355.006 535.843 357.819 L 535.843 357.819 L 535.843 357.819 Q 536.208 360.632 536.208 362.716 L 536.208 362.716 L 536.208 362.716 Q 537.979 362.716 539.698 362.664 L 539.698 362.664 L 539.698 362.664 Q 541.417 362.612 542.98 362.612 L 542.98 362.612 L 542.98 362.612 Q 548.919 362.612 552.044 365.216 L 552.044 365.216 L 552.044 365.216 Q 555.17 367.821 555.17 373.759 L 555.17 373.759 L 555.17 373.759 Q 555.17 376.156 554.857 378.76 L 554.857 378.76 L 554.857 378.76 Q 554.545 381.365 554.128 384.126 L 554.128 384.126 L 554.128 384.126 Q 553.711 386.887 553.399 389.596 L 553.399 389.596 L 553.399 389.596 Q 553.086 392.304 553.086 394.909 L 553.086 394.909 L 553.086 394.909 Q 553.086 398.66 554.128 401.108 L 554.128 401.108 L 554.128 401.108 Q 555.17 403.556 556.733 405.015 L 556.733 405.015 L 556.733 405.015 Q 558.295 406.474 560.067 407.047 L 560.067 407.047 L 560.067 407.047 Q 561.838 407.62 563.296 407.62 L 563.296 407.62 L 563.296 407.62 Q 567.776 407.62 571.735 404.702 L 571.735 404.702 L 571.735 404.702 Q 575.694 401.785 579.028 397.67 L 579.028 397.67 L 579.028 397.67 Q 582.362 393.555 585.019 388.97 L 585.019 388.97 L 585.019 388.97 Q 587.676 384.386 589.447 380.948 L 589.447 380.948 L 589.447 380.948 Q 589.968 380.011 590.905 379.49 L 590.905 379.49 L 590.905 379.49 Q 591.843 378.969 592.885 378.969 L 592.885 378.969 L 592.885 378.969 Q 594.76 378.969 595.802 380.167 L 595.802 380.167 L 595.802 380.167 Q 596.844 381.365 596.844 382.824 L 596.844 382.824 L 596.844 382.824 Q 596.844 383.865 596.427 384.699 L 596.427 384.699 L 596.427 384.699 Q 594.031 388.97 590.853 394.336 L 590.853 394.336 L 590.853 394.336 Q 587.676 399.702 583.612 404.39 L 583.612 404.39 L 583.612 404.39 Q 579.549 409.078 574.496 412.308 L 574.496 412.308 L 574.496 412.308 Q 569.443 415.538 563.4 415.538 L 563.4 415.538 L 563.4 415.538 Q 559.65 415.538 556.316 414.131 L 556.316 414.131 L 556.316 414.131 Q 552.982 412.725 550.534 410.068 L 550.534 410.068 L 550.534 410.068 Q 548.085 407.411 546.627 403.504 L 546.627 403.504 L 546.627 403.504 Q 545.168 399.597 545.168 394.701 L 545.168 394.701 L 545.168 394.701 Q 545.168 389.491 546.21 384.334 L 546.21 384.334 L 546.21 384.334 Q 547.252 379.177 547.252 374.489 L 547.252 374.489 L 547.252 374.489 Q 547.252 372.509 546.366 371.519 L 546.366 371.519 L 546.366 371.519 Q 545.481 370.53 542.459 370.53 L 542.459 370.53 L 542.459 370.53 Q 541.001 370.53 539.282 370.53 L 539.282 370.53 L 539.282 370.53 Q 537.562 370.53 535.583 370.634 Z  M 524.018 362.924 L 528.603 362.924 L 528.603 362.924 Q 528.603 362.195 528.55 360.997 L 528.55 360.997 L 528.55 360.997 Q 528.498 359.799 528.342 358.652 L 528.342 358.652 L 528.342 358.652 Q 528.186 357.506 527.925 356.673 L 527.925 356.673 L 527.925 356.673 Q 527.665 355.839 527.352 355.839 L 527.352 355.839 L 527.352 355.839 Q 527.04 355.839 526.571 356.621 L 526.571 356.621 L 526.571 356.621 Q 526.102 357.402 525.581 358.496 L 525.581 358.496 L 525.581 358.496 Q 525.06 359.59 524.643 360.84 L 524.643 360.84 L 524.643 360.84 Q 524.227 362.091 524.018 362.924 L 524.018 362.924 L 524.018 362.924 Z  M 601.845 401.994 L 601.845 401.994 L 601.845 401.994 Q 604.033 405.015 607.471 406.838 L 607.471 406.838 L 607.471 406.838 Q 610.909 408.662 615.91 408.662 L 615.91 408.662 L 615.91 408.662 Q 621.015 408.662 625.183 406.213 L 625.183 406.213 L 625.183 406.213 Q 629.35 403.765 632.788 399.806 L 632.788 399.806 L 632.788 399.806 Q 636.226 395.847 638.935 390.95 L 638.935 390.95 L 638.935 390.95 Q 641.644 386.053 643.832 381.157 L 643.832 381.157 L 643.832 381.157 Q 644.353 380.011 645.29 379.437 L 645.29 379.437 L 645.29 379.437 Q 646.228 378.864 647.374 378.864 L 647.374 378.864 L 647.374 378.864 Q 649.145 378.864 650.239 380.115 L 650.239 380.115 L 650.239 380.115 Q 651.333 381.365 651.333 382.824 L 651.333 382.824 L 651.333 382.824 Q 651.333 383.344 651.229 383.709 L 651.229 383.709 L 651.229 383.709 Q 651.125 384.074 650.916 384.49 L 650.916 384.49 L 650.916 384.49 Q 643.728 400.327 635.236 408.349 L 635.236 408.349 L 635.236 408.349 Q 626.745 416.371 616.014 416.58 L 616.014 416.58 L 616.014 416.58 Q 609.138 416.58 604.137 413.923 L 604.137 413.923 L 604.137 413.923 Q 599.136 411.266 595.906 407.047 L 595.906 407.047 L 595.906 407.047 Q 592.677 402.827 591.114 397.514 L 591.114 397.514 L 591.114 397.514 Q 589.551 392.2 589.551 386.887 L 589.551 386.887 L 589.551 386.887 Q 589.551 381.573 590.853 377.093 L 590.853 377.093 L 590.853 377.093 Q 592.156 372.613 594.604 369.279 L 594.604 369.279 L 594.604 369.279 Q 597.052 365.945 600.438 364.07 L 600.438 364.07 L 600.438 364.07 Q 603.824 362.195 607.888 362.195 L 607.888 362.195 L 607.888 362.195 Q 610.284 362.195 612.628 363.185 L 612.628 363.185 L 612.628 363.185 Q 614.972 364.174 616.848 365.998 L 616.848 365.998 L 616.848 365.998 Q 618.723 367.821 619.869 370.425 L 619.869 370.425 L 619.869 370.425 Q 621.015 373.03 621.015 376.364 L 621.015 376.364 L 621.015 376.364 Q 621.015 380.636 619.556 384.386 L 619.556 384.386 L 619.556 384.386 Q 618.098 388.137 615.545 391.367 L 615.545 391.367 L 615.545 391.367 Q 612.993 394.596 609.45 397.305 L 609.45 397.305 L 609.45 397.305 Q 605.908 400.014 601.845 401.994 Z  M 598.719 395.222 L 598.719 395.222 L 598.719 395.222 Q 601.949 393.867 604.606 391.783 L 604.606 391.783 L 604.606 391.783 Q 607.263 389.7 609.138 387.199 L 609.138 387.199 L 609.138 387.199 Q 611.013 384.699 612.055 381.938 L 612.055 381.938 L 612.055 381.938 Q 613.097 379.177 613.097 376.364 L 613.097 376.364 L 613.097 376.364 Q 613.097 373.238 611.534 371.624 L 611.534 371.624 L 611.534 371.624 Q 609.971 370.009 607.888 370.009 L 607.888 370.009 L 607.888 370.009 Q 605.075 370.009 603.095 371.571 L 603.095 371.571 L 603.095 371.571 Q 601.116 373.134 599.865 375.635 L 599.865 375.635 L 599.865 375.635 Q 598.615 378.135 598.042 381.209 L 598.042 381.209 L 598.042 381.209 Q 597.469 384.282 597.469 387.304 L 597.469 387.304 L 597.469 387.304 Q 597.469 389.179 597.834 391.263 L 597.834 391.263 L 597.834 391.263 Q 598.198 393.346 598.719 395.222 Z  M 728.222 309.164 L 728.222 309.164 L 728.222 309.164 Q 728.222 310.831 727.076 311.821 L 727.076 311.821 L 727.076 311.821 Q 725.93 312.811 724.263 312.811 L 724.263 312.811 L 671.441 312.811 L 671.441 313.957 L 671.441 313.957 Q 671.441 320.312 670.503 327.501 L 670.503 327.501 L 670.503 327.501 Q 669.566 334.69 667.951 341.827 L 667.951 341.827 L 667.951 341.827 Q 666.336 348.963 664.304 355.735 L 664.304 355.735 L 664.304 355.735 Q 662.273 362.507 660.137 368.238 L 660.137 368.238 L 660.137 368.238 Q 658.001 373.968 655.917 378.187 L 655.917 378.187 L 655.917 378.187 Q 653.834 382.407 652.167 384.49 L 652.167 384.49 L 652.167 384.49 Q 653.521 389.283 655.396 393.398 L 655.396 393.398 L 655.396 393.398 Q 657.272 397.514 659.616 400.587 L 659.616 400.587 L 659.616 400.587 Q 661.96 403.661 664.669 405.432 L 664.669 405.432 L 664.669 405.432 Q 667.378 407.203 670.503 407.203 L 670.503 407.203 L 670.503 407.203 Q 674.15 407.203 677.744 404.129 L 677.744 404.129 L 677.744 404.129 Q 681.339 401.056 684.412 396.836 L 684.412 396.836 L 684.412 396.836 Q 687.485 392.617 689.83 388.293 L 689.83 388.293 L 689.83 388.293 Q 692.174 383.97 693.216 381.365 L 693.216 381.365 L 693.216 381.365 Q 694.258 378.864 696.862 378.864 L 696.862 378.864 L 696.862 378.864 Q 698.633 378.864 699.727 380.115 L 699.727 380.115 L 699.727 380.115 Q 700.821 381.365 700.821 382.824 L 700.821 382.824 L 700.821 382.824 Q 700.821 383.553 700.509 384.282 L 700.509 384.282 L 700.509 384.282 Q 700.196 385.011 698.998 387.616 L 698.998 387.616 L 698.998 387.616 Q 697.8 390.221 695.872 393.659 L 695.872 393.659 L 695.872 393.659 Q 693.945 397.097 691.392 400.9 L 691.392 400.9 L 691.392 400.9 Q 688.84 404.702 685.662 407.828 L 685.662 407.828 L 685.662 407.828 Q 682.485 410.954 678.838 413.037 L 678.838 413.037 L 678.838 413.037 Q 675.192 415.121 671.128 415.121 L 671.128 415.121 L 671.128 415.121 Q 663.94 415.121 658.209 410.433 L 658.209 410.433 L 658.209 410.433 Q 652.479 405.744 648.468 397.305 L 648.468 397.305 L 648.468 397.305 Q 644.457 388.866 642.373 377.302 L 642.373 377.302 L 642.373 377.302 Q 640.289 365.737 640.289 351.985 L 640.289 351.985 L 640.289 351.985 Q 640.289 348.546 640.394 343.91 L 640.394 343.91 L 640.394 343.91 Q 640.498 339.274 640.81 334.117 L 640.81 334.117 L 640.81 334.117 Q 641.123 328.96 641.748 323.49 L 641.748 323.49 L 641.748 323.49 Q 642.373 318.02 643.415 312.811 L 643.415 312.811 L 606.012 312.811 L 606.012 312.811 Q 604.345 312.811 603.199 311.821 L 603.199 311.821 L 603.199 311.821 Q 602.053 310.831 602.053 309.164 L 602.053 309.164 L 602.053 309.164 Q 602.053 307.497 603.199 306.508 L 603.199 306.508 L 603.199 306.508 Q 604.345 305.518 606.012 305.518 L 606.012 305.518 L 645.186 305.518 L 645.186 305.518 Q 646.228 301.767 647.634 298.642 L 647.634 298.642 L 647.634 298.642 Q 649.041 295.516 650.864 293.224 L 650.864 293.224 L 650.864 293.224 Q 652.687 290.932 654.927 289.63 L 654.927 289.63 L 654.927 289.63 Q 657.167 288.327 659.876 288.327 L 659.876 288.327 L 659.876 288.327 Q 662.481 288.327 664.408 289.63 L 664.408 289.63 L 664.408 289.63 Q 666.336 290.932 667.69 293.224 L 667.69 293.224 L 667.69 293.224 Q 669.045 295.516 669.826 298.642 L 669.826 298.642 L 669.826 298.642 Q 670.607 301.767 671.024 305.518 L 671.024 305.518 L 724.263 305.518 L 724.263 305.518 Q 725.93 305.518 727.076 306.508 L 727.076 306.508 L 727.076 306.508 Q 728.222 307.497 728.222 309.164 Z  M 649.77 374.072 L 649.77 374.072 L 649.77 374.072 Q 652.896 367.196 655.448 359.226 L 655.448 359.226 L 655.448 359.226 Q 658.001 351.255 659.824 343.129 L 659.824 343.129 L 659.824 343.129 Q 661.647 335.002 662.637 327.188 L 662.637 327.188 L 662.637 327.188 Q 663.627 319.375 663.627 312.811 L 663.627 312.811 L 651.333 312.811 L 651.333 312.811 Q 649.874 319.27 648.989 328.803 L 648.989 328.803 L 648.989 328.803 Q 648.103 338.336 648.103 351.985 L 648.103 351.985 L 648.103 351.985 Q 648.103 359.59 648.52 364.747 L 648.52 364.747 L 648.52 364.747 Q 648.937 369.905 649.77 374.072 Z  M 659.46 296.141 L 659.46 296.141 L 659.46 296.141 Q 658.522 296.141 656.751 298.173 L 656.751 298.173 L 656.751 298.173 Q 654.98 300.204 653.208 305.518 L 653.208 305.518 L 663.21 305.518 L 663.21 305.518 Q 662.689 301.142 661.7 298.642 L 661.7 298.642 L 661.7 298.642 Q 660.71 296.141 659.46 296.141 Z  M 651.437 381.677 L 651.437 381.573 L 651.437 381.677 L 651.437 381.677 Z  M 732.389 414.913 L 732.389 414.913 L 732.389 414.913 Q 736.036 411.266 739.787 407.463 L 739.787 407.463 L 739.787 407.463 Q 743.537 403.661 747.08 399.493 L 747.08 399.493 L 747.08 399.493 Q 750.622 395.326 753.695 390.794 L 753.695 390.794 L 753.695 390.794 Q 756.769 386.262 759.165 381.157 L 759.165 381.157 L 759.165 381.157 Q 759.686 380.011 760.624 379.437 L 760.624 379.437 L 760.624 379.437 Q 761.561 378.864 762.707 378.864 L 762.707 378.864 L 762.707 378.864 Q 764.479 378.864 765.573 380.115 L 765.573 380.115 L 765.573 380.115 Q 766.666 381.365 766.666 382.928 L 766.666 382.928 L 766.666 382.928 Q 766.666 383.761 766.354 384.49 L 766.354 384.49 L 766.354 384.49 Q 763.124 391.263 758.957 396.889 L 758.957 396.889 L 758.957 396.889 Q 754.789 402.515 750.205 407.568 L 750.205 407.568 L 750.205 407.568 Q 745.621 412.621 740.933 417.361 L 740.933 417.361 L 740.933 417.361 Q 736.244 422.101 731.973 426.894 L 731.973 426.894 L 731.973 426.894 Q 731.556 434.083 731.973 441.324 L 731.973 441.324 L 731.973 441.324 Q 732.389 448.565 732.389 456.691 L 732.389 456.691 L 732.389 456.691 Q 732.389 463.359 731.973 470.027 L 731.973 470.027 L 731.973 470.027 Q 731.556 476.695 730.618 482.79 L 730.618 482.79 L 730.618 482.79 Q 729.681 488.884 728.066 494.198 L 728.066 494.198 L 728.066 494.198 Q 726.451 499.511 723.95 503.418 L 723.95 503.418 L 723.95 503.418 Q 721.45 507.325 718.116 509.565 L 718.116 509.565 L 718.116 509.565 Q 714.782 511.805 710.302 511.805 L 710.302 511.805 L 710.302 511.805 Q 702.905 511.805 698.946 506.7 L 698.946 506.7 L 698.946 506.7 Q 694.987 501.595 694.987 492.427 L 694.987 492.427 L 694.987 492.427 Q 694.987 487.426 696.081 481.696 L 696.081 481.696 L 696.081 481.696 Q 697.175 475.965 699.154 469.871 L 699.154 469.871 L 699.154 469.871 Q 701.134 463.776 703.895 457.525 L 703.895 457.525 L 703.895 457.525 Q 706.656 451.273 709.885 445.335 L 709.885 445.335 L 709.885 445.335 Q 713.115 439.396 716.762 434.031 L 716.762 434.031 L 716.762 434.031 Q 720.408 428.665 724.159 424.289 L 724.159 424.289 L 724.159 424.289 Q 724.367 419.288 724.628 413.923 L 724.628 413.923 L 724.628 413.923 Q 724.888 408.557 725.201 403.973 L 725.201 403.973 L 725.201 403.973 Q 722.492 408.766 718.481 411.683 L 718.481 411.683 L 718.481 411.683 Q 714.47 414.6 709.677 414.6 L 709.677 414.6 L 709.677 414.6 Q 701.759 414.6 697.279 409.287 L 697.279 409.287 L 697.279 409.287 Q 692.799 403.973 692.799 394.701 L 692.799 394.701 L 692.799 394.701 Q 692.799 387.929 694.101 382.355 L 694.101 382.355 L 694.101 382.355 Q 695.404 376.781 696.914 372.77 L 696.914 372.77 L 696.914 372.77 Q 698.425 368.758 699.675 366.623 L 699.675 366.623 L 699.675 366.623 Q 700.925 364.487 700.925 364.591 L 700.925 364.591 L 700.925 364.591 Q 702.071 362.82 704.155 362.82 L 704.155 362.82 L 704.155 362.82 Q 705.926 362.82 707.02 364.018 L 707.02 364.018 L 707.02 364.018 Q 708.114 365.216 708.114 366.779 L 708.114 366.779 L 708.114 366.779 Q 708.114 367.925 707.489 368.863 L 707.489 368.863 L 707.489 368.863 Q 707.593 368.758 706.499 370.582 L 706.499 370.582 L 706.499 370.582 Q 705.405 372.405 704.103 375.843 L 704.103 375.843 L 704.103 375.843 Q 702.801 379.281 701.707 384.074 L 701.707 384.074 L 701.707 384.074 Q 700.613 388.866 700.613 394.596 L 700.613 394.596 L 700.613 394.596 Q 700.613 400.327 702.697 403.556 L 702.697 403.556 L 702.697 403.556 Q 704.78 406.786 709.469 406.786 L 709.469 406.786 L 709.469 406.786 Q 715.407 406.786 720.2 397.983 L 720.2 397.983 L 720.2 397.983 Q 724.992 389.179 728.326 372.405 L 728.326 372.405 L 728.326 372.405 Q 728.535 371.051 729.576 370.165 L 729.576 370.165 L 729.576 370.165 Q 730.618 369.279 732.077 369.279 L 732.077 369.279 L 732.077 369.279 Q 733.744 369.279 734.89 370.425 L 734.89 370.425 L 734.89 370.425 Q 736.036 371.571 736.036 373.238 L 736.036 373.238 L 736.036 373.238 Q 736.036 373.551 735.619 376.937 L 735.619 376.937 L 735.619 376.937 Q 735.202 380.323 734.629 385.949 L 734.629 385.949 L 734.629 385.949 Q 734.056 391.575 733.431 399.024 L 733.431 399.024 L 733.431 399.024 Q 732.806 406.474 732.389 414.913 Z  M 724.055 437 L 724.055 437 L 724.055 437 Q 719.366 443.772 715.459 451.273 L 715.459 451.273 L 715.459 451.273 Q 711.552 458.775 708.739 466.172 L 708.739 466.172 L 708.739 466.172 Q 705.926 473.569 704.364 480.341 L 704.364 480.341 L 704.364 480.341 Q 702.801 487.113 702.801 492.427 L 702.801 492.427 L 702.801 492.427 Q 702.801 497.844 704.572 500.918 L 704.572 500.918 L 704.572 500.918 Q 706.343 503.991 710.198 503.991 L 710.198 503.991 L 710.198 503.991 Q 713.636 503.991 716.293 500.605 L 716.293 500.605 L 716.293 500.605 Q 718.949 497.219 720.773 490.968 L 720.773 490.968 L 720.773 490.968 Q 722.596 484.717 723.534 475.809 L 723.534 475.809 L 723.534 475.809 Q 724.471 466.901 724.471 455.858 L 724.471 455.858 L 724.471 455.858 Q 724.471 451.378 724.315 446.793 L 724.315 446.793 L 724.315 446.793 Q 724.159 442.209 724.055 437 Z  M 812.612 384.386 L 812.612 384.386 L 812.612 384.386 Q 812.612 393.971 809.174 400.743 L 809.174 400.743 L 809.174 400.743 Q 805.736 407.515 800.735 411.058 L 800.735 411.058 L 801.152 411.058 L 801.152 411.058 Q 807.299 411.058 812.352 408.297 L 812.352 408.297 L 812.352 408.297 Q 817.405 405.536 821.468 401.212 L 821.468 401.212 L 821.468 401.212 Q 825.531 396.889 828.761 391.575 L 828.761 391.575 L 828.761 391.575 Q 831.991 386.262 834.491 381.261 L 834.491 381.261 L 834.491 381.261 Q 835.012 380.115 836.002 379.49 L 836.002 379.49 L 836.002 379.49 Q 836.992 378.864 838.138 378.864 L 838.138 378.864 L 838.138 378.864 Q 839.909 378.864 840.951 380.115 L 840.951 380.115 L 840.951 380.115 Q 841.993 381.365 841.993 382.824 L 841.993 382.824 L 841.993 382.824 Q 841.993 383.657 841.68 384.386 L 841.68 384.386 L 841.68 384.386 Q 838.971 390.429 835.221 396.524 L 835.221 396.524 L 835.221 396.524 Q 831.47 402.619 826.469 407.515 L 826.469 407.515 L 826.469 407.515 Q 821.468 412.412 815.217 415.486 L 815.217 415.486 L 815.217 415.486 Q 808.966 418.559 801.36 418.559 L 801.36 418.559 L 801.36 418.559 Q 795.838 418.559 790.629 416.84 L 790.629 416.84 L 790.629 416.84 Q 785.42 415.121 781.461 411.475 L 781.461 411.475 L 781.461 411.475 Q 780.002 410.329 778.96 409.026 L 778.96 409.026 L 778.96 409.026 Q 777.918 407.724 777.293 406.578 L 777.293 406.578 L 777.293 406.578 Q 777.085 406.369 777.085 406.161 L 777.085 406.161 L 777.085 406.161 Q 776.46 405.223 776.46 404.182 L 776.46 404.182 L 776.46 404.182 Q 776.46 402.827 777.398 401.681 L 777.398 401.681 L 777.398 401.681 Q 777.502 401.473 777.606 401.421 L 777.606 401.421 L 777.606 401.421 Q 777.71 401.369 777.814 401.264 L 777.814 401.264 L 777.814 401.264 Q 778.856 400.327 780.106 400.223 L 780.106 400.223 L 780.419 400.223 L 780.419 400.223 Q 780.94 400.223 781.148 400.327 L 781.148 400.327 L 781.148 400.327 Q 781.252 400.327 781.305 400.379 L 781.305 400.379 L 781.305 400.379 Q 781.357 400.431 781.461 400.431 L 781.461 400.431 L 781.461 400.431 Q 781.773 400.431 782.19 400.639 L 782.19 400.639 L 782.19 400.639 Q 782.294 400.743 782.398 400.743 L 782.398 400.743 L 782.398 400.743 Q 783.336 401.369 783.961 402.306 L 783.961 402.306 L 783.961 402.306 Q 784.691 403.556 785.628 404.598 L 785.628 404.598 L 785.628 404.598 Q 786.462 405.432 787.608 406.109 L 787.608 406.109 L 787.608 406.109 Q 788.754 406.786 790.212 406.786 L 790.212 406.786 L 790.212 406.786 Q 792.817 406.786 795.422 405.223 L 795.422 405.223 L 795.422 405.223 Q 798.026 403.661 800.11 400.743 L 800.11 400.743 L 800.11 400.743 Q 802.194 397.826 803.496 393.659 L 803.496 393.659 L 803.496 393.659 Q 804.798 389.491 804.798 384.386 L 804.798 384.386 L 804.798 384.386 Q 804.798 380.636 804.017 377.979 L 804.017 377.979 L 804.017 377.979 Q 803.236 375.322 802.037 373.655 L 802.037 373.655 L 802.037 373.655 Q 800.839 371.988 799.485 371.207 L 799.485 371.207 L 799.485 371.207 Q 798.13 370.425 796.88 370.425 L 796.88 370.425 L 796.88 370.425 Q 794.067 370.425 791.202 373.343 L 791.202 373.343 L 791.202 373.343 Q 788.337 376.26 785.524 380.74 L 785.524 380.74 L 785.524 380.74 Q 782.711 385.22 779.95 390.637 L 779.95 390.637 L 779.95 390.637 Q 777.189 396.055 774.376 401.16 L 774.376 401.16 L 774.376 401.16 Q 774.168 418.038 773.803 433.354 L 773.803 433.354 L 773.803 433.354 Q 773.439 448.669 772.553 461.796 L 772.553 461.796 L 772.553 461.796 Q 771.667 474.924 770.105 485.55 L 770.105 485.55 L 770.105 485.55 Q 768.542 496.177 765.833 503.731 L 765.833 503.731 L 765.833 503.731 Q 763.124 511.284 759.165 515.348 L 759.165 515.348 L 759.165 515.348 Q 755.206 519.411 749.476 519.411 L 749.476 519.411 L 749.476 519.411 Q 747.705 519.411 745.413 518.681 L 745.413 518.681 L 745.413 518.681 Q 743.121 517.952 741.141 515.712 L 741.141 515.712 L 741.141 515.712 Q 739.161 513.472 737.807 509.305 L 737.807 509.305 L 737.807 509.305 Q 736.453 505.137 736.453 498.157 L 736.453 498.157 L 736.453 498.157 Q 736.453 489.301 738.641 477.632 L 738.641 477.632 L 738.641 477.632 Q 740.828 465.964 744.84 452.888 L 744.84 452.888 L 744.84 452.888 Q 748.851 439.813 754.373 426.061 L 754.373 426.061 L 754.373 426.061 Q 759.894 412.308 766.562 399.285 L 766.562 399.285 L 766.562 399.285 Q 766.562 395.638 766.614 392.096 L 766.614 392.096 L 766.614 392.096 Q 766.666 388.554 766.666 385.22 L 766.666 385.22 L 766.666 385.22 Q 765.312 386.783 763.437 386.783 L 763.437 386.783 L 763.437 386.783 Q 761.666 386.783 760.624 385.532 L 760.624 385.532 L 760.624 385.532 Q 759.582 384.282 759.582 382.824 L 759.582 382.824 L 759.582 382.824 Q 759.582 382.094 759.894 381.261 L 759.894 381.261 L 759.894 381.261 Q 762.395 375.531 763.749 370.373 L 763.749 370.373 L 763.749 370.373 Q 765.104 365.216 765.781 361.309 L 765.781 361.309 L 765.781 361.309 Q 766.458 357.402 766.562 355.11 L 766.562 355.11 L 766.562 355.11 Q 766.666 352.818 766.666 352.714 L 766.666 352.714 L 766.666 352.714 Q 766.666 351.151 767.812 350.005 L 767.812 350.005 L 767.812 350.005 Q 768.959 348.859 770.626 348.859 L 770.626 348.859 L 770.626 348.859 Q 772.188 348.859 773.334 349.953 L 773.334 349.953 L 773.334 349.953 Q 774.48 351.047 774.48 352.714 L 774.48 352.714 L 774.48 384.699 L 774.48 384.699 Q 776.877 380.636 779.273 376.677 L 779.273 376.677 L 779.273 376.677 Q 781.669 372.718 784.326 369.592 L 784.326 369.592 L 784.326 369.592 Q 786.983 366.466 790.056 364.539 L 790.056 364.539 L 790.056 364.539 Q 793.13 362.612 796.88 362.612 L 796.88 362.612 L 796.88 362.612 Q 800.423 362.612 803.34 364.279 L 803.34 364.279 L 803.34 364.279 Q 806.257 365.945 808.341 368.863 L 808.341 368.863 L 808.341 368.863 Q 810.424 371.78 811.518 375.791 L 811.518 375.791 L 811.518 375.791 Q 812.612 379.802 812.612 384.386 Z  M 766.354 417.83 L 766.354 417.83 L 766.354 417.83 Q 761.249 429.29 757.133 440.855 L 757.133 440.855 L 757.133 440.855 Q 753.018 452.419 750.153 463.151 L 750.153 463.151 L 750.153 463.151 Q 747.288 473.882 745.725 483.258 L 745.725 483.258 L 745.725 483.258 Q 744.162 492.635 744.162 499.72 L 744.162 499.72 L 744.162 499.72 Q 744.162 501.491 744.371 503.575 L 744.371 503.575 L 744.371 503.575 Q 744.579 505.658 745.204 507.429 L 745.204 507.429 L 745.204 507.429 Q 745.829 509.201 746.975 510.399 L 746.975 510.399 L 746.975 510.399 Q 748.121 511.597 749.997 511.597 L 749.997 511.597 L 749.997 511.597 Q 753.435 511.597 755.935 507.273 L 755.935 507.273 L 755.935 507.273 Q 758.436 502.949 760.155 495.604 L 760.155 495.604 L 760.155 495.604 Q 761.874 488.259 763.02 478.726 L 763.02 478.726 L 763.02 478.726 Q 764.166 469.193 764.843 458.775 L 764.843 458.775 L 764.843 458.775 Q 765.52 448.356 765.833 437.781 L 765.833 437.781 L 765.833 437.781 Q 766.146 427.207 766.354 417.83 Z  M 846.993 401.994 L 846.993 401.994 L 846.993 401.994 Q 849.181 405.015 852.62 406.838 L 852.62 406.838 L 852.62 406.838 Q 856.058 408.662 861.059 408.662 L 861.059 408.662 L 861.059 408.662 Q 866.164 408.662 870.331 406.213 L 870.331 406.213 L 870.331 406.213 Q 874.498 403.765 877.937 399.806 L 877.937 399.806 L 877.937 399.806 Q 881.375 395.847 884.084 390.95 L 884.084 390.95 L 884.084 390.95 Q 886.792 386.053 888.98 381.157 L 888.98 381.157 L 888.98 381.157 Q 889.501 380.011 890.439 379.437 L 890.439 379.437 L 890.439 379.437 Q 891.377 378.864 892.523 378.864 L 892.523 378.864 L 892.523 378.864 Q 894.294 378.864 895.388 380.115 L 895.388 380.115 L 895.388 380.115 Q 896.482 381.365 896.482 382.824 L 896.482 382.824 L 896.482 382.824 Q 896.482 383.344 896.377 383.709 L 896.377 383.709 L 896.377 383.709 Q 896.273 384.074 896.065 384.49 L 896.065 384.49 L 896.065 384.49 Q 888.876 400.327 880.385 408.349 L 880.385 408.349 L 880.385 408.349 Q 871.894 416.371 861.163 416.58 L 861.163 416.58 L 861.163 416.58 Q 854.286 416.58 849.286 413.923 L 849.286 413.923 L 849.286 413.923 Q 844.285 411.266 841.055 407.047 L 841.055 407.047 L 841.055 407.047 Q 837.825 402.827 836.262 397.514 L 836.262 397.514 L 836.262 397.514 Q 834.7 392.2 834.7 386.887 L 834.7 386.887 L 834.7 386.887 Q 834.7 381.573 836.002 377.093 L 836.002 377.093 L 836.002 377.093 Q 837.304 372.613 839.753 369.279 L 839.753 369.279 L 839.753 369.279 Q 842.201 365.945 845.587 364.07 L 845.587 364.07 L 845.587 364.07 Q 848.973 362.195 853.036 362.195 L 853.036 362.195 L 853.036 362.195 Q 855.433 362.195 857.777 363.185 L 857.777 363.185 L 857.777 363.185 Q 860.121 364.174 861.996 365.998 L 861.996 365.998 L 861.996 365.998 Q 863.872 367.821 865.018 370.425 L 865.018 370.425 L 865.018 370.425 Q 866.164 373.03 866.164 376.364 L 866.164 376.364 L 866.164 376.364 Q 866.164 380.636 864.705 384.386 L 864.705 384.386 L 864.705 384.386 Q 863.246 388.137 860.694 391.367 L 860.694 391.367 L 860.694 391.367 Q 858.141 394.596 854.599 397.305 L 854.599 397.305 L 854.599 397.305 Q 851.057 400.014 846.993 401.994 Z  M 843.868 395.222 L 843.868 395.222 L 843.868 395.222 Q 847.098 393.867 849.754 391.783 L 849.754 391.783 L 849.754 391.783 Q 852.411 389.7 854.286 387.199 L 854.286 387.199 L 854.286 387.199 Q 856.162 384.699 857.204 381.938 L 857.204 381.938 L 857.204 381.938 Q 858.246 379.177 858.246 376.364 L 858.246 376.364 L 858.246 376.364 Q 858.246 373.238 856.683 371.624 L 856.683 371.624 L 856.683 371.624 Q 855.12 370.009 853.036 370.009 L 853.036 370.009 L 853.036 370.009 Q 850.223 370.009 848.244 371.571 L 848.244 371.571 L 848.244 371.571 Q 846.264 373.134 845.014 375.635 L 845.014 375.635 L 845.014 375.635 Q 843.764 378.135 843.191 381.209 L 843.191 381.209 L 843.191 381.209 Q 842.618 384.282 842.618 387.304 L 842.618 387.304 L 842.618 387.304 Q 842.618 389.179 842.982 391.263 L 842.982 391.263 L 842.982 391.263 Q 843.347 393.346 843.868 395.222 Z " fill="url(#_lgradient_0)"/><linearGradient id="_lgradient_1" x1="-0.5403645217873487" y1="0.5" x2="1.5882194574079485" y2="0.5" gradientTransform="matrix(234.491,0,0,202.586,522.755,67.04)" gradientUnits="userSpaceOnUse"><stop offset="0%" stop-opacity="1" style="stop-color:rgb(54,97,124)"/><stop offset="100%" stop-opacity="1" style="stop-color:rgb(95,146,179)"/></linearGradient><path d=" M 732.854 225.868 C 732.256 224.3 733.003 222.583 734.571 221.985 C 741.217 219.447 747.265 216.236 752.567 212.427 C 753.911 211.531 755.778 211.83 756.674 213.099 C 757.142 213.742 757.334 214.545 757.207 215.33 C 757.081 216.115 756.648 216.817 756.002 217.281 C 750.327 221.388 743.756 224.823 736.662 227.586 C 736.363 227.735 735.99 227.81 735.617 227.81 C 734.422 227.81 733.302 227.063 732.854 225.868 L 732.854 225.868 Z  M 720.458 261.114 C 712.916 262.831 705.001 263.653 697.011 263.653 C 695.368 263.653 694.024 264.997 694.024 266.64 C 694.024 268.282 695.368 269.626 697.011 269.626 C 705.449 269.626 713.812 268.73 721.802 266.938 C 723.445 266.565 724.416 264.997 724.042 263.354 C 723.669 261.711 722.101 260.74 720.458 261.114 L 720.458 261.114 Z  M 668.785 259.62 C 659.376 256.857 650.565 252.825 642.425 247.523 C 617.111 231.095 590.453 229.751 582.911 229.751 C 581.269 229.751 579.925 231.095 579.925 232.738 C 579.925 234.381 581.269 235.725 582.911 235.725 C 590.08 235.725 615.245 236.92 639.14 252.526 C 647.727 258.127 657.136 262.458 667.067 265.37 C 667.366 265.445 667.665 265.519 667.889 265.519 C 669.158 265.519 670.353 264.698 670.726 263.354 C 671.249 261.711 670.353 260.068 668.785 259.62 Z  M 752.269 230.349 C 737.707 240.878 718.069 246.702 696.936 246.702 C 685.81 246.702 663.931 244.611 642.351 230.573 C 617.037 214.145 590.379 212.801 582.837 212.801 C 560.51 212.801 539.601 218.999 523.995 230.349 C 522.655 231.318 522.354 233.19 523.323 234.53 C 524.292 235.871 526.164 236.172 527.505 235.202 C 542.066 224.674 561.704 218.849 582.837 218.849 C 590.005 218.849 615.17 220.044 639.065 235.65 C 661.99 250.51 685.138 252.75 696.936 252.75 C 719.263 252.75 740.172 246.553 755.778 235.202 C 757.118 234.233 757.419 232.361 756.45 231.021 C 755.481 229.68 753.609 229.38 752.269 230.349 L 752.269 230.349 Z  M 547.069 73.089 C 546.322 72.417 545.949 71.446 546.098 70.475 C 546.247 69.504 546.77 68.683 547.666 68.235 C 549.16 67.413 550.877 67.04 552.669 67.04 C 555.581 67.04 558.568 68.086 561.182 69.952 C 564.094 72.043 566.11 74.806 568.126 77.42 C 568.5 77.942 568.798 78.39 569.172 78.838 C 579.327 91.906 608.599 116.847 627.043 126.106 C 629.134 125.658 631.225 123.791 633.241 121.999 L 633.987 121.402 C 643.695 112.814 656.688 107.961 669.606 107.961 L 669.905 107.961 C 674.759 107.961 678.044 109.902 679.015 113.188 C 679.687 115.353 679.388 118.639 674.684 122.223 C 673.564 123.119 672.294 124.015 671.1 124.837 C 682.076 121.327 693.352 118.34 704.628 115.876 C 708.436 115.055 712.244 114.382 715.978 115.577 C 720.383 116.921 724.341 121.551 723.072 126.554 C 722.25 129.616 719.562 132.229 715.978 133.275 C 713.663 133.947 711.348 133.947 709.108 133.947 L 708.062 133.872 C 701.566 133.947 695.368 134.021 689.096 135.888 C 689.768 136.71 690.29 137.531 690.664 138.427 L 691.933 137.606 C 694.173 136.261 696.638 135.515 699.027 135.515 C 700.595 135.515 702.163 135.813 703.507 136.485 C 706.345 137.904 708.51 140.592 709.78 144.401 C 711.945 150.673 711.124 157.618 707.614 162.471 C 704.628 166.504 699.774 169.043 694.845 169.043 C 693.128 169.043 691.485 168.669 689.917 168.072 C 689.32 167.848 688.722 167.325 688.424 166.728 C 686.407 163.069 683.869 158.439 683.645 153.361 L 683.645 152.913 C 682.674 153.212 681.703 153.436 680.807 153.511 C 680.284 153.585 679.836 153.585 679.314 153.585 C 675.505 153.585 671.996 152.316 668.859 151.196 L 662.512 148.956 C 655.941 153.735 650.639 158.962 647.727 162.098 C 636.452 174.27 625.101 185.247 609.868 187.263 C 608.972 187.412 607.927 187.487 606.807 187.487 C 605.164 187.487 603.372 187.263 601.654 186.591 C 598.294 185.321 595.904 182.409 595.606 179.198 C 595.008 173.15 600.982 169.491 603.222 168.072 C 613.751 161.575 624.653 154.258 635.257 147.238 C 637.796 145.521 640.335 143.803 642.948 142.086 L 642.724 142.011 C 641.604 141.638 640.409 141.19 639.289 140.816 C 613.303 151.345 603.82 152.54 587.093 154.631 C 585.45 154.855 583.733 155.079 581.941 155.303 C 579.999 155.527 578.058 155.751 576.116 155.751 C 574.1 155.751 572.084 155.527 570.068 154.855 C 565.065 153.137 561.704 148.732 561.929 144.102 C 562.078 140.368 564.467 135.365 574.473 132.379 C 586.57 128.794 597.249 127.599 608.897 127.823 C 606.135 126.255 603.446 124.613 600.833 122.746 C 596.651 119.834 582.314 106.094 571.86 96.013 C 567.529 91.906 564.169 88.62 562.675 87.276 L 547.069 73.089 L 547.069 73.089 Z  M 689.544 153.137 C 689.693 156.498 691.41 159.858 693.053 162.92 C 693.501 163.069 694.024 163.144 694.547 163.144 C 691.41 159.335 689.544 154.034 691.037 149.927 C 692.605 145.67 696.712 142.683 701.118 142.086 C 701.043 142.011 700.969 142.011 700.894 141.937 C 699.326 141.19 697.011 141.563 694.995 142.758 C 691.56 144.849 689.32 149.03 689.544 153.137 L 689.544 153.137 Z  M 670.876 131.109 C 670.801 131.184 670.652 131.258 670.577 131.333 C 660.048 137.83 649.146 145.147 638.542 152.167 C 627.939 159.261 616.962 166.578 606.359 173.15 C 602.924 175.24 601.356 177.033 601.505 178.526 C 601.58 179.497 602.476 180.468 603.745 180.99 C 605.089 181.513 606.732 181.588 608.972 181.289 C 622.264 179.571 632.793 169.267 643.247 157.991 C 649.071 151.719 663.931 137.456 680.882 133.499 C 681.18 132.976 681.628 132.453 682.3 132.154 C 691.186 128.122 699.774 128.048 708.137 127.973 L 709.183 127.973 C 711.049 127.973 712.841 127.973 714.41 127.525 C 715.903 127.077 717.098 126.106 717.322 125.061 C 717.695 123.567 715.978 121.7 714.26 121.178 C 711.871 120.431 709.108 120.954 705.972 121.626 C 694.173 124.165 682.375 127.375 670.876 131.109 L 670.876 131.109 Z  M 625.027 134.843 C 606.732 133.2 592.843 133.2 576.116 138.203 C 573.055 139.099 567.977 141.115 567.828 144.475 C 567.753 146.566 569.844 148.508 571.935 149.254 C 574.623 150.151 577.684 149.852 581.119 149.404 C 582.986 149.18 584.704 148.956 586.346 148.732 C 602.55 146.716 611.735 145.596 636.974 135.291 C 636.974 135.141 636.9 135.067 636.9 134.917 C 636.747 134.135 636.913 133.323 637.362 132.664 C 637.811 132.005 638.505 131.552 639.289 131.408 C 650.789 129.317 661.84 124.463 671.025 117.444 C 672.892 116.1 673.34 115.055 673.265 114.83 C 673.116 114.532 672.07 113.934 669.83 113.934 L 669.606 113.934 C 657.935 113.972 646.668 118.213 637.87 125.882 L 637.198 126.479 C 634.734 128.645 631.822 131.258 628.238 132.005 L 628.238 132.154 C 628.088 133.797 626.67 134.992 625.027 134.843 L 625.027 134.843 Z  M 608.225 200.704 C 600.086 198.837 591.573 197.866 582.911 197.866 C 572.905 197.866 563.123 199.136 553.864 201.6 C 552.404 201.995 551.467 203.414 551.675 204.911 C 551.884 206.409 553.173 207.518 554.685 207.499 C 554.909 207.499 555.208 207.499 555.432 207.424 C 564.243 205.109 573.503 203.915 582.986 203.915 C 591.2 203.915 599.265 204.811 606.956 206.603 C 608.524 206.976 610.167 205.931 610.54 204.363 C 610.914 202.795 609.868 201.077 608.225 200.704 L 608.225 200.704 Z " fill="url(#_lgradient_1)"/><g><linearGradient id="_lgradient_2" x1="0" y1="0.5" x2="1" y2="0.5" gradientTransform="matrix(659.497,0,0,35.029,277.316,530.492)" gradientUnits="userSpaceOnUse"><stop offset="0%" stop-opacity="1" style="stop-color:rgb(54,97,124)"/><stop offset="100%" stop-opacity="1" style="stop-color:rgb(95,146,179)"/></linearGradient><path d=" M 893.57 544.859 L 893.57 544.859 L 893.57 542.263 L 893.57 542.263 Q 892.538 541.73 890.476 541.73 L 890.476 541.73 L 890.476 541.73 Q 885.213 541.73 885.213 549.66 L 885.213 549.66 L 885.213 549.66 Q 885.213 555.457 888.733 555.457 L 888.733 555.457 L 888.733 555.457 Q 890.227 555.457 891.24 554.443 L 891.24 554.443 L 891.24 554.443 Q 892.254 553.43 892.752 551.687 L 892.752 551.687 L 892.752 551.687 Q 893.57 548.664 893.57 544.859 Z  M 888.484 557.413 L 888.484 557.413 L 888.484 557.413 Q 885.39 557.413 883.968 555.279 L 883.968 555.279 L 883.968 555.279 Q 882.545 553.145 882.545 549.216 L 882.545 549.216 L 882.545 549.216 Q 882.545 545.286 884.555 542.565 L 884.555 542.565 L 884.555 542.565 Q 886.564 539.845 890.476 539.845 L 890.476 539.845 L 890.476 539.845 Q 891.863 539.845 893.232 540.129 L 893.232 540.129 L 893.232 540.129 Q 894.601 540.414 895.952 540.947 L 895.952 540.947 L 895.952 549.98 L 895.952 549.98 Q 895.952 553.607 896.592 554.568 L 896.592 554.568 L 896.592 554.568 Q 897.197 555.528 898.619 555.528 L 898.619 555.528 L 898.691 557.128 L 898.691 557.128 Q 898.122 557.27 897.268 557.27 L 897.268 557.27 L 897.268 557.27 Q 895.383 557.27 894.565 555.955 L 894.565 555.955 L 894.565 555.955 Q 893.961 554.994 893.961 553.679 L 893.961 553.679 L 893.961 553.679 Q 893.961 553.252 894.032 552.754 L 894.032 552.754 L 893.819 552.754 L 893.819 552.754 Q 893.214 554.888 891.88 556.15 L 891.88 556.15 L 891.88 556.15 Q 890.547 557.413 888.484 557.413 Z  M 905.198 539.952 L 905.198 540.983 L 905.198 540.983 Q 905.198 542.868 904.914 544.148 L 904.914 544.148 L 905.127 544.148 L 905.127 544.148 Q 905.625 542.157 907.065 541.001 L 907.065 541.001 L 907.065 541.001 Q 908.506 539.845 910.568 539.845 L 910.568 539.845 L 910.568 539.845 Q 913.378 539.845 914.444 541.25 L 914.444 541.25 L 914.444 541.25 Q 915.511 542.654 915.511 545.464 L 915.511 545.464 L 915.511 545.464 Q 915.511 545.57 915.458 549.091 L 915.458 549.091 L 915.458 549.091 Q 915.405 552.612 915.405 553.572 L 915.405 553.572 L 915.405 553.572 Q 915.405 554.532 915.636 554.994 L 915.636 554.994 L 915.636 554.994 Q 915.867 555.457 917.147 555.457 L 917.147 555.457 L 917.218 557.057 L 917.218 557.057 Q 916.72 557.27 915.76 557.27 L 915.76 557.27 L 915.76 557.27 Q 914.053 557.27 913.431 556.488 L 913.431 556.488 L 913.431 556.488 Q 912.809 555.706 912.809 553.999 L 912.809 553.999 L 912.809 553.999 Q 912.809 553.928 912.88 550.158 L 912.88 550.158 L 912.88 550.158 Q 912.951 546.388 912.951 546.246 L 912.951 546.246 L 912.951 546.246 Q 912.951 544.184 912.417 543.028 L 912.417 543.028 L 912.417 543.028 Q 911.884 541.872 910.302 541.872 L 910.302 541.872 L 910.302 541.872 Q 908.719 541.872 907.67 542.868 L 907.67 542.868 L 907.67 542.868 Q 906.621 543.863 906.087 545.464 L 906.087 545.464 L 906.087 545.464 Q 905.127 548.558 905.127 552.043 L 905.127 552.043 L 905.127 556.986 L 902.673 556.986 L 902.673 540.272 L 905.198 539.952 L 905.198 539.952 Z  M 926.749 557.413 L 926.749 557.413 L 926.749 557.413 Q 923.655 557.413 922.233 555.279 L 922.233 555.279 L 922.233 555.279 Q 920.81 553.145 920.81 549.216 L 920.81 549.216 L 920.81 549.216 Q 920.81 545.286 922.819 542.565 L 922.819 542.565 L 922.819 542.565 Q 924.829 539.845 928.74 539.845 L 928.74 539.845 L 928.74 539.845 Q 930.27 539.845 931.834 540.485 L 931.834 540.485 L 931.834 530.919 L 934.217 530.492 L 934.217 549.98 L 934.217 549.98 Q 934.217 553.145 934.679 554.336 L 934.679 554.336 L 934.679 554.336 Q 935.142 555.528 936.742 555.528 L 936.742 555.528 L 936.813 557.128 L 936.813 557.128 Q 936.351 557.27 935.39 557.27 L 935.39 557.27 L 935.39 557.27 Q 933.612 557.27 932.919 556.203 L 932.919 556.203 L 932.919 556.203 Q 932.225 555.137 932.225 553.75 L 932.225 553.75 L 932.225 553.75 Q 932.225 553.394 932.261 552.967 L 932.261 552.967 L 932.048 552.967 L 932.048 552.967 Q 930.625 557.413 926.749 557.413 Z  M 931.834 545.926 L 931.834 545.926 L 931.834 542.263 L 931.834 542.263 Q 930.803 541.73 928.74 541.73 L 928.74 541.73 L 928.74 541.73 Q 923.477 541.73 923.477 549.66 L 923.477 549.66 L 923.477 549.66 Q 923.477 555.457 926.998 555.457 L 926.998 555.457 L 926.998 555.457 Q 928.385 555.457 929.398 554.55 L 929.398 554.55 L 929.398 554.55 Q 930.412 553.643 930.91 552.149 L 930.91 552.149 L 930.91 552.149 Q 931.834 549.34 931.834 545.926 Z  M 767.645 542.157 L 764.8 542.157 L 764.8 540.627 L 767.645 540.272 L 767.645 537.853 L 767.645 537.853 Q 767.645 530.492 773.05 530.492 L 773.05 530.492 L 773.05 530.492 Q 774.224 530.492 775.148 530.954 L 775.148 530.954 L 774.793 532.519 L 774.793 532.519 Q 774.295 532.377 773.299 532.377 L 773.299 532.377 L 773.299 532.377 Q 772.303 532.377 771.645 532.821 L 771.645 532.821 L 771.645 532.821 Q 770.987 533.266 770.703 534.119 L 770.703 534.119 L 770.703 534.119 Q 770.205 535.471 770.205 537.925 L 770.205 537.925 L 770.205 540.272 L 774.793 540.272 L 774.793 542.157 L 770.205 542.157 L 770.169 560.293 L 770.169 560.293 Q 770.169 561.787 769.992 562.445 L 769.992 562.445 L 769.992 562.445 Q 769.814 563.103 769.174 563.209 L 769.174 563.209 L 767.182 562.782 L 767.182 562.782 Q 767.716 562.142 767.716 559.795 L 767.716 559.795 L 767.645 542.157 L 767.645 542.157 Z  M 783.434 555.528 L 783.434 555.528 L 783.434 555.528 Q 785.212 555.528 786.35 554.425 L 786.35 554.425 L 786.35 554.425 Q 787.488 553.323 787.897 551.758 L 787.897 551.758 L 787.897 551.758 Q 788.306 550.194 788.306 548.166 L 788.306 548.166 L 788.306 548.166 Q 788.306 541.801 783.79 541.801 L 783.79 541.801 L 783.79 541.801 Q 782.118 541.801 781.016 542.868 L 781.016 542.868 L 781.016 542.868 Q 779.024 544.753 779.024 548.878 L 779.024 548.878 L 779.024 548.878 Q 779.024 555.528 783.434 555.528 Z  M 790.973 548.202 L 790.973 548.202 L 790.973 548.202 Q 790.973 552.114 789 554.763 L 789 554.763 L 789 554.763 Q 787.026 557.413 783.31 557.413 L 783.31 557.413 L 783.31 557.413 Q 779.593 557.413 778.029 555.261 L 778.029 555.261 L 778.029 555.261 Q 776.464 553.11 776.464 548.949 L 776.464 548.949 L 776.464 548.949 Q 776.464 544.788 778.278 542.317 L 778.278 542.317 L 778.278 542.317 Q 780.091 539.845 783.754 539.845 L 783.754 539.845 L 783.754 539.845 Q 787.417 539.845 789.195 542.068 L 789.195 542.068 L 789.195 542.068 Q 790.973 544.29 790.973 548.202 Z  M 795.845 540.201 L 798.015 539.952 L 798.015 539.952 Q 798.726 540.236 798.726 541.783 L 798.726 541.783 L 798.726 541.783 Q 798.726 543.33 798.477 544.646 L 798.477 544.646 L 798.69 544.646 L 798.69 544.646 Q 799.473 542.121 800.504 540.983 L 800.504 540.983 L 800.504 540.983 Q 801.535 539.845 803.74 539.845 L 803.74 539.845 L 804.842 539.987 L 804.522 542.441 L 804.522 542.441 Q 804.06 542.334 803.384 542.334 L 803.384 542.334 L 803.384 542.334 Q 801.997 542.334 801.02 543.241 L 801.02 543.241 L 801.02 543.241 Q 800.042 544.148 799.579 545.677 L 799.579 545.677 L 799.579 545.677 Q 798.69 548.415 798.69 551.829 L 798.69 551.829 L 798.69 556.986 L 796.236 556.986 L 796.236 545.499 L 796.236 545.499 Q 796.236 541.908 795.845 540.201 L 795.845 540.201 L 795.845 540.201 Z  M 631.78 544.859 L 631.78 544.859 L 631.78 544.859 Q 632.118 543.686 632.118 542.334 L 632.118 542.334 L 632.118 542.334 Q 632.118 540.983 631.798 540.094 L 631.798 540.094 L 633.967 539.845 L 633.967 539.845 Q 634.714 540.272 634.714 541.854 L 634.714 541.854 L 634.714 541.854 Q 634.714 543.437 634.216 545.055 L 634.216 545.055 L 634.216 545.055 Q 633.718 546.673 632.189 550.122 L 632.189 550.122 L 629.166 556.986 L 626.926 556.986 L 623.441 545.322 L 623.441 545.322 Q 622.374 541.765 621.52 540.272 L 621.52 540.272 L 623.37 539.916 L 623.37 539.916 Q 623.903 539.916 624.241 540.45 L 624.241 540.45 L 624.241 540.45 Q 624.579 540.983 625.077 542.583 L 625.077 542.583 L 628.49 553.892 L 628.704 553.892 L 628.704 553.892 Q 628.597 553.607 628.597 553.127 L 628.597 553.127 L 628.597 553.127 Q 628.597 552.647 628.917 551.9 L 628.917 551.9 L 628.917 551.9 Q 631.442 546.033 631.78 544.859 Z  M 649.294 544.859 L 649.294 544.859 L 649.294 542.263 L 649.294 542.263 Q 648.263 541.73 646.2 541.73 L 646.2 541.73 L 646.2 541.73 Q 640.937 541.73 640.937 549.66 L 640.937 549.66 L 640.937 549.66 Q 640.937 555.457 644.458 555.457 L 644.458 555.457 L 644.458 555.457 Q 645.951 555.457 646.965 554.443 L 646.965 554.443 L 646.965 554.443 Q 647.978 553.43 648.476 551.687 L 648.476 551.687 L 648.476 551.687 Q 649.294 548.664 649.294 544.859 Z  M 644.209 557.413 L 644.209 557.413 L 644.209 557.413 Q 641.115 557.413 639.693 555.279 L 639.693 555.279 L 639.693 555.279 Q 638.27 553.145 638.27 549.216 L 638.27 549.216 L 638.27 549.216 Q 638.27 545.286 640.279 542.565 L 640.279 542.565 L 640.279 542.565 Q 642.289 539.845 646.2 539.845 L 646.2 539.845 L 646.2 539.845 Q 647.587 539.845 648.956 540.129 L 648.956 540.129 L 648.956 540.129 Q 650.326 540.414 651.677 540.947 L 651.677 540.947 L 651.677 549.98 L 651.677 549.98 Q 651.677 553.607 652.317 554.568 L 652.317 554.568 L 652.317 554.568 Q 652.922 555.528 654.344 555.528 L 654.344 555.528 L 654.415 557.128 L 654.415 557.128 Q 653.846 557.27 652.993 557.27 L 652.993 557.27 L 652.993 557.27 Q 651.108 557.27 650.29 555.955 L 650.29 555.955 L 650.29 555.955 Q 649.685 554.994 649.685 553.679 L 649.685 553.679 L 649.685 553.679 Q 649.685 553.252 649.757 552.754 L 649.757 552.754 L 649.543 552.754 L 649.543 552.754 Q 648.939 554.888 647.605 556.15 L 647.605 556.15 L 647.605 556.15 Q 646.271 557.413 644.209 557.413 Z  M 658.469 553.928 L 658.469 553.928 L 658.469 530.919 L 661.03 530.492 L 661.03 552.469 L 661.03 552.469 Q 661.03 554.354 661.314 554.905 L 661.314 554.905 L 661.314 554.905 Q 661.599 555.457 662.95 555.457 L 662.95 555.457 L 663.021 557.021 L 663.021 557.021 Q 662.452 557.27 661.101 557.27 L 661.101 557.27 L 661.101 557.27 Q 659.749 557.27 659.109 556.488 L 659.109 556.488 L 659.109 556.488 Q 658.469 555.706 658.469 553.928 Z  M 670.774 557.27 L 670.774 557.27 L 670.774 557.27 Q 669.138 557.27 668.498 556.488 L 668.498 556.488 L 668.498 556.488 Q 667.858 555.706 667.858 553.928 L 667.858 553.928 L 667.858 540.272 L 670.418 540.272 L 670.418 552.469 L 670.418 552.469 Q 670.418 554.354 670.703 554.905 L 670.703 554.905 L 670.703 554.905 Q 670.987 555.457 672.338 555.457 L 672.338 555.457 L 672.41 557.021 L 672.41 557.021 Q 671.592 557.27 670.774 557.27 Z  M 667.609 534.688 L 667.609 534.688 L 667.609 534.688 Q 667.609 533.017 669.245 533.017 L 669.245 533.017 L 669.245 533.017 Q 670.738 533.017 670.738 534.635 L 670.738 534.635 L 670.738 534.635 Q 670.738 536.253 669.173 536.253 L 669.173 536.253 L 669.173 536.253 Q 667.609 536.253 667.609 534.688 Z  M 681.869 557.413 L 681.869 557.413 L 681.869 557.413 Q 678.775 557.413 677.353 555.279 L 677.353 555.279 L 677.353 555.279 Q 675.93 553.145 675.93 549.216 L 675.93 549.216 L 675.93 549.216 Q 675.93 545.286 677.939 542.565 L 677.939 542.565 L 677.939 542.565 Q 679.949 539.845 683.861 539.845 L 683.861 539.845 L 683.861 539.845 Q 685.39 539.845 686.954 540.485 L 686.954 540.485 L 686.954 530.919 L 689.337 530.492 L 689.337 549.98 L 689.337 549.98 Q 689.337 553.145 689.799 554.336 L 689.799 554.336 L 689.799 554.336 Q 690.262 555.528 691.862 555.528 L 691.862 555.528 L 691.933 557.128 L 691.933 557.128 Q 691.471 557.27 690.511 557.27 L 690.511 557.27 L 690.511 557.27 Q 688.733 557.27 688.039 556.203 L 688.039 556.203 L 688.039 556.203 Q 687.346 555.137 687.346 553.75 L 687.346 553.75 L 687.346 553.75 Q 687.346 553.394 687.381 552.967 L 687.381 552.967 L 687.168 552.967 L 687.168 552.967 Q 685.745 557.413 681.869 557.413 Z  M 686.954 545.926 L 686.954 545.926 L 686.954 542.263 L 686.954 542.263 Q 685.923 541.73 683.861 541.73 L 683.861 541.73 L 683.861 541.73 Q 678.597 541.73 678.597 549.66 L 678.597 549.66 L 678.597 549.66 Q 678.597 555.457 682.118 555.457 L 682.118 555.457 L 682.118 555.457 Q 683.505 555.457 684.518 554.55 L 684.518 554.55 L 684.518 554.55 Q 685.532 553.643 686.03 552.149 L 686.03 552.149 L 686.03 552.149 Q 686.954 549.34 686.954 545.926 Z  M 705.838 544.859 L 705.838 544.859 L 705.838 542.263 L 705.838 542.263 Q 704.807 541.73 702.744 541.73 L 702.744 541.73 L 702.744 541.73 Q 697.481 541.73 697.481 549.66 L 697.481 549.66 L 697.481 549.66 Q 697.481 555.457 701.001 555.457 L 701.001 555.457 L 701.001 555.457 Q 702.495 555.457 703.509 554.443 L 703.509 554.443 L 703.509 554.443 Q 704.522 553.43 705.02 551.687 L 705.02 551.687 L 705.02 551.687 Q 705.838 548.664 705.838 544.859 Z  M 700.752 557.413 L 700.752 557.413 L 700.752 557.413 Q 697.659 557.413 696.236 555.279 L 696.236 555.279 L 696.236 555.279 Q 694.814 553.145 694.814 549.216 L 694.814 549.216 L 694.814 549.216 Q 694.814 545.286 696.823 542.565 L 696.823 542.565 L 696.823 542.565 Q 698.832 539.845 702.744 539.845 L 702.744 539.845 L 702.744 539.845 Q 704.131 539.845 705.5 540.129 L 705.5 540.129 L 705.5 540.129 Q 706.869 540.414 708.22 540.947 L 708.22 540.947 L 708.22 549.98 L 708.22 549.98 Q 708.22 553.607 708.861 554.568 L 708.861 554.568 L 708.861 554.568 Q 709.465 555.528 710.888 555.528 L 710.888 555.528 L 710.959 557.128 L 710.959 557.128 Q 710.39 557.27 709.536 557.27 L 709.536 557.27 L 709.536 557.27 Q 707.651 557.27 706.834 555.955 L 706.834 555.955 L 706.834 555.955 Q 706.229 554.994 706.229 553.679 L 706.229 553.679 L 706.229 553.679 Q 706.229 553.252 706.3 552.754 L 706.3 552.754 L 706.087 552.754 L 706.087 552.754 Q 705.482 554.888 704.149 556.15 L 704.149 556.15 L 704.149 556.15 Q 702.815 557.413 700.752 557.413 Z  M 723.085 555.208 L 723.085 555.208 L 723.441 556.772 L 723.441 556.772 Q 722.125 557.413 720.276 557.413 L 720.276 557.413 L 720.276 557.413 Q 717.644 557.413 716.791 555.99 L 716.791 555.99 L 716.791 555.99 Q 715.937 554.568 715.937 551.474 L 715.937 551.474 L 715.937 542.157 L 713.092 542.157 L 713.092 540.627 L 715.937 540.272 L 715.937 536.573 L 718.498 536.147 L 718.498 540.272 L 723.085 540.272 L 723.085 542.157 L 718.498 542.157 L 718.498 550.691 L 718.498 550.691 Q 718.498 553.999 719.067 554.71 L 719.067 554.71 L 719.067 554.71 Q 719.778 555.528 720.987 555.528 L 720.987 555.528 L 720.987 555.528 Q 722.196 555.528 723.085 555.208 Z  M 733.434 555.528 L 733.434 555.528 L 733.434 555.528 Q 735.212 555.528 736.35 554.425 L 736.35 554.425 L 736.35 554.425 Q 737.488 553.323 737.897 551.758 L 737.897 551.758 L 737.897 551.758 Q 738.306 550.194 738.306 548.166 L 738.306 548.166 L 738.306 548.166 Q 738.306 541.801 733.79 541.801 L 733.79 541.801 L 733.79 541.801 Q 732.118 541.801 731.016 542.868 L 731.016 542.868 L 731.016 542.868 Q 729.024 544.753 729.024 548.878 L 729.024 548.878 L 729.024 548.878 Q 729.024 555.528 733.434 555.528 Z  M 740.973 548.202 L 740.973 548.202 L 740.973 548.202 Q 740.973 552.114 738.999 554.763 L 738.999 554.763 L 738.999 554.763 Q 737.026 557.413 733.309 557.413 L 733.309 557.413 L 733.309 557.413 Q 729.593 557.413 728.029 555.261 L 728.029 555.261 L 728.029 555.261 Q 726.464 553.11 726.464 548.949 L 726.464 548.949 L 726.464 548.949 Q 726.464 544.788 728.277 542.317 L 728.277 542.317 L 728.277 542.317 Q 730.091 539.845 733.754 539.845 L 733.754 539.845 L 733.754 539.845 Q 737.417 539.845 739.195 542.068 L 739.195 542.068 L 739.195 542.068 Q 740.973 544.29 740.973 548.202 Z  M 745.845 540.201 L 748.014 539.952 L 748.014 539.952 Q 748.726 540.236 748.726 541.783 L 748.726 541.783 L 748.726 541.783 Q 748.726 543.33 748.477 544.646 L 748.477 544.646 L 748.69 544.646 L 748.69 544.646 Q 749.472 542.121 750.504 540.983 L 750.504 540.983 L 750.504 540.983 Q 751.535 539.845 753.74 539.845 L 753.74 539.845 L 754.842 539.987 L 754.522 542.441 L 754.522 542.441 Q 754.06 542.334 753.384 542.334 L 753.384 542.334 L 753.384 542.334 Q 751.997 542.334 751.019 543.241 L 751.019 543.241 L 751.019 543.241 Q 750.041 544.148 749.579 545.677 L 749.579 545.677 L 749.579 545.677 Q 748.69 548.415 748.69 551.829 L 748.69 551.829 L 748.69 556.986 L 746.236 556.986 L 746.236 545.499 L 746.236 545.499 Q 746.236 541.908 745.845 540.201 L 745.845 540.201 L 745.845 540.201 Z  M 500.574 539.952 L 500.574 540.983 L 500.574 540.983 Q 500.574 542.868 500.289 544.148 L 500.289 544.148 L 500.503 544.148 L 500.503 544.148 Q 501.036 542.121 502.281 540.983 L 502.281 540.983 L 502.281 540.983 Q 503.526 539.845 505.375 539.845 L 505.375 539.845 L 505.375 539.845 Q 509.749 539.845 509.749 544.148 L 509.749 544.148 L 509.962 544.148 L 509.962 544.148 Q 511.065 539.845 514.87 539.845 L 514.87 539.845 L 514.87 539.845 Q 517.715 539.845 518.639 541.179 L 518.639 541.179 L 518.639 541.179 Q 519.564 542.512 519.564 545.393 L 519.564 545.393 L 519.564 545.393 Q 519.564 545.535 519.511 548.967 L 519.511 548.967 L 519.511 548.967 Q 519.457 552.398 519.457 553.465 L 519.457 553.465 L 519.457 553.465 Q 519.457 554.532 519.689 554.994 L 519.689 554.994 L 519.689 554.994 Q 519.92 555.457 521.2 555.457 L 521.2 555.457 L 521.271 557.057 L 521.271 557.057 Q 520.773 557.27 519.813 557.27 L 519.813 557.27 L 519.813 557.27 Q 518.106 557.27 517.484 556.488 L 517.484 556.488 L 517.484 556.488 Q 516.861 555.706 516.861 553.999 L 516.861 553.999 L 516.861 553.999 Q 516.861 553.928 516.933 550.069 L 516.933 550.069 L 516.933 550.069 Q 517.004 546.211 517.004 545.891 L 517.004 545.891 L 517.004 545.891 Q 517.004 543.899 516.577 542.886 L 516.577 542.886 L 516.577 542.886 Q 516.15 541.872 514.55 541.872 L 514.55 541.872 L 514.55 541.872 Q 510.069 541.872 510.069 551.758 L 510.069 551.758 L 510.069 556.986 L 507.615 556.986 L 507.615 546.531 L 507.615 546.531 Q 507.615 543.366 507.082 542.69 L 507.082 542.69 L 507.082 542.69 Q 506.371 541.872 505.055 541.872 L 505.055 541.872 L 505.055 541.872 Q 500.503 541.872 500.503 552.043 L 500.503 552.043 L 500.503 556.986 L 498.049 556.986 L 498.049 540.272 L 500.574 539.952 L 500.574 539.952 Z  M 535.887 544.859 L 535.887 544.859 L 535.887 542.263 L 535.887 542.263 Q 534.856 541.73 532.793 541.73 L 532.793 541.73 L 532.793 541.73 Q 527.53 541.73 527.53 549.66 L 527.53 549.66 L 527.53 549.66 Q 527.53 555.457 531.051 555.457 L 531.051 555.457 L 531.051 555.457 Q 532.544 555.457 533.558 554.443 L 533.558 554.443 L 533.558 554.443 Q 534.571 553.43 535.069 551.687 L 535.069 551.687 L 535.069 551.687 Q 535.887 548.664 535.887 544.859 Z  M 530.802 557.413 L 530.802 557.413 L 530.802 557.413 Q 527.708 557.413 526.285 555.279 L 526.285 555.279 L 526.285 555.279 Q 524.863 553.145 524.863 549.216 L 524.863 549.216 L 524.863 549.216 Q 524.863 545.286 526.872 542.565 L 526.872 542.565 L 526.872 542.565 Q 528.881 539.845 532.793 539.845 L 532.793 539.845 L 532.793 539.845 Q 534.18 539.845 535.549 540.129 L 535.549 540.129 L 535.549 540.129 Q 536.918 540.414 538.27 540.947 L 538.27 540.947 L 538.27 549.98 L 538.27 549.98 Q 538.27 553.607 538.91 554.568 L 538.91 554.568 L 538.91 554.568 Q 539.514 555.528 540.937 555.528 L 540.937 555.528 L 541.008 557.128 L 541.008 557.128 Q 540.439 557.27 539.586 557.27 L 539.586 557.27 L 539.586 557.27 Q 537.701 557.27 536.883 555.955 L 536.883 555.955 L 536.883 555.955 Q 536.278 554.994 536.278 553.679 L 536.278 553.679 L 536.278 553.679 Q 536.278 553.252 536.349 552.754 L 536.349 552.754 L 536.136 552.754 L 536.136 552.754 Q 535.531 554.888 534.198 556.15 L 534.198 556.15 L 534.198 556.15 Q 532.864 557.413 530.802 557.413 Z  M 555.019 555.919 L 555.019 555.919 L 555.019 555.919 Q 555.019 554.248 555.268 552.754 L 555.268 552.754 L 555.055 552.754 L 555.055 552.754 Q 553.704 557.413 549.721 557.413 L 549.721 557.413 L 549.721 557.413 Q 546.698 557.413 545.24 555.226 L 545.24 555.226 L 545.24 555.226 Q 543.782 553.038 543.782 549.162 L 543.782 549.162 L 543.782 549.162 Q 543.782 545.286 545.791 542.565 L 545.791 542.565 L 545.791 542.565 Q 547.8 539.845 551.712 539.845 L 551.712 539.845 L 551.712 539.845 Q 553.17 539.845 554.61 540.147 L 554.61 540.147 L 554.61 540.147 Q 556.051 540.45 557.438 541.054 L 557.438 541.054 L 557.473 555.919 L 557.473 555.919 Q 557.473 560.435 555.82 562.978 L 555.82 562.978 L 555.82 562.978 Q 554.166 565.521 550.254 565.521 L 550.254 565.521 L 550.254 565.521 Q 548.832 565.521 547.338 565.005 L 547.338 565.005 L 547.338 565.005 Q 545.844 564.489 544.955 563.565 L 544.955 563.565 L 545.347 562.178 L 545.347 562.178 Q 547.409 563.529 550.165 563.529 L 550.165 563.529 L 550.165 563.529 Q 552.921 563.529 553.97 561.591 L 553.97 561.591 L 553.97 561.591 Q 555.019 559.653 555.019 555.919 Z  M 549.97 555.457 L 549.97 555.457 L 549.97 555.457 Q 555.055 555.457 555.055 542.37 L 555.055 542.37 L 555.055 542.37 Q 553.917 541.73 551.712 541.73 L 551.712 541.73 L 551.712 541.73 Q 546.449 541.73 546.449 549.66 L 546.449 549.66 L 546.449 549.66 Q 546.449 552.114 547.267 553.785 L 547.267 553.785 L 547.267 553.785 Q 548.085 555.457 549.97 555.457 Z  M 566.862 557.27 L 566.862 557.27 L 566.862 557.27 Q 565.226 557.27 564.586 556.488 L 564.586 556.488 L 564.586 556.488 Q 563.945 555.706 563.945 553.928 L 563.945 553.928 L 563.945 540.272 L 566.506 540.272 L 566.506 552.469 L 566.506 552.469 Q 566.506 554.354 566.79 554.905 L 566.79 554.905 L 566.79 554.905 Q 567.075 555.457 568.426 555.457 L 568.426 555.457 L 568.497 557.021 L 568.497 557.021 Q 567.679 557.27 566.862 557.27 Z  M 563.697 534.688 L 563.697 534.688 L 563.697 534.688 Q 563.697 533.017 565.332 533.017 L 565.332 533.017 L 565.332 533.017 Q 566.826 533.017 566.826 534.635 L 566.826 534.635 L 566.826 534.635 Q 566.826 536.253 565.261 536.253 L 565.261 536.253 L 565.261 536.253 Q 563.697 536.253 563.697 534.688 Z  M 578.633 557.413 L 578.633 557.413 L 578.633 557.413 Q 571.982 557.413 571.982 549.233 L 571.982 549.233 L 571.982 549.233 Q 571.982 545.179 573.956 542.512 L 573.956 542.512 L 573.956 542.512 Q 575.93 539.845 579.593 539.845 L 579.593 539.845 L 579.593 539.845 Q 581.691 539.845 583.327 540.556 L 583.327 540.556 L 582.936 542.405 L 582.936 542.405 Q 581.478 541.908 579.877 541.908 L 579.877 541.908 L 579.877 541.908 Q 574.65 541.908 574.65 549.304 L 574.65 549.304 L 574.65 549.304 Q 574.65 555.314 579.059 555.314 L 579.059 555.314 L 579.059 555.314 Q 581.3 555.314 583.256 554.07 L 583.256 554.07 L 583.647 555.457 L 583.647 555.457 Q 582.758 556.346 581.353 556.879 L 581.353 556.879 L 581.353 556.879 Q 579.948 557.413 578.633 557.413 Z  M 597.694 544.859 L 597.694 544.859 L 597.694 542.263 L 597.694 542.263 Q 596.663 541.73 594.6 541.73 L 594.6 541.73 L 594.6 541.73 Q 589.337 541.73 589.337 549.66 L 589.337 549.66 L 589.337 549.66 Q 589.337 555.457 592.857 555.457 L 592.857 555.457 L 592.857 555.457 Q 594.351 555.457 595.364 554.443 L 595.364 554.443 L 595.364 554.443 Q 596.378 553.43 596.876 551.687 L 596.876 551.687 L 596.876 551.687 Q 597.694 548.664 597.694 544.859 Z  M 592.608 557.413 L 592.608 557.413 L 592.608 557.413 Q 589.515 557.413 588.092 555.279 L 588.092 555.279 L 588.092 555.279 Q 586.67 553.145 586.67 549.216 L 586.67 549.216 L 586.67 549.216 Q 586.67 545.286 588.679 542.565 L 588.679 542.565 L 588.679 542.565 Q 590.688 539.845 594.6 539.845 L 594.6 539.845 L 594.6 539.845 Q 595.987 539.845 597.356 540.129 L 597.356 540.129 L 597.356 540.129 Q 598.725 540.414 600.076 540.947 L 600.076 540.947 L 600.076 549.98 L 600.076 549.98 Q 600.076 553.607 600.717 554.568 L 600.717 554.568 L 600.717 554.568 Q 601.321 555.528 602.744 555.528 L 602.744 555.528 L 602.815 557.128 L 602.815 557.128 Q 602.246 557.27 601.392 557.27 L 601.392 557.27 L 601.392 557.27 Q 599.507 557.27 598.69 555.955 L 598.69 555.955 L 598.69 555.955 Q 598.085 554.994 598.085 553.679 L 598.085 553.679 L 598.085 553.679 Q 598.085 553.252 598.156 552.754 L 598.156 552.754 L 597.943 552.754 L 597.943 552.754 Q 597.338 554.888 596.005 556.15 L 596.005 556.15 L 596.005 556.15 Q 594.671 557.413 592.608 557.413 Z  M 606.869 553.928 L 606.869 553.928 L 606.869 530.919 L 609.429 530.492 L 609.429 552.469 L 609.429 552.469 Q 609.429 554.354 609.714 554.905 L 609.714 554.905 L 609.714 554.905 Q 609.998 555.457 611.35 555.457 L 611.35 555.457 L 611.421 557.021 L 611.421 557.021 Q 610.852 557.27 609.5 557.27 L 609.5 557.27 L 609.5 557.27 Q 608.149 557.27 607.509 556.488 L 607.509 556.488 L 607.509 556.488 Q 606.869 555.706 606.869 553.928 Z  M 443.212 544.859 L 443.212 544.859 L 443.212 542.263 L 443.212 542.263 Q 442.181 541.73 440.119 541.73 L 440.119 541.73 L 440.119 541.73 Q 434.855 541.73 434.855 549.66 L 434.855 549.66 L 434.855 549.66 Q 434.855 555.457 438.376 555.457 L 438.376 555.457 L 438.376 555.457 Q 439.87 555.457 440.883 554.443 L 440.883 554.443 L 440.883 554.443 Q 441.897 553.43 442.395 551.687 L 442.395 551.687 L 442.395 551.687 Q 443.212 548.664 443.212 544.859 Z  M 438.127 557.413 L 438.127 557.413 L 438.127 557.413 Q 435.033 557.413 433.611 555.279 L 433.611 555.279 L 433.611 555.279 Q 432.188 553.145 432.188 549.216 L 432.188 549.216 L 432.188 549.216 Q 432.188 545.286 434.198 542.565 L 434.198 542.565 L 434.198 542.565 Q 436.207 539.845 440.119 539.845 L 440.119 539.845 L 440.119 539.845 Q 441.506 539.845 442.875 540.129 L 442.875 540.129 L 442.875 540.129 Q 444.244 540.414 445.595 540.947 L 445.595 540.947 L 445.595 549.98 L 445.595 549.98 Q 445.595 553.607 446.235 554.568 L 446.235 554.568 L 446.235 554.568 Q 446.84 555.528 448.262 555.528 L 448.262 555.528 L 448.333 557.128 L 448.333 557.128 Q 447.764 557.27 446.911 557.27 L 446.911 557.27 L 446.911 557.27 Q 445.026 557.27 444.208 555.955 L 444.208 555.955 L 444.208 555.955 Q 443.604 554.994 443.604 553.679 L 443.604 553.679 L 443.604 553.679 Q 443.604 553.252 443.675 552.754 L 443.675 552.754 L 443.461 552.754 L 443.461 552.754 Q 442.857 554.888 441.523 556.15 L 441.523 556.15 L 441.523 556.15 Q 440.19 557.413 438.127 557.413 Z  M 454.841 539.952 L 454.841 540.983 L 454.841 540.983 Q 454.841 542.868 454.557 544.148 L 454.557 544.148 L 454.77 544.148 L 454.77 544.148 Q 455.268 542.157 456.708 541.001 L 456.708 541.001 L 456.708 541.001 Q 458.149 539.845 460.211 539.845 L 460.211 539.845 L 460.211 539.845 Q 463.021 539.845 464.087 541.25 L 464.087 541.25 L 464.087 541.25 Q 465.154 542.654 465.154 545.464 L 465.154 545.464 L 465.154 545.464 Q 465.154 545.57 465.101 549.091 L 465.101 549.091 L 465.101 549.091 Q 465.048 552.612 465.048 553.572 L 465.048 553.572 L 465.048 553.572 Q 465.048 554.532 465.279 554.994 L 465.279 554.994 L 465.279 554.994 Q 465.51 555.457 466.79 555.457 L 466.79 555.457 L 466.861 557.057 L 466.861 557.057 Q 466.363 557.27 465.403 557.27 L 465.403 557.27 L 465.403 557.27 Q 463.696 557.27 463.074 556.488 L 463.074 556.488 L 463.074 556.488 Q 462.452 555.706 462.452 553.999 L 462.452 553.999 L 462.452 553.999 Q 462.452 553.928 462.523 550.158 L 462.523 550.158 L 462.523 550.158 Q 462.594 546.388 462.594 546.246 L 462.594 546.246 L 462.594 546.246 Q 462.594 544.184 462.06 543.028 L 462.06 543.028 L 462.06 543.028 Q 461.527 541.872 459.944 541.872 L 459.944 541.872 L 459.944 541.872 Q 458.362 541.872 457.313 542.868 L 457.313 542.868 L 457.313 542.868 Q 456.264 543.863 455.73 545.464 L 455.73 545.464 L 455.73 545.464 Q 454.77 548.558 454.77 552.043 L 454.77 552.043 L 454.77 556.986 L 452.316 556.986 L 452.316 540.272 L 454.841 539.952 L 454.841 539.952 Z  M 476.392 557.413 L 476.392 557.413 L 476.392 557.413 Q 473.298 557.413 471.875 555.279 L 471.875 555.279 L 471.875 555.279 Q 470.453 553.145 470.453 549.216 L 470.453 549.216 L 470.453 549.216 Q 470.453 545.286 472.462 542.565 L 472.462 542.565 L 472.462 542.565 Q 474.471 539.845 478.383 539.845 L 478.383 539.845 L 478.383 539.845 Q 479.912 539.845 481.477 540.485 L 481.477 540.485 L 481.477 530.919 L 483.86 530.492 L 483.86 549.98 L 483.86 549.98 Q 483.86 553.145 484.322 554.336 L 484.322 554.336 L 484.322 554.336 Q 484.784 555.528 486.385 555.528 L 486.385 555.528 L 486.456 557.128 L 486.456 557.128 Q 485.994 557.27 485.033 557.27 L 485.033 557.27 L 485.033 557.27 Q 483.255 557.27 482.562 556.203 L 482.562 556.203 L 482.562 556.203 Q 481.868 555.137 481.868 553.75 L 481.868 553.75 L 481.868 553.75 Q 481.868 553.394 481.904 552.967 L 481.904 552.967 L 481.691 552.967 L 481.691 552.967 Q 480.268 557.413 476.392 557.413 Z  M 481.477 545.926 L 481.477 545.926 L 481.477 542.263 L 481.477 542.263 Q 480.446 541.73 478.383 541.73 L 478.383 541.73 L 478.383 541.73 Q 473.12 541.73 473.12 549.66 L 473.12 549.66 L 473.12 549.66 Q 473.12 555.457 476.641 555.457 L 476.641 555.457 L 476.641 555.457 Q 478.028 555.457 479.041 554.55 L 479.041 554.55 L 479.041 554.55 Q 480.055 553.643 480.553 552.149 L 480.553 552.149 L 480.553 552.149 Q 481.477 549.34 481.477 545.926 Z  M 370.844 542.157 L 367.999 542.157 L 367.999 540.627 L 370.844 540.272 L 370.844 537.853 L 370.844 537.853 Q 370.844 530.492 376.249 530.492 L 376.249 530.492 L 376.249 530.492 Q 377.423 530.492 378.347 530.954 L 378.347 530.954 L 377.992 532.519 L 377.992 532.519 Q 377.494 532.377 376.498 532.377 L 376.498 532.377 L 376.498 532.377 Q 375.502 532.377 374.845 532.821 L 374.845 532.821 L 374.845 532.821 Q 374.187 533.266 373.902 534.119 L 373.902 534.119 L 373.902 534.119 Q 373.404 535.471 373.404 537.925 L 373.404 537.925 L 373.404 540.272 L 377.992 540.272 L 377.992 542.157 L 373.404 542.157 L 373.369 560.293 L 373.369 560.293 Q 373.369 561.787 373.191 562.445 L 373.191 562.445 L 373.191 562.445 Q 373.013 563.103 372.373 563.209 L 372.373 563.209 L 370.382 562.782 L 370.382 562.782 Q 370.915 562.142 370.915 559.795 L 370.915 559.795 L 370.844 542.157 L 370.844 542.157 Z  M 390.652 544.859 L 390.652 544.859 L 390.652 542.263 L 390.652 542.263 Q 389.621 541.73 387.558 541.73 L 387.558 541.73 L 387.558 541.73 Q 382.295 541.73 382.295 549.66 L 382.295 549.66 L 382.295 549.66 Q 382.295 555.457 385.815 555.457 L 385.815 555.457 L 385.815 555.457 Q 387.309 555.457 388.323 554.443 L 388.323 554.443 L 388.323 554.443 Q 389.336 553.43 389.834 551.687 L 389.834 551.687 L 389.834 551.687 Q 390.652 548.664 390.652 544.859 Z  M 385.567 557.413 L 385.567 557.413 L 385.567 557.413 Q 382.473 557.413 381.05 555.279 L 381.05 555.279 L 381.05 555.279 Q 379.628 553.145 379.628 549.216 L 379.628 549.216 L 379.628 549.216 Q 379.628 545.286 381.637 542.565 L 381.637 542.565 L 381.637 542.565 Q 383.646 539.845 387.558 539.845 L 387.558 539.845 L 387.558 539.845 Q 388.945 539.845 390.314 540.129 L 390.314 540.129 L 390.314 540.129 Q 391.683 540.414 393.035 540.947 L 393.035 540.947 L 393.035 549.98 L 393.035 549.98 Q 393.035 553.607 393.675 554.568 L 393.675 554.568 L 393.675 554.568 Q 394.279 555.528 395.702 555.528 L 395.702 555.528 L 395.773 557.128 L 395.773 557.128 Q 395.204 557.27 394.35 557.27 L 394.35 557.27 L 394.35 557.27 Q 392.466 557.27 391.648 555.955 L 391.648 555.955 L 391.648 555.955 Q 391.043 554.994 391.043 553.679 L 391.043 553.679 L 391.043 553.679 Q 391.043 553.252 391.114 552.754 L 391.114 552.754 L 390.901 552.754 L 390.901 552.754 Q 390.296 554.888 388.963 556.15 L 388.963 556.15 L 388.963 556.15 Q 387.629 557.413 385.567 557.413 Z  M 402.814 555.457 L 402.814 555.457 L 402.814 555.457 Q 404.379 555.457 405.446 554.728 L 405.446 554.728 L 405.446 554.728 Q 406.513 553.999 406.513 552.647 L 406.513 552.647 L 406.513 552.647 Q 406.513 551.225 405.161 550.407 L 405.161 550.407 L 405.161 550.407 Q 404.485 550.016 403.525 549.607 L 403.525 549.607 L 403.525 549.607 Q 402.565 549.198 402.352 549.091 L 402.352 549.091 L 402.352 549.091 Q 400.574 548.309 399.596 547.242 L 399.596 547.242 L 399.596 547.242 Q 398.618 546.175 398.618 544.201 L 398.618 544.201 L 398.618 544.201 Q 398.618 542.228 400.218 541.036 L 400.218 541.036 L 400.218 541.036 Q 401.818 539.845 403.988 539.845 L 403.988 539.845 L 403.988 539.845 Q 406.157 539.845 407.899 540.698 L 407.899 540.698 L 407.508 542.299 L 407.508 542.299 Q 405.73 541.801 404.361 541.801 L 404.361 541.801 L 404.361 541.801 Q 402.992 541.801 401.996 542.423 L 401.996 542.423 L 401.996 542.423 Q 401 543.046 401 544.148 L 401 544.148 L 401 544.148 Q 401 545.25 401.676 545.873 L 401.676 545.873 L 401.676 545.873 Q 402.352 546.495 403.081 546.815 L 403.081 546.815 L 403.081 546.815 Q 403.81 547.135 404.646 547.473 L 404.646 547.473 L 404.646 547.473 Q 405.481 547.811 405.73 547.953 L 405.73 547.953 L 405.73 547.953 Q 405.979 548.095 406.655 548.469 L 406.655 548.469 L 406.655 548.469 Q 407.33 548.842 407.597 549.162 L 407.597 549.162 L 407.597 549.162 Q 407.864 549.482 408.219 550.016 L 408.219 550.016 L 408.219 550.016 Q 408.895 550.905 408.895 552.541 L 408.895 552.541 L 408.895 552.541 Q 408.895 554.888 407.153 556.15 L 407.153 556.15 L 407.153 556.15 Q 405.41 557.413 402.725 557.413 L 402.725 557.413 L 402.725 557.413 Q 400.04 557.413 397.978 555.634 L 397.978 555.634 L 398.369 554.212 L 398.369 554.212 Q 400.396 555.457 402.814 555.457 Z  M 421.377 555.208 L 421.377 555.208 L 421.733 556.772 L 421.733 556.772 Q 420.417 557.413 418.568 557.413 L 418.568 557.413 L 418.568 557.413 Q 415.936 557.413 415.083 555.99 L 415.083 555.99 L 415.083 555.99 Q 414.229 554.568 414.229 551.474 L 414.229 551.474 L 414.229 542.157 L 411.385 542.157 L 411.385 540.627 L 414.229 540.272 L 414.229 536.573 L 416.79 536.147 L 416.79 540.272 L 421.377 540.272 L 421.377 542.157 L 416.79 542.157 L 416.79 550.691 L 416.79 550.691 Q 416.79 553.999 417.359 554.71 L 417.359 554.71 L 417.359 554.71 Q 418.07 555.528 419.279 555.528 L 419.279 555.528 L 419.279 555.528 Q 420.488 555.528 421.377 555.208 Z  M 277.316 555.066 L 277.885 553.181 L 277.885 553.181 Q 280.694 555.101 283.308 555.101 L 283.308 555.101 L 283.308 555.101 Q 285.922 555.101 287.398 553.892 L 287.398 553.892 L 287.398 553.892 Q 288.873 552.683 288.873 550.549 L 288.873 550.549 L 288.873 550.549 Q 288.873 548.807 287.807 547.811 L 287.807 547.811 L 287.807 547.811 Q 286.669 546.708 284.25 545.606 L 284.25 545.606 L 284.25 545.606 Q 283.539 545.25 283.255 545.108 L 283.255 545.108 L 283.255 545.108 Q 280.836 543.97 279.503 542.477 L 279.503 542.477 L 279.503 542.477 Q 278.169 540.983 278.169 538.245 L 278.169 538.245 L 278.169 538.245 Q 278.169 535.506 280.214 533.764 L 280.214 533.764 L 280.214 533.764 Q 282.259 532.021 285.139 532.021 L 285.139 532.021 L 285.139 532.021 Q 288.02 532.021 290.403 533.053 L 290.403 533.053 L 289.869 535.009 L 289.869 535.009 Q 287.735 534.297 285.708 534.297 L 285.708 534.297 L 285.708 534.297 Q 283.681 534.297 282.294 535.346 L 282.294 535.346 L 282.294 535.346 Q 280.908 536.395 280.908 538.102 L 280.908 538.102 L 280.908 538.102 Q 280.908 539.809 281.868 540.841 L 281.868 540.841 L 281.868 540.841 Q 282.97 541.979 285.78 543.259 L 285.78 543.259 L 285.78 543.259 Q 288.34 544.468 289.265 545.286 L 289.265 545.286 L 289.265 545.286 Q 290.545 546.46 290.865 547.171 L 290.865 547.171 L 290.865 547.171 Q 291.541 548.878 291.541 550.407 L 291.541 550.407 L 291.541 550.407 Q 291.541 553.643 289.318 555.528 L 289.318 555.528 L 289.318 555.528 Q 287.095 557.413 283.628 557.413 L 283.628 557.413 L 283.628 557.413 Q 280.161 557.413 277.316 555.066 L 277.316 555.066 L 277.316 555.066 Z  M 296.27 542.725 L 296.27 542.725 L 296.27 542.725 Q 296.27 541.019 295.844 540.201 L 295.844 540.201 L 297.871 539.845 L 297.871 539.845 Q 298.475 539.987 298.635 540.556 L 298.635 540.556 L 298.635 540.556 Q 298.795 541.125 298.795 541.73 L 298.795 541.73 L 298.795 541.73 Q 298.795 542.157 298.653 546.62 L 298.653 546.62 L 298.653 546.62 Q 298.511 551.083 298.511 551.58 L 298.511 551.58 L 298.511 551.58 Q 298.511 552.078 298.564 552.701 L 298.564 552.701 L 298.564 552.701 Q 298.617 553.323 298.902 553.999 L 298.902 553.999 L 298.902 553.999 Q 299.4 555.386 301.32 555.386 L 301.32 555.386 L 301.32 555.386 Q 302.743 555.386 303.756 554.372 L 303.756 554.372 L 303.756 554.372 Q 304.77 553.359 305.232 551.687 L 305.232 551.687 L 305.232 551.687 Q 306.121 548.664 306.121 545.073 L 306.121 545.073 L 306.121 540.272 L 308.504 540.272 L 308.504 549.98 L 308.504 549.98 Q 308.504 553.145 308.966 554.336 L 308.966 554.336 L 308.966 554.336 Q 309.428 555.528 311.029 555.528 L 311.029 555.528 L 311.1 557.128 L 311.1 557.128 Q 310.531 557.27 309.677 557.27 L 309.677 557.27 L 309.677 557.27 Q 307.899 557.27 307.206 556.221 L 307.206 556.221 L 307.206 556.221 Q 306.512 555.172 306.512 553.785 L 306.512 553.785 L 306.512 553.785 Q 306.512 553.394 306.548 552.967 L 306.548 552.967 L 306.334 552.967 L 306.334 552.967 Q 305.765 555.137 304.254 556.275 L 304.254 556.275 L 304.254 556.275 Q 302.743 557.413 300.307 557.413 L 300.307 557.413 L 300.307 557.413 Q 297.871 557.413 296.91 555.919 L 296.91 555.919 L 296.91 555.919 Q 295.95 554.425 295.95 551.829 L 295.95 551.829 L 295.95 551.829 Q 295.95 551.509 296.11 547.242 L 296.11 547.242 L 296.11 547.242 Q 296.27 542.974 296.27 542.725 Z  M 314.905 540.201 L 317.074 539.952 L 317.074 539.952 Q 317.785 540.236 317.785 541.605 L 317.785 541.605 L 317.785 541.605 Q 317.785 542.974 317.536 544.29 L 317.536 544.29 L 317.75 544.29 L 317.75 544.29 Q 318.959 539.845 323.12 539.845 L 323.12 539.845 L 323.12 539.845 Q 326.214 539.845 327.458 541.854 L 327.458 541.854 L 327.458 541.854 Q 328.703 543.863 328.703 547.882 L 328.703 547.882 L 328.703 547.882 Q 328.703 551.9 326.729 554.657 L 326.729 554.657 L 326.729 554.657 Q 324.755 557.413 320.773 557.413 L 320.773 557.413 L 320.773 557.413 Q 319.243 557.413 317.679 556.772 L 317.679 556.772 L 317.679 565.094 L 315.296 565.094 L 315.296 545.499 L 315.296 545.499 Q 315.296 541.908 314.905 540.201 L 314.905 540.201 L 314.905 540.201 Z  M 317.679 551.331 L 317.679 551.331 L 317.679 554.994 L 317.679 554.994 Q 318.71 555.528 320.773 555.528 L 320.773 555.528 L 320.773 555.528 Q 326.036 555.528 326.036 547.206 L 326.036 547.206 L 326.036 547.206 Q 326.036 541.872 322.693 541.872 L 322.693 541.872 L 322.693 541.872 Q 321.306 541.872 320.275 542.779 L 320.275 542.779 L 320.275 542.779 Q 319.243 543.686 318.71 545.179 L 318.71 545.179 L 318.71 545.179 Q 317.679 548.024 317.679 551.331 Z  M 342.501 543.935 L 342.501 543.935 L 342.501 543.935 Q 342.501 542.903 341.861 542.37 L 341.861 542.37 L 341.861 542.37 Q 341.221 541.836 340.154 541.836 L 340.154 541.836 L 340.154 541.836 Q 338.02 541.836 336.811 543.597 L 336.811 543.597 L 336.811 543.597 Q 335.602 545.357 335.424 547.846 L 335.424 547.846 L 335.424 547.846 Q 342.501 547.846 342.501 543.935 Z  M 339.443 557.413 L 339.443 557.413 L 339.443 557.413 Q 332.757 557.413 332.757 548.878 L 332.757 548.878 L 332.757 548.878 Q 332.757 544.966 334.731 542.405 L 334.731 542.405 L 334.731 542.405 Q 336.704 539.845 340.296 539.845 L 340.296 539.845 L 340.296 539.845 Q 342.501 539.845 343.799 540.894 L 343.799 540.894 L 343.799 540.894 Q 345.097 541.943 345.097 543.775 L 345.097 543.775 L 345.097 543.775 Q 345.097 545.606 344.226 546.762 L 344.226 546.762 L 344.226 546.762 Q 343.354 547.918 341.861 548.522 L 341.861 548.522 L 341.861 548.522 Q 339.051 549.66 335.353 549.66 L 335.353 549.66 L 335.353 549.66 Q 335.353 555.314 339.869 555.314 L 339.869 555.314 L 339.869 555.314 Q 342.145 555.314 344.172 554.07 L 344.172 554.07 L 344.564 555.457 L 344.564 555.457 Q 343.674 556.346 342.234 556.879 L 342.234 556.879 L 342.234 556.879 Q 340.794 557.413 339.443 557.413 Z  M 349.044 540.201 L 351.214 539.952 L 351.214 539.952 Q 351.925 540.236 351.925 541.783 L 351.925 541.783 L 351.925 541.783 Q 351.925 543.33 351.676 544.646 L 351.676 544.646 L 351.889 544.646 L 351.889 544.646 Q 352.672 542.121 353.703 540.983 L 353.703 540.983 L 353.703 540.983 Q 354.734 539.845 356.939 539.845 L 356.939 539.845 L 358.042 539.987 L 357.721 542.441 L 357.721 542.441 Q 357.259 542.334 356.583 542.334 L 356.583 542.334 L 356.583 542.334 Q 355.197 542.334 354.219 543.241 L 354.219 543.241 L 354.219 543.241 Q 353.241 544.148 352.778 545.677 L 352.778 545.677 L 352.778 545.677 Q 351.889 548.415 351.889 551.829 L 351.889 551.829 L 351.889 556.986 L 349.436 556.986 L 349.436 545.499 L 349.436 545.499 Q 349.436 541.908 349.044 540.201 L 349.044 540.201 L 349.044 540.201 Z " fill="url(#_lgradient_2)"/><g><path d="M 821.277 517.08 L 866.243 517.08 C 869.255 517.08 871.7 519.525 871.7 522.537 L 871.7 567.503 C 871.7 570.515 869.255 572.96 866.243 572.96 L 821.277 572.96 C 818.265 572.96 815.82 570.515 815.82 567.503 L 815.82 522.537 C 815.82 519.525 818.265 517.08 821.277 517.08 Z" style="stroke:none;fill:#3178C6;stroke-miterlimit:10;"/><path d="M 821.277 517.08 L 866.243 517.08 C 869.255 517.08 871.7 519.525 871.7 522.537 L 871.7 567.503 C 871.7 570.515 869.255 572.96 866.243 572.96 L 821.277 572.96 C 818.265 572.96 815.82 570.515 815.82 567.503 L 815.82 522.537 C 815.82 519.525 818.265 517.08 821.277 517.08 Z" style="stroke:none;fill:#3178C6;stroke-miterlimit:10;"/><path d=" M 850.409 561.546 L 850.409 567.01 C 851.298 567.465 852.348 567.807 853.561 568.034 C 854.774 568.262 856.052 568.376 857.396 568.376 C 858.705 568.376 859.949 568.251 861.128 568 C 862.307 567.75 863.34 567.337 864.228 566.762 C 865.116 566.188 865.82 565.436 866.338 564.508 C 866.856 563.581 867.115 562.434 867.115 561.068 C 867.115 560.078 866.967 559.21 866.671 558.464 C 866.375 557.719 865.948 557.056 865.39 556.475 C 864.832 555.895 864.163 555.374 863.383 554.913 C 862.603 554.452 861.723 554.016 860.744 553.607 C 860.026 553.311 859.383 553.023 858.813 552.744 C 858.244 552.465 857.76 552.181 857.362 551.891 C 856.963 551.6 856.656 551.293 856.439 550.969 C 856.223 550.644 856.115 550.277 856.115 549.867 C 856.115 549.492 856.211 549.153 856.405 548.851 C 856.599 548.55 856.872 548.291 857.225 548.074 C 857.578 547.858 858.011 547.69 858.523 547.571 C 859.036 547.451 859.605 547.392 860.231 547.392 C 860.687 547.392 861.168 547.426 861.675 547.494 C 862.181 547.562 862.691 547.668 863.203 547.81 C 863.716 547.952 864.214 548.131 864.698 548.348 C 865.182 548.564 865.629 548.814 866.039 549.099 L 866.039 543.994 C 865.208 543.675 864.299 543.439 863.314 543.285 C 862.329 543.132 861.199 543.055 859.924 543.055 C 858.626 543.055 857.396 543.194 856.234 543.473 C 855.073 543.752 854.051 544.187 853.168 544.779 C 852.286 545.371 851.588 546.125 851.076 547.042 C 850.563 547.958 850.307 549.053 850.307 550.328 C 850.307 551.956 850.777 553.345 851.716 554.494 C 852.656 555.644 854.082 556.617 855.995 557.414 C 856.747 557.722 857.447 558.023 858.096 558.319 C 858.745 558.615 859.306 558.922 859.779 559.241 C 860.251 559.56 860.624 559.907 860.897 560.283 C 861.171 560.658 861.307 561.085 861.307 561.563 C 861.307 561.916 861.222 562.243 861.051 562.545 C 860.88 562.847 860.621 563.108 860.274 563.33 C 859.927 563.552 859.494 563.726 858.976 563.851 C 858.458 563.976 857.851 564.039 857.157 564.039 C 855.972 564.039 854.799 563.831 853.638 563.416 C 852.476 563 851.4 562.377 850.409 561.546 L 850.409 561.546 Z  M 841.224 548.084 L 848.233 548.084 L 848.233 543.6 L 828.697 543.6 L 828.697 548.084 L 835.672 548.084 L 835.672 568.048 L 841.224 568.048 L 841.224 548.084 Z " fill-rule="evenodd" fill="rgb(255,255,255)"/></g><g><path d="M 953.577 517.08 L 998.543 517.08 C 1001.555 517.08 1004 519.525 1004 522.537 L 1004 567.503 C 1004 570.515 1001.555 572.96 998.543 572.96 L 953.577 572.96 C 950.565 572.96 948.12 570.515 948.12 567.503 L 948.12 522.537 C 948.12 519.525 950.565 517.08 953.577 517.08 Z" style="stroke:none;fill:#F7DF1E;stroke-miterlimit:10;"/><path d=" M 985.657 560.736 C 986.782 562.574 988.247 563.925 990.837 563.925 C 993.013 563.925 994.403 562.837 994.403 561.335 C 994.403 559.534 992.975 558.896 990.58 557.849 L 989.267 557.286 C 985.478 555.671 982.96 553.649 982.96 549.374 C 982.96 545.435 985.961 542.437 990.651 542.437 C 993.989 542.437 996.39 543.599 998.119 546.642 L 994.03 549.267 C 993.13 547.653 992.158 547.017 990.651 547.017 C 989.113 547.017 988.138 547.992 988.138 549.267 C 988.138 550.842 989.113 551.48 991.366 552.456 L 992.679 553.018 C 997.141 554.932 999.66 556.882 999.66 561.267 C 999.66 565.995 995.946 568.585 990.958 568.585 C 986.082 568.585 982.931 566.261 981.389 563.215 L 985.657 560.736 Z  M 967.107 561.191 C 967.932 562.655 968.682 563.892 970.486 563.892 C 972.212 563.892 973.3 563.217 973.3 560.592 L 973.3 542.737 L 978.551 542.737 L 978.551 560.663 C 978.551 566.101 975.363 568.575 970.71 568.575 C 966.505 568.575 964.071 566.4 962.832 563.779 L 967.107 561.191 Z " fill="rgb(0,0,0)"/></g></g></svg>