<?xml version="1.0" encoding="UTF-8" standalone="no"?><!-- Generator: Gravit.io --><svg xmlns="http://www.w3.org/2000/svg" xmlns:xlink="http://www.w3.org/1999/xlink" style="isolation:isolate" viewBox="0 0 400 340" width="400pt" height="340pt"><g><path d=" M 97.877 250.647 C -63.5 116.844 97.199 -53.121 194.16 70.511 C 275.753 -37.978 461.539 87.236 287.731 252.455 C 275.753 263.756 261.965 273.475 248.404 282.967 C 231.867 294.495 214.823 305.279 197.324 315.288 L 196.194 315.966 L 194.838 316.644 C 194.078 316.762 193.3 316.684 192.578 316.418 L 191.9 315.966 L 186.928 313.254 C 169.976 303.309 153.025 292.686 137.204 281.159 C 123.643 271.666 110.76 261.044 98.103 250.647 L 97.877 250.647 Z " fill-rule="evenodd" fill="rgb(0,0,0)" fill-opacity="0.2"/><mask id="_mask_VELYKfzjL9hNvuBCMDf86TwB0pEryqZt" x="-200%" y="-200%" width="400%" height="400%"><rect x="-200%" y="-200%" width="400%" height="400%" style="fill:white;"/><path d=" M 109.404 246.352 C -51.973 112.776 108.726 -57.641 205.461 66.216 C 286.827 -42.272 472.84 82.942 299.032 248.387 C 287.053 259.687 273.266 269.18 259.705 278.673 C 243.206 290.2 226.255 301.049 208.625 310.993 L 207.495 311.898 L 206.139 312.35 C 205.379 312.468 204.601 312.39 203.879 312.124 L 203.201 311.898 L 198.229 308.959 C 166.928 290.601 137.216 269.659 109.404 246.352 L 109.404 246.352 Z " fill-rule="evenodd" fill="black" stroke="none"/></mask><path d=" M 109.404 246.352 C -51.973 112.776 108.726 -57.641 205.461 66.216 C 286.827 -42.272 472.84 82.942 299.032 248.387 C 287.053 259.687 273.266 269.18 259.705 278.673 C 243.206 290.2 226.255 301.049 208.625 310.993 L 207.495 311.898 L 206.139 312.35 C 205.379 312.468 204.601 312.39 203.879 312.124 L 203.201 311.898 L 198.229 308.959 C 166.928 290.601 137.216 269.659 109.404 246.352 L 109.404 246.352 Z " fill-rule="evenodd" fill="rgb(255,255,255)"/><path d=" M 109.404 246.352 C -51.973 112.776 108.726 -57.641 205.461 66.216 C 286.827 -42.272 472.84 82.942 299.032 248.387 C 287.053 259.687 273.266 269.18 259.705 278.673 C 243.206 290.2 226.255 301.049 208.625 310.993 L 207.495 311.898 L 206.139 312.35 C 205.379 312.468 204.601 312.39 203.879 312.124 L 203.201 311.898 L 198.229 308.959 C 166.928 290.601 137.216 269.659 109.404 246.352 L 109.404 246.352 Z " fill-rule="evenodd" fill="rgb(255,255,255)" mask="url(#_mask_VELYKfzjL9hNvuBCMDf86TwB0pEryqZt)" vector-effect="non-scaling-stroke" stroke-width="3.375" stroke="rgb(207,207,207)" stroke-linejoin="round" stroke-linecap="butt" stroke-miterlimit="1.41"/><path d=" M 205.461 90.4 C 236.199 32.314 297.902 32.314 328.641 58.758 C 359.605 85.202 359.605 137.864 328.641 190.752 C 307.169 230.305 251.795 269.858 205.235 296.302 C 159.127 269.858 103.527 230.305 82.055 190.752 C 51.091 137.864 51.091 85.202 82.055 58.758 C 112.794 32.314 174.497 32.314 205.461 90.4 Z " fill-rule="evenodd" fill="rgb(231,47,47)"/><path d=" M 130.875 37.964 C 158.185 38.11 183.722 51.511 199.359 73.901 L 205.235 82.49 L 205.235 82.942 L 206.365 81.134 L 207.269 80.003 C 211.479 73.713 216.244 67.813 221.508 62.374 C 230.469 53.667 241.177 46.965 252.925 42.711 C 279.357 33.633 308.583 38.475 330.675 55.594 C 339.663 62.967 346.463 72.659 350.338 83.62 C 355.735 98.594 357.214 114.699 354.633 130.405 C 353.291 140.942 350.634 151.269 346.722 161.144 C 342.774 172.034 337.858 182.548 332.031 192.56 L 330.901 194.368 C 325.702 203.409 319.148 211.998 312.141 219.908 C 304.683 228.271 296.32 236.182 287.958 243.414 C 263.067 264.214 236.366 282.746 208.173 298.789 L 207.269 299.467 L 205.913 299.919 L 204.105 299.693 L 203.427 299.467 L 198.907 296.98 C 183.989 287.94 169.298 278.899 155.059 268.728 C 143.306 260.139 131.553 251.325 120.704 241.606 C 112.241 234.349 104.31 226.494 96.973 218.1 C 90.092 210.224 84.034 201.667 78.891 192.56 L 77.309 190.074 C 69.284 175.513 63.061 160.03 58.776 143.966 C 57.496 138.524 56.515 133.016 55.837 127.467 C 53.835 111.645 55.776 95.572 61.488 80.682 C 65.969 70.252 72.957 61.091 81.829 54.011 C 93.032 45.243 106.534 39.905 120.704 38.642 C 123.417 38.19 126.355 38.19 129.067 37.964 L 130.649 37.964 L 130.875 37.964 Z  M 207.721 93.112 L 207.269 93.565 C 206.919 93.774 206.537 93.927 206.139 94.017 L 205.009 94.017 L 203.879 93.791 C 203.258 93.565 202.711 93.175 202.297 92.66 L 201.619 91.53 L 201.393 90.852 L 200.715 89.496 C 196.997 83.219 192.683 77.315 187.832 71.867 C 179.955 63.169 170.326 56.237 159.58 51.525 C 148.151 46.774 135.75 44.836 123.417 45.875 C 108.411 47.278 94.204 53.276 82.734 63.052 C 76.214 69.178 71.122 76.663 67.816 84.976 C 62.365 99.073 60.88 114.394 63.522 129.275 C 64.843 139.329 67.347 149.191 70.981 158.658 C 74.799 169.091 79.565 179.154 85.22 188.718 L 86.35 190.752 C 91.322 199.341 97.425 207.477 104.205 214.936 C 121.694 233.187 140.921 249.689 161.614 264.208 C 175.627 274.153 190.092 283.193 205.009 291.782 L 205.461 291.782 C 233.191 275.827 259.505 257.528 284.115 237.086 C 292.252 229.853 299.936 222.169 307.395 214.032 C 314.293 206.251 320.354 197.767 325.476 188.718 L 326.833 186.458 C 334.106 173.366 339.869 159.49 344.01 145.097 C 346.043 137.25 347.329 129.228 347.852 121.139 C 348.967 106.866 346.398 92.547 340.394 79.551 C 334.361 67.889 324.677 58.522 312.819 52.881 C 298.679 45.913 282.667 43.693 267.164 46.553 C 249.135 49.714 232.848 59.262 221.282 73.449 C 216.252 79.245 211.927 85.618 208.399 92.434 L 207.947 92.886 L 207.721 93.339 L 207.721 93.112 Z " fill="rgb(67,50,49)"/><path d=" M 205.461 110.742 C 229.645 64.86 278.465 64.86 302.649 85.88 C 327.059 106.448 327.059 148.261 302.649 189.848 C 285.697 221.038 241.85 252.455 205.461 273.249 C 168.846 252.455 124.999 221.264 108.048 189.848 C 83.638 148.261 83.638 106.674 108.048 85.88 C 132.231 64.86 181.051 64.86 205.235 110.742 L 205.461 110.742 Z " fill-rule="evenodd" fill="rgb(197,23,23)"/><path d=" M 205.461 133.118 C 221.96 101.927 255.185 101.927 271.684 115.94 C 288.41 130.179 288.41 158.658 271.684 187.136 C 260.157 208.381 230.323 229.627 205.235 243.866 C 180.373 229.627 150.539 208.381 139.012 187.136 C 122.287 158.658 122.287 130.179 139.012 115.94 C 155.511 101.927 188.736 101.927 205.235 133.118 L 205.461 133.118 Z " fill-rule="evenodd" fill="rgb(167,19,19)"/><path d=" M 205.461 150.295 C 216.762 128.597 240.042 128.597 251.569 138.542 C 262.87 148.261 262.87 167.924 251.569 187.814 C 239.611 204.521 223.793 218.091 205.461 227.367 C 187.047 218.121 171.148 204.549 159.127 187.814 C 147.827 168.15 147.827 148.487 159.127 138.542 C 170.654 128.597 193.934 128.597 205.235 150.295 L 205.461 150.295 Z " fill-rule="evenodd" fill="rgb(138,16,16)"/></g><defs><filter id="ao7BVpk5YZhCVaBiLtTYxSSrtHv8oevJ" x="-200%" y="-200%" width="400%" height="400%" filterUnits="objectBoundingBox" color-interpolation-filters="sRGB"><feGaussianBlur xmlns="http://www.w3.org/2000/svg" in="SourceGraphic" stdDeviation="3.8642481565551257"/><feOffset xmlns="http://www.w3.org/2000/svg" dx="0" dy="0" result="pf_100_offsetBlur"/><feFlood xmlns="http://www.w3.org/2000/svg" flood-color="#000000" flood-opacity="0.65"/><feComposite xmlns="http://www.w3.org/2000/svg" in2="pf_100_offsetBlur" operator="in" result="pf_100_dropShadow"/><feBlend xmlns="http://www.w3.org/2000/svg" in="SourceGraphic" in2="pf_100_dropShadow" mode="normal" result="_out_HGxaBQz5larpPb0z7QA3fvGCiNfW86kx"/><feOffset xmlns="http://www.w3.org/2000/svg" in="_out_HGxaBQz5larpPb0z7QA3fvGCiNfW86kx" dx="0" dy="0"/><feGaussianBlur xmlns="http://www.w3.org/2000/svg" stdDeviation="1.2880827188517086" result="pf_101_offsetBlur"/><feComposite xmlns="http://www.w3.org/2000/svg" in="_out_HGxaBQz5larpPb0z7QA3fvGCiNfW86kx" in2="pf_101_offsetBlur" result="pf_101_inverse" operator="out"/><feFlood xmlns="http://www.w3.org/2000/svg" flood-color="#FFFFFF" flood-opacity="0.5" result="pf_101_color"/><feComposite xmlns="http://www.w3.org/2000/svg" in="pf_101_color" in2="pf_101_inverse" operator="in" result="pf_101_shadow"/><feComposite xmlns="http://www.w3.org/2000/svg" in="pf_101_shadow" in2="_out_HGxaBQz5larpPb0z7QA3fvGCiNfW86kx" operator="over" result="_out_vRm7dT8YIMlRorGxwgPn3zYjf8F1JJWF"/><feMerge><feMergeNode in="_out_vRm7dT8YIMlRorGxwgPn3zYjf8F1JJWF"/></feMerge></filter></defs><g filter="url(#ao7BVpk5YZhCVaBiLtTYxSSrtHv8oevJ)"><linearGradient id="_lgradient_0" x1="0" y1="0.5" x2="1" y2="0.5" gradientTransform="matrix(142.772,0,0,83.89,98.473,103.632)" gradientUnits="userSpaceOnUse"><stop offset="1.2499999999999956%" stop-opacity="1" style="stop-color:rgb(244,117,117)"/><stop offset="98.75%" stop-opacity="1" style="stop-color:rgb(255,186,186)"/></linearGradient><path d=" M 115.577 176.368 L 115.577 176.368 L 115.577 176.368 Q 116.9 179.087 115.344 181.979 L 115.344 181.979 L 115.344 181.979 Q 113.788 184.871 110.723 186.361 L 110.723 186.361 L 110.723 186.361 Q 107.659 187.852 105.237 187.428 L 105.237 187.428 L 105.237 187.428 Q 102.816 187.004 102.333 186.011 L 102.333 186.011 L 102.333 186.011 Q 102.039 185.407 102.889 183.313 L 102.889 183.313 L 102.889 183.313 Q 103.738 181.218 104.628 180.412 L 104.628 180.412 L 104.628 180.412 Q 107.563 180.96 110.623 183.741 L 110.623 183.741 L 110.623 183.741 Q 112.157 182.835 111.486 181.454 L 111.486 181.454 L 111.486 181.454 Q 110.52 179.468 105.25 177.521 L 105.25 177.521 L 105.25 177.521 Q 99.979 175.574 98.93 173.416 L 98.93 173.416 L 98.93 173.416 Q 97.88 171.257 99.245 169.126 L 99.245 169.126 L 99.245 169.126 Q 100.61 166.994 103.351 165.661 L 103.351 165.661 L 103.351 165.661 Q 106.092 164.328 107.946 164.627 L 107.946 164.627 L 107.946 164.627 Q 109.8 164.926 110.608 166.588 L 110.608 166.588 L 110.608 166.588 Q 111.416 168.25 110.21 172.466 L 110.21 172.466 L 110.21 172.466 Q 110.66 172.621 111.376 172.887 L 111.376 172.887 L 111.376 172.887 Q 112.092 173.152 113.541 174.156 L 113.541 174.156 L 113.541 174.156 Q 114.99 175.159 115.577 176.368 Z  M 108.138 171.606 L 108.138 171.606 Q 109.195 169.17 108.46 167.66 L 108.46 167.66 L 108.46 167.66 Q 107.725 166.149 105.653 167.156 L 105.653 167.156 L 105.653 167.156 Q 104.66 167.639 104.212 168.364 L 104.212 168.364 L 104.212 168.364 Q 103.764 169.089 104.016 169.607 L 104.016 169.607 L 104.016 169.607 Q 104.478 170.557 107.217 171.36 L 107.217 171.36 L 108.138 171.606 L 108.138 171.606 Z  M 119.074 177.63 L 119.074 177.63 L 119.074 177.63 Q 118.181 175.795 117.131 170.782 L 117.131 170.782 L 117.131 170.782 Q 116.08 165.768 115.587 164.754 L 115.587 164.754 L 115.587 164.754 Q 115.094 163.74 112.721 162.812 L 112.721 162.812 L 112.491 162.23 L 112.491 162.23 Q 115.133 160.198 119.924 157.868 L 119.924 157.868 L 119.924 157.868 Q 120.413 158.324 121.126 159.791 L 121.126 159.791 L 121.126 159.791 Q 121.84 161.259 122.962 166.638 L 122.962 166.638 L 122.962 166.638 Q 124.083 172.017 124.65 173.183 L 124.65 173.183 L 124.65 173.183 Q 125.217 174.348 126.08 173.928 L 126.08 173.928 L 126.08 173.928 Q 127.332 173.32 128.532 171.615 L 128.532 171.615 L 128.532 171.615 Q 128.2 170.495 127.464 167.224 L 127.464 167.224 L 127.464 167.224 Q 125.659 159.562 124.21 156.584 L 124.21 156.584 L 124.21 156.584 Q 125.427 155.245 129.355 153.334 L 129.355 153.334 L 130.175 152.935 L 130.175 152.935 Q 131.162 154.964 132.819 161.444 L 132.819 161.444 L 132.819 161.444 Q 134.476 167.924 134.969 168.938 L 134.969 168.938 L 134.969 168.938 Q 135.462 169.953 135.894 169.743 L 135.894 169.743 L 135.894 169.743 Q 136.153 169.617 137.851 167.51 L 137.851 167.51 L 139.343 168.493 L 139.343 168.493 Q 137.054 173.555 134.162 174.962 L 134.162 174.962 L 134.162 174.962 Q 132.781 175.634 131.432 175.329 L 131.432 175.329 L 131.432 175.329 Q 130.083 175.024 129.345 173.836 L 129.345 173.836 L 129.345 173.836 Q 127.234 178.385 124.385 179.77 L 124.385 179.77 L 124.385 179.77 Q 122.874 180.505 121.42 179.985 L 121.42 179.985 L 121.42 179.985 Q 119.966 179.464 119.074 177.63 Z  M 142.779 170.291 L 142.779 170.291 L 142.477 170.438 L 142.477 170.438 Q 142.223 170.134 141.624 168.904 L 141.624 168.904 L 141.624 168.904 Q 141.026 167.674 139.567 161.711 L 139.567 161.711 L 139.567 161.711 Q 138.109 155.749 137.731 154.972 L 137.731 154.972 L 137.731 154.972 Q 137.08 153.634 135.095 152.624 L 135.095 152.624 L 134.454 152.295 L 134.224 151.713 L 134.224 151.713 Q 136.241 149.932 141.377 147.434 L 141.377 147.434 L 141.377 147.434 Q 142.441 148.304 143.428 150.333 L 143.428 150.333 L 143.428 150.333 Q 143.525 149.325 144.406 147.295 L 144.406 147.295 L 144.406 147.295 Q 145.287 145.266 146.884 144.489 L 146.884 144.489 L 146.884 144.489 Q 149.215 143.355 151.188 147.413 L 151.188 147.413 L 151.188 147.413 Q 151.098 147.777 150.931 148.365 L 150.931 148.365 L 150.931 148.365 Q 150.763 148.954 150.02 150.223 L 150.02 150.223 L 150.02 150.223 Q 149.276 151.492 148.324 152.169 L 148.324 152.169 L 148.324 152.169 Q 148.281 152.19 147.023 151.36 L 147.023 151.36 L 147.023 151.36 Q 145.766 150.53 145.42 150.698 L 145.42 150.698 L 145.42 150.698 Q 144.53 151.612 144.151 152.917 L 144.151 152.917 L 144.151 152.917 Q 146.511 162.818 147.791 165.451 L 147.791 165.451 L 147.791 165.451 Q 148.253 166.401 148.485 166.768 L 148.485 166.768 L 148.485 166.768 Q 147.268 168.107 142.779 170.291 Z  M 153.761 155.556 L 153.761 155.556 L 153.761 155.556 Q 151.137 150.16 152.874 145.446 L 152.874 145.446 L 152.874 145.446 Q 154.61 140.731 158.754 138.716 L 158.754 138.716 L 158.754 138.716 Q 161.301 137.477 163.55 137.931 L 163.55 137.931 L 163.55 137.931 Q 165.799 138.385 166.818 140.479 L 166.818 140.479 L 166.818 140.479 Q 167.836 142.572 167.471 144.511 L 167.471 144.511 L 167.471 144.511 Q 167.106 146.45 165.973 147.962 L 165.973 147.962 L 165.973 147.962 Q 163.643 150.963 161.285 152.59 L 161.285 152.59 L 160.312 153.223 L 160.312 153.223 Q 162.588 157.134 165.61 155.664 L 165.61 155.664 L 165.61 155.664 Q 166.646 155.161 167.559 154.076 L 167.559 154.076 L 167.559 154.076 Q 168.473 152.991 168.868 152.158 L 168.868 152.158 L 169.264 151.325 L 170.972 152.203 L 170.972 152.203 Q 170.857 152.845 170.199 154.126 L 170.199 154.126 L 170.199 154.126 Q 169.541 155.407 168.886 156.366 L 168.886 156.366 L 168.886 156.366 Q 167.055 158.965 164.076 160.413 L 164.076 160.413 L 164.076 160.413 Q 161.098 161.862 158.342 160.587 L 158.342 160.587 L 158.342 160.587 Q 155.587 159.311 153.761 155.556 Z  M 159.241 151.129 L 159.241 151.129 Q 161.253 149.67 161.834 147.573 L 161.834 147.573 L 161.834 147.573 Q 162.416 145.475 161.282 143.144 L 161.282 143.144 L 161.282 143.144 Q 160.148 140.813 158.767 141.485 L 158.767 141.485 L 158.767 141.485 Q 157.127 142.283 157.596 145.497 L 157.596 145.497 L 157.596 145.497 Q 158.065 148.712 159.241 151.129 L 159.241 151.129 L 159.241 151.129 Z  M 175.064 131.424 L 179.251 129.388 L 179.251 129.388 Q 179.69 130.509 179.735 132.248 L 179.735 132.248 L 179.735 132.248 Q 178.011 132.873 176.543 133.587 L 176.543 133.587 L 175.766 133.965 L 175.766 133.965 Q 178.462 144.557 179.616 146.931 L 179.616 146.931 L 179.616 146.931 Q 180.225 148.183 180.765 147.92 L 180.765 147.92 L 180.765 147.92 Q 181.304 147.658 183.111 145.445 L 183.111 145.445 L 184.58 146.492 L 184.58 146.492 Q 182.292 151.554 179.011 153.15 L 179.011 153.15 L 179.011 153.15 Q 177.501 153.884 176.068 153.407 L 176.068 153.407 L 176.068 153.407 Q 174.635 152.93 173.868 151.354 L 173.868 151.354 L 173.868 151.354 Q 173.102 149.779 172.503 147.615 L 172.503 147.615 L 172.503 147.615 Q 171.904 145.451 171.156 142.265 L 171.156 142.265 L 171.156 142.265 Q 170.407 139.08 169.849 137.163 L 169.849 137.163 L 169.849 137.163 Q 168.315 138.069 167.601 138.577 L 167.601 138.577 L 167.601 138.577 Q 167.262 138.101 166.832 137.216 L 166.832 137.216 L 166.832 137.216 Q 166.402 136.331 166.258 135.707 L 166.258 135.707 L 168.978 134.384 L 168.978 134.384 Q 168.189 131.885 167.182 129.813 L 167.182 129.813 L 166.488 128.496 L 166.425 128.367 L 166.425 128.367 Q 169.225 125.564 172.203 124.115 L 172.203 124.115 L 172.203 124.115 Q 172.796 124.895 173.426 126.189 L 173.426 126.189 L 173.426 126.189 Q 174.055 127.484 175.064 131.424 L 175.064 131.424 L 175.064 131.424 Z  M 195.682 150.166 L 195.682 150.166 L 195.682 150.166 Q 194.655 151.733 195.054 152.553 L 195.054 152.553 L 195.054 152.553 Q 195.453 153.373 196.381 152.922 L 196.381 152.922 L 196.381 152.922 Q 197.309 152.471 198.044 151.019 L 198.044 151.019 L 198.044 151.019 Q 198.78 149.567 198.591 147.204 L 198.591 147.204 L 198.591 147.204 Q 196.708 148.6 195.682 150.166 Z  M 191.405 146.695 L 191.405 146.695 L 191.405 146.695 Q 187.779 148.459 185.847 144.487 L 185.847 144.487 L 185.847 144.487 Q 185.386 143.538 184.045 138.586 L 184.045 138.586 L 184.045 138.586 Q 182.704 133.633 181.234 130.612 L 181.234 130.612 L 181.234 130.612 Q 180.919 129.964 180.474 129.487 L 180.474 129.487 L 180.474 129.487 Q 182.364 127.447 186.421 125.474 L 186.421 125.474 L 186.421 125.474 Q 186.931 125.973 187.645 127.441 L 187.645 127.441 L 187.645 127.441 Q 188.359 128.908 189.655 133.989 L 189.655 133.989 L 189.655 133.989 Q 190.952 139.069 191.603 140.407 L 191.603 140.407 L 191.603 140.407 Q 192.253 141.746 193.376 141.2 L 193.376 141.2 L 193.376 141.2 Q 194.714 140.549 195.962 138.287 L 195.962 138.287 L 195.962 138.287 Q 194.94 135.635 191.16 124.023 L 191.16 124.023 L 191.16 124.023 Q 192.377 122.684 196.305 120.773 L 196.305 120.773 L 197.125 120.375 L 197.125 120.375 Q 197.88 124.011 200.063 130.475 L 200.063 130.475 L 200.063 130.475 Q 202.246 136.939 202.926 139.544 L 202.926 139.544 L 202.926 139.544 Q 204.328 144.733 203.348 148.92 L 203.348 148.92 L 203.348 148.92 Q 202.369 153.106 198.441 155.016 L 198.441 155.016 L 198.441 155.016 Q 196.887 155.772 195.214 155.571 L 195.214 155.571 L 195.214 155.571 Q 193.542 155.37 192.912 154.075 L 192.912 154.075 L 192.912 154.075 Q 192.073 152.349 193.495 149.895 L 193.495 149.895 L 193.495 149.895 Q 194.917 147.442 198.122 144.923 L 198.122 144.923 L 198.122 144.923 Q 197.587 142.835 196.942 140.96 L 196.942 140.96 L 196.942 140.96 Q 194.642 145.121 191.405 146.695 Z  M 210.7 149.054 L 210.7 149.054 L 210.7 149.054 Q 210.232 148.641 209.371 146.871 L 209.371 146.871 L 209.371 146.871 Q 208.51 145.101 206.426 136.534 L 206.426 136.534 L 206.426 136.534 Q 204.341 127.967 202.304 123.78 L 202.304 123.78 L 202.304 123.78 Q 201.905 122.96 201.066 122.221 L 201.066 122.221 L 201.066 122.221 Q 200.226 121.482 199.542 121.174 L 199.542 121.174 L 198.923 120.888 L 198.693 120.306 L 198.693 120.306 Q 200.407 118.672 205.544 116.173 L 205.544 116.173 L 205.544 116.173 Q 206.459 116.849 207.387 118.426 L 207.387 118.426 L 207.387 118.426 Q 209.388 114.09 211.611 113.009 L 211.611 113.009 L 211.611 113.009 Q 213.834 111.928 216.096 113.123 L 216.096 113.123 L 216.096 113.123 Q 218.359 114.318 220.101 117.901 L 220.101 117.901 L 220.101 117.901 Q 223.145 124.16 222.337 128.315 L 222.337 128.315 L 222.337 128.315 Q 221.53 132.471 218.033 134.172 L 218.033 134.172 L 218.033 134.172 Q 216.22 135.053 214.76 135.123 L 214.76 135.123 L 214.244 135.16 L 213.728 133.33 L 213.728 133.33 Q 214.158 133.227 214.676 132.976 L 214.676 132.976 L 214.676 132.976 Q 215.798 132.43 216.136 130.984 L 216.136 130.984 L 216.136 130.984 Q 216.474 129.539 216.129 127.732 L 216.129 127.732 L 216.129 127.732 Q 215.439 124.118 214.116 121.398 L 214.116 121.398 L 214.116 121.398 Q 212.227 117.513 210.63 118.29 L 210.63 118.29 L 210.63 118.29 Q 209.378 118.899 208.436 120.585 L 208.436 120.585 L 208.436 120.585 Q 209.733 123.69 211.81 132.021 L 211.81 132.021 L 211.81 132.021 Q 213.887 140.352 216.133 144.97 L 216.133 144.97 L 216.133 144.97 Q 214.264 147.054 210.7 149.054 Z  M 224.034 121.379 L 224.034 121.379 L 224.034 121.379 Q 221.41 115.983 223.147 111.268 L 223.147 111.268 L 223.147 111.268 Q 224.884 106.554 229.028 104.538 L 229.028 104.538 L 229.028 104.538 Q 231.575 103.3 233.824 103.754 L 233.824 103.754 L 233.824 103.754 Q 236.073 104.208 237.091 106.301 L 237.091 106.301 L 237.091 106.301 Q 238.11 108.395 237.745 110.334 L 237.745 110.334 L 237.745 110.334 Q 237.38 112.273 236.247 113.784 L 236.247 113.784 L 236.247 113.784 Q 233.917 116.786 231.559 118.413 L 231.559 118.413 L 230.586 119.046 L 230.586 119.046 Q 232.862 122.957 235.883 121.487 L 235.883 121.487 L 235.883 121.487 Q 236.919 120.983 237.833 119.899 L 237.833 119.899 L 237.833 119.899 Q 238.746 118.814 239.142 117.981 L 239.142 117.981 L 239.538 117.148 L 241.245 118.025 L 241.245 118.025 Q 241.131 118.668 240.473 119.949 L 240.473 119.949 L 240.473 119.949 Q 239.815 121.23 239.16 122.189 L 239.16 122.189 L 239.16 122.189 Q 237.328 124.788 234.35 126.236 L 234.35 126.236 L 234.35 126.236 Q 231.371 127.685 228.616 126.409 L 228.616 126.409 L 228.616 126.409 Q 225.861 125.134 224.034 121.379 Z  M 229.514 116.952 L 229.514 116.952 Q 231.527 115.493 232.108 113.395 L 232.108 113.395 L 232.108 113.395 Q 232.689 111.298 231.556 108.967 L 231.556 108.967 L 231.556 108.967 Q 230.422 106.636 229.041 107.308 L 229.041 107.308 L 229.041 107.308 Q 227.4 108.106 227.87 111.32 L 227.87 111.32 L 227.87 111.32 Q 228.339 114.535 229.514 116.952 L 229.514 116.952 L 229.514 116.952 Z " fill="url(#_lgradient_0)"/></g><defs><filter id="fnRbO3qHFjmhc1UprwfOQrPA4XMY8AZP" x="-200%" y="-200%" width="400%" height="400%" filterUnits="objectBoundingBox" color-interpolation-filters="sRGB"><feGaussianBlur xmlns="http://www.w3.org/2000/svg" in="SourceGraphic" stdDeviation="3.8642481565551257"/><feOffset xmlns="http://www.w3.org/2000/svg" dx="0" dy="0" result="pf_100_offsetBlur"/><feFlood xmlns="http://www.w3.org/2000/svg" flood-color="#000000" flood-opacity="0.65"/><feComposite xmlns="http://www.w3.org/2000/svg" in2="pf_100_offsetBlur" operator="in" result="pf_100_dropShadow"/><feBlend xmlns="http://www.w3.org/2000/svg" in="SourceGraphic" in2="pf_100_dropShadow" mode="normal" result="_out_33AIRbxEfVIqrgEjmGcjDLMeZ7tW5aAq"/><feOffset xmlns="http://www.w3.org/2000/svg" in="_out_33AIRbxEfVIqrgEjmGcjDLMeZ7tW5aAq" dx="0" dy="0"/><feGaussianBlur xmlns="http://www.w3.org/2000/svg" stdDeviation="1.2880827188517086" result="pf_101_offsetBlur"/><feComposite xmlns="http://www.w3.org/2000/svg" in="_out_33AIRbxEfVIqrgEjmGcjDLMeZ7tW5aAq" in2="pf_101_offsetBlur" result="pf_101_inverse" operator="out"/><feFlood xmlns="http://www.w3.org/2000/svg" flood-color="#FFFFFF" flood-opacity="0.5" result="pf_101_color"/><feComposite xmlns="http://www.w3.org/2000/svg" in="pf_101_color" in2="pf_101_inverse" operator="in" result="pf_101_shadow"/><feComposite xmlns="http://www.w3.org/2000/svg" in="pf_101_shadow" in2="_out_33AIRbxEfVIqrgEjmGcjDLMeZ7tW5aAq" operator="over" result="_out_m81V65FKtCm6lAzbj2EsBNpZlk7FsY1o"/><feMerge><feMergeNode in="_out_m81V65FKtCm6lAzbj2EsBNpZlk7FsY1o"/></feMerge></filter></defs><g filter="url(#fnRbO3qHFjmhc1UprwfOQrPA4XMY8AZP)"><linearGradient id="_lgradient_1" x1="0" y1="0.5" x2="1" y2="0.5" gradientTransform="matrix(145.477,0,0,88.361,181.948,113.557)" gradientUnits="userSpaceOnUse"><stop offset="1.2499999999999956%" stop-opacity="1" style="stop-color:rgb(255,186,186)"/><stop offset="98.75%" stop-opacity="1" style="stop-color:rgb(244,117,117)"/></linearGradient><path d=" M 190.754 177.728 L 194.941 175.692 L 194.941 175.692 Q 195.379 176.813 195.425 178.552 L 195.425 178.552 L 195.425 178.552 Q 193.7 179.177 192.233 179.891 L 192.233 179.891 L 191.456 180.269 L 191.456 180.269 Q 194.152 190.861 195.306 193.235 L 195.306 193.235 L 195.306 193.235 Q 195.915 194.487 196.455 194.224 L 196.455 194.224 L 196.455 194.224 Q 196.994 193.962 198.8 191.749 L 198.8 191.749 L 200.27 192.796 L 200.27 192.796 Q 197.982 197.858 194.701 199.454 L 194.701 199.454 L 194.701 199.454 Q 193.191 200.189 191.758 199.711 L 191.758 199.711 L 191.758 199.711 Q 190.324 199.234 189.558 197.658 L 189.558 197.658 L 189.558 197.658 Q 188.792 196.083 188.193 193.919 L 188.193 193.919 L 188.193 193.919 Q 187.594 191.755 186.846 188.569 L 186.846 188.569 L 186.846 188.569 Q 186.097 185.384 185.539 183.467 L 185.539 183.467 L 185.539 183.467 Q 184.004 184.373 183.29 184.881 L 183.29 184.881 L 183.29 184.881 Q 182.952 184.405 182.522 183.52 L 182.522 183.52 L 182.522 183.52 Q 182.092 182.635 181.948 182.011 L 181.948 182.011 L 184.668 180.688 L 184.668 180.688 Q 183.879 178.189 182.872 176.117 L 182.872 176.117 L 182.178 174.8 L 182.115 174.671 L 182.115 174.671 Q 184.915 171.868 187.893 170.419 L 187.893 170.419 L 187.893 170.419 Q 188.486 171.199 189.115 172.494 L 189.115 172.494 L 189.115 172.494 Q 189.745 173.789 190.754 177.728 L 190.754 177.728 L 190.754 177.728 Z  M 211.372 196.47 L 211.372 196.47 L 211.372 196.47 Q 210.345 198.037 210.744 198.857 L 210.744 198.857 L 210.744 198.857 Q 211.143 199.677 212.071 199.226 L 212.071 199.226 L 212.071 199.226 Q 212.999 198.775 213.734 197.323 L 213.734 197.323 L 213.734 197.323 Q 214.469 195.871 214.281 193.508 L 214.281 193.508 L 214.281 193.508 Q 212.398 194.904 211.372 196.47 Z  M 207.095 192.999 L 207.095 192.999 L 207.095 192.999 Q 203.469 194.763 201.537 190.792 L 201.537 190.792 L 201.537 190.792 Q 201.076 189.842 199.735 184.89 L 199.735 184.89 L 199.735 184.89 Q 198.394 179.937 196.924 176.916 L 196.924 176.916 L 196.924 176.916 Q 196.609 176.268 196.164 175.791 L 196.164 175.791 L 196.164 175.791 Q 198.054 173.751 202.111 171.778 L 202.111 171.778 L 202.111 171.778 Q 202.621 172.277 203.335 173.745 L 203.335 173.745 L 203.335 173.745 Q 204.048 175.212 205.345 180.293 L 205.345 180.293 L 205.345 180.293 Q 206.642 185.373 207.293 186.712 L 207.293 186.712 L 207.293 186.712 Q 207.943 188.05 209.066 187.504 L 209.066 187.504 L 209.066 187.504 Q 210.404 186.853 211.652 184.591 L 211.652 184.591 L 211.652 184.591 Q 210.63 181.939 206.85 170.327 L 206.85 170.327 L 206.85 170.327 Q 208.067 168.988 211.995 167.077 L 211.995 167.077 L 212.815 166.679 L 212.815 166.679 Q 213.569 170.315 215.753 176.779 L 215.753 176.779 L 215.753 176.779 Q 217.936 183.243 218.615 185.848 L 218.615 185.848 L 218.615 185.848 Q 220.018 191.038 219.038 195.224 L 219.038 195.224 L 219.038 195.224 Q 218.059 199.41 214.131 201.32 L 214.131 201.32 L 214.131 201.32 Q 212.577 202.076 210.904 201.875 L 210.904 201.875 L 210.904 201.875 Q 209.232 201.674 208.602 200.379 L 208.602 200.379 L 208.602 200.379 Q 207.762 198.653 209.185 196.2 L 209.185 196.2 L 209.185 196.2 Q 210.607 193.746 213.812 191.227 L 213.812 191.227 L 213.812 191.227 Q 213.277 189.139 212.632 187.264 L 212.632 187.264 L 212.632 187.264 Q 210.332 191.425 207.095 192.999 Z  M 226.39 195.358 L 226.39 195.358 L 226.39 195.358 Q 225.922 194.945 225.061 193.175 L 225.061 193.175 L 225.061 193.175 Q 224.2 191.405 222.116 182.838 L 222.116 182.838 L 222.116 182.838 Q 220.031 174.271 217.994 170.084 L 217.994 170.084 L 217.994 170.084 Q 217.595 169.264 216.756 168.525 L 216.756 168.525 L 216.756 168.525 Q 215.916 167.786 215.232 167.478 L 215.232 167.478 L 214.613 167.192 L 214.383 166.61 L 214.383 166.61 Q 216.097 164.976 221.234 162.478 L 221.234 162.478 L 221.234 162.478 Q 222.149 163.153 223.077 164.73 L 223.077 164.73 L 223.077 164.73 Q 225.078 160.394 227.301 159.313 L 227.301 159.313 L 227.301 159.313 Q 229.524 158.232 231.786 159.427 L 231.786 159.427 L 231.786 159.427 Q 234.049 160.622 235.791 164.205 L 235.791 164.205 L 235.791 164.205 Q 238.835 170.464 238.027 174.619 L 238.027 174.619 L 238.027 174.619 Q 237.22 178.775 233.723 180.476 L 233.723 180.476 L 233.723 180.476 Q 231.91 181.357 230.45 181.427 L 230.45 181.427 L 229.934 181.465 L 229.417 179.634 L 229.417 179.634 Q 229.848 179.532 230.366 179.28 L 230.366 179.28 L 230.366 179.28 Q 231.488 178.734 231.826 177.288 L 231.826 177.288 L 231.826 177.288 Q 232.164 175.843 231.819 174.036 L 231.819 174.036 L 231.819 174.036 Q 231.129 170.422 229.806 167.702 L 229.806 167.702 L 229.806 167.702 Q 227.917 163.818 226.32 164.594 L 226.32 164.594 L 226.32 164.594 Q 225.068 165.203 224.126 166.889 L 224.126 166.889 L 224.126 166.889 Q 225.423 169.994 227.5 178.325 L 227.5 178.325 L 227.5 178.325 Q 229.576 186.656 231.823 191.275 L 231.823 191.275 L 231.823 191.275 Q 229.954 193.358 226.39 195.358 Z  M 239.724 167.683 L 239.724 167.683 L 239.724 167.683 Q 237.1 162.287 238.837 157.572 L 238.837 157.572 L 238.837 157.572 Q 240.574 152.858 244.718 150.842 L 244.718 150.842 L 244.718 150.842 Q 247.265 149.604 249.514 150.058 L 249.514 150.058 L 249.514 150.058 Q 251.763 150.512 252.781 152.606 L 252.781 152.606 L 252.781 152.606 Q 253.799 154.699 253.435 156.638 L 253.435 156.638 L 253.435 156.638 Q 253.07 158.577 251.937 160.088 L 251.937 160.088 L 251.937 160.088 Q 249.607 163.09 247.249 164.717 L 247.249 164.717 L 246.276 165.35 L 246.276 165.35 Q 248.552 169.261 251.573 167.791 L 251.573 167.791 L 251.573 167.791 Q 252.609 167.287 253.523 166.203 L 253.523 166.203 L 253.523 166.203 Q 254.436 165.118 254.832 164.285 L 254.832 164.285 L 255.227 163.452 L 256.935 164.33 L 256.935 164.33 Q 256.821 164.972 256.163 166.253 L 256.163 166.253 L 256.163 166.253 Q 255.505 167.534 254.85 168.493 L 254.85 168.493 L 254.85 168.493 Q 253.018 171.092 250.04 172.54 L 250.04 172.54 L 250.04 172.54 Q 247.061 173.989 244.306 172.713 L 244.306 172.713 L 244.306 172.713 Q 241.551 171.438 239.724 167.683 Z  M 245.204 163.256 L 245.204 163.256 Q 247.217 161.797 247.798 159.699 L 247.798 159.699 L 247.798 159.699 Q 248.379 157.602 247.246 155.271 L 247.246 155.271 L 247.246 155.271 Q 246.112 152.94 244.731 153.612 L 244.731 153.612 L 244.731 153.612 Q 243.09 154.41 243.559 157.624 L 243.559 157.624 L 243.559 157.624 Q 244.029 160.839 245.204 163.256 L 245.204 163.256 L 245.204 163.256 Z  M 262.43 144.897 L 262.43 144.897 L 262.43 144.897 Q 260.703 145.737 261.063 149.111 L 261.063 149.111 L 261.063 149.111 Q 261.423 152.486 263.019 155.766 L 263.019 155.766 L 263.019 155.766 Q 265.538 160.946 268.732 159.393 L 268.732 159.393 L 268.732 159.393 Q 269.768 158.889 270.692 157.826 L 270.692 157.826 L 270.692 157.826 Q 271.616 156.762 272.076 155.952 L 272.076 155.952 L 272.472 155.119 L 274.115 155.974 L 274.115 155.974 Q 274.001 156.617 273.343 157.898 L 273.343 157.898 L 273.343 157.898 Q 272.685 159.179 272.03 160.137 L 272.03 160.137 L 272.03 160.137 Q 271.375 161.096 270.161 162.221 L 270.161 162.221 L 270.161 162.221 Q 268.946 163.345 267.565 164.017 L 267.565 164.017 L 267.565 164.017 Q 264.198 165.654 261.444 164.272 L 261.444 164.272 L 261.444 164.272 Q 258.69 162.889 256.885 159.177 L 256.885 159.177 L 256.885 159.177 Q 254.386 154.04 255.66 149.471 L 255.66 149.471 L 255.66 149.471 Q 256.934 144.901 261.38 142.739 L 261.38 142.739 L 261.38 142.739 Q 264.272 141.332 266.617 141.82 L 266.617 141.82 L 266.617 141.82 Q 268.963 142.307 269.897 144.228 L 269.897 144.228 L 269.897 144.228 Q 270.831 146.149 270.294 148.118 L 270.294 148.118 L 270.294 148.118 Q 269.215 148.643 267.56 148.861 L 267.56 148.861 L 267.56 148.861 Q 265.904 149.079 264.835 148.745 L 264.835 148.745 L 263.635 144.631 L 263.635 144.631 Q 263.12 144.561 262.43 144.897 Z  M 284.184 155.934 L 284.184 155.934 L 284.184 155.934 Q 281.205 157.383 278.504 156.108 L 278.504 156.108 L 278.504 156.108 Q 275.802 154.833 273.976 151.078 L 273.976 151.078 L 273.976 151.078 Q 271.645 146.287 272.534 141.584 L 272.534 141.584 L 272.534 141.584 Q 273.423 136.882 277.956 134.678 L 277.956 134.678 L 279.552 134.008 L 279.552 134.008 Q 280.096 133.263 281.003 132.822 L 281.003 132.822 L 281.003 132.822 Q 284.413 131.163 287.541 137.595 L 287.541 137.595 L 287.541 137.595 Q 289.269 136.648 290.893 135.378 L 290.893 135.378 L 291.5 134.869 L 292.577 136.427 L 292.577 136.427 Q 291.447 137.724 289.26 139.374 L 289.26 139.374 L 288.481 139.967 L 288.481 139.967 Q 289.865 144.898 288.989 149.461 L 288.989 149.461 L 288.989 149.461 Q 288.112 154.024 284.184 155.934 Z  M 284.709 151.089 L 284.709 151.089 L 284.709 151.089 Q 286.522 150.207 286.835 147.173 L 286.835 147.173 L 286.835 147.173 Q 287.147 144.138 286.449 141.276 L 286.449 141.276 L 286.449 141.276 Q 281.83 143.522 280.151 140.069 L 280.151 140.069 L 280.151 140.069 Q 279.479 138.687 279.452 137.206 L 279.452 137.206 L 279.458 136.669 L 279.458 136.669 Q 279.243 136.667 278.984 136.793 L 278.984 136.793 L 278.984 136.793 Q 278.725 136.919 278.638 137.068 L 278.638 137.068 L 278.638 137.068 Q 277.895 138.283 278.184 141.292 L 278.184 141.292 L 278.184 141.292 Q 278.473 144.301 280.068 147.581 L 280.068 147.581 L 280.068 147.581 Q 282.335 152.243 284.709 151.089 Z  M 296.125 149.647 L 296.125 149.647 L 295.304 150.046 L 295.304 150.046 Q 294.318 148.017 292.756 141.678 L 292.756 141.678 L 292.756 141.678 Q 291.194 135.338 290.816 134.561 L 290.816 134.561 L 290.816 134.561 Q 290.123 133.137 288.138 132.127 L 288.138 132.127 L 287.497 131.798 L 287.268 131.216 L 287.268 131.216 Q 289.284 129.435 294.42 126.937 L 294.42 126.937 L 294.42 126.937 Q 295.338 127.398 296.326 129.319 L 296.326 129.319 L 296.326 129.319 Q 298.675 124.601 301.265 123.341 L 301.265 123.341 L 301.265 123.341 Q 302.819 122.585 304.272 123.213 L 304.272 123.213 L 304.272 123.213 Q 305.725 123.841 306.512 125.46 L 306.512 125.46 L 306.512 125.46 Q 307.299 127.078 308.238 131.532 L 308.238 131.532 L 308.238 131.532 Q 309.177 135.987 309.838 137.346 L 309.838 137.346 L 309.838 137.346 Q 310.499 138.706 310.844 138.538 L 310.844 138.538 L 310.844 138.538 Q 311.103 138.412 312.259 136.836 L 312.259 136.836 L 312.651 136.325 L 314.162 137.458 L 314.162 137.458 Q 313.942 137.992 313.546 138.825 L 313.546 138.825 L 313.546 138.825 Q 313.151 139.658 311.833 141.393 L 311.833 141.393 L 311.833 141.393 Q 310.515 143.129 309.134 143.8 L 309.134 143.8 L 309.134 143.8 Q 305.983 145.333 304.24 141.75 L 304.24 141.75 L 304.24 141.75 Q 303.505 140.239 302.503 135.709 L 302.503 135.709 L 302.503 135.709 Q 301.501 131.179 300.934 130.014 L 300.934 130.014 L 300.934 130.014 Q 300.367 128.848 299.634 129.205 L 299.634 129.205 L 299.634 129.205 Q 298.382 129.814 297.094 131.775 L 297.094 131.775 L 297.094 131.775 Q 297.321 132.572 298.12 136.08 L 298.12 136.08 L 298.12 136.08 Q 299.905 143.592 301.269 146.397 L 301.269 146.397 L 301.269 146.397 Q 300.053 147.736 296.125 149.647 Z  M 311.733 118.25 L 311.733 118.25 L 311.733 118.25 Q 313.611 117.337 314.916 117.663 L 314.916 117.663 L 314.916 117.663 Q 316.222 117.988 317.398 120.406 L 317.398 120.406 L 317.398 120.406 Q 318.028 121.701 319.193 126.071 L 319.193 126.071 L 319.193 126.071 Q 320.358 130.442 320.778 131.305 L 320.778 131.305 L 320.778 131.305 Q 321.617 133.032 322.308 132.696 L 322.308 132.696 L 322.308 132.696 Q 323.948 131.898 324.726 128.504 L 324.726 128.504 L 324.726 128.504 Q 325.504 125.11 324.793 123.428 L 324.793 123.428 L 320.262 121.575 L 320.262 121.575 Q 319.532 119.635 319.531 117.767 L 319.531 117.767 L 319.531 117.767 Q 319.53 115.899 319.883 114.98 L 319.883 114.98 L 320.215 114.125 L 320.215 114.125 Q 322.071 113.222 323.504 113.753 L 323.504 113.753 L 323.504 113.753 Q 324.936 114.284 325.587 115.622 L 325.587 115.622 L 325.587 115.622 Q 327.245 119.032 327.409 123.65 L 327.409 123.65 L 327.409 123.65 Q 327.573 128.267 326.059 132.286 L 326.059 132.286 L 326.059 132.286 Q 324.544 136.306 321.652 137.712 L 321.652 137.712 L 321.652 137.712 Q 319.839 138.594 318.322 137.944 L 318.322 137.944 L 318.322 137.944 Q 316.805 137.294 315.912 135.459 L 315.912 135.459 L 315.912 135.459 Q 315.02 133.625 313.789 130.381 L 313.789 130.381 L 313.789 130.381 Q 312.558 127.136 311.068 124.071 L 311.068 124.071 L 311.068 124.071 Q 310.732 123.381 309.774 122.673 L 309.774 122.673 L 309.774 122.673 Q 308.815 121.964 308.024 121.655 L 308.024 121.655 L 307.902 121.074 L 307.902 121.074 Q 309.855 119.163 311.733 118.25 Z " fill="url(#_lgradient_1)"/></g><defs><filter id="6k3GPPLjCWHsdX4qDlk1BClayloXtOMV" x="-200%" y="-200%" width="400%" height="400%" filterUnits="objectBoundingBox" color-interpolation-filters="sRGB"><feGaussianBlur xmlns="http://www.w3.org/2000/svg" in="SourceGraphic" stdDeviation="3.8642481565551257"/><feOffset xmlns="http://www.w3.org/2000/svg" dx="0" dy="0" result="pf_100_offsetBlur"/><feFlood xmlns="http://www.w3.org/2000/svg" flood-color="#000000" flood-opacity="0.65"/><feComposite xmlns="http://www.w3.org/2000/svg" in2="pf_100_offsetBlur" operator="in" result="pf_100_dropShadow"/><feBlend xmlns="http://www.w3.org/2000/svg" in="SourceGraphic" in2="pf_100_dropShadow" mode="normal" result="_out_1YXa0cjCguz3yJ6mGNSuKThcZKWfY6L5"/><feOffset xmlns="http://www.w3.org/2000/svg" in="_out_1YXa0cjCguz3yJ6mGNSuKThcZKWfY6L5" dx="0" dy="0"/><feGaussianBlur xmlns="http://www.w3.org/2000/svg" stdDeviation="0.8587218125678057" result="pf_101_offsetBlur"/><feComposite xmlns="http://www.w3.org/2000/svg" in="_out_1YXa0cjCguz3yJ6mGNSuKThcZKWfY6L5" in2="pf_101_offsetBlur" result="pf_101_inverse" operator="out"/><feFlood xmlns="http://www.w3.org/2000/svg" flood-color="#FFFFFF" flood-opacity="0.5" result="pf_101_color"/><feComposite xmlns="http://www.w3.org/2000/svg" in="pf_101_color" in2="pf_101_inverse" operator="in" result="pf_101_shadow"/><feComposite xmlns="http://www.w3.org/2000/svg" in="pf_101_shadow" in2="_out_1YXa0cjCguz3yJ6mGNSuKThcZKWfY6L5" operator="over" result="_out_N4eUVwvqMPu4xU8tpZ76LjBu0IPRNJ2W"/><feMerge><feMergeNode in="_out_N4eUVwvqMPu4xU8tpZ76LjBu0IPRNJ2W"/></feMerge></filter></defs><g filter="url(#6k3GPPLjCWHsdX4qDlk1BClayloXtOMV)"><linearGradient id="_lgradient_2" x1="0" y1="0.5" x2="1" y2="0.5" gradientTransform="matrix(42.09,0,0,24.429,251.527,93.698)" gradientUnits="userSpaceOnUse"><stop offset="1.2499999999999956%" stop-opacity="1" style="stop-color:rgb(244,117,117)"/><stop offset="98.75%" stop-opacity="1" style="stop-color:rgb(255,186,186)"/></linearGradient><path d=" M 288.779 103.641 C 288.575 103.112 288.358 102.588 288.127 102.068 C 287.607 100.888 286.977 99.758 286.237 98.688 C 285.597 97.758 284.837 96.908 283.967 96.178 C 283.167 95.508 282.267 94.978 281.297 94.598 C 279.827 94.018 278.257 93.708 276.677 93.698 C 274.947 93.728 273.247 94.088 271.647 94.748 C 270.897 95.058 270.147 95.398 269.427 95.768 C 268.687 96.148 267.957 96.528 267.237 96.928 C 266.337 97.418 265.427 97.898 264.517 98.358 C 263.537 98.848 262.537 99.298 261.517 99.708 C 259.107 100.668 256.577 101.318 254.007 101.648 L 251.527 101.968 L 252.157 106.928 L 254.637 106.608 C 257.637 106.218 260.567 105.468 263.377 104.348 C 264.527 103.888 265.657 103.378 266.767 102.828 C 267.727 102.338 268.687 101.838 269.637 101.318 C 270.317 100.938 271.007 100.578 271.707 100.218 C 272.307 99.908 272.927 99.628 273.557 99.378 C 274.547 98.958 275.617 98.728 276.697 98.698 C 277.647 98.718 278.587 98.898 279.467 99.258 C 279.937 99.428 280.367 99.688 280.747 100.008 C 281.277 100.448 281.737 100.958 282.127 101.528 C 282.677 102.328 283.157 103.188 283.557 104.088 C 283.72 104.464 283.877 104.843 284.027 105.225 L 278.029 107.224 L 284.176 112.675 L 290.323 118.126 L 291.97 110.077 L 293.617 102.028 L 288.779 103.641 Z " fill-rule="evenodd" fill="url(#_lgradient_2)"/></g><defs><filter id="IIJZy83Zi4XsrCPt6EWrYFaUw2fXm792" x="-200%" y="-200%" width="400%" height="400%" filterUnits="objectBoundingBox" color-interpolation-filters="sRGB"><feGaussianBlur xmlns="http://www.w3.org/2000/svg" in="SourceGraphic" stdDeviation="3.8642481565551257"/><feOffset xmlns="http://www.w3.org/2000/svg" dx="0" dy="0" result="pf_100_offsetBlur"/><feFlood xmlns="http://www.w3.org/2000/svg" flood-color="#000000" flood-opacity="0.65"/><feComposite xmlns="http://www.w3.org/2000/svg" in2="pf_100_offsetBlur" operator="in" result="pf_100_dropShadow"/><feBlend xmlns="http://www.w3.org/2000/svg" in="SourceGraphic" in2="pf_100_dropShadow" mode="normal" result="_out_F07H6l0LZLSQkZIuTz6oxGFcKxAv36CZ"/><feOffset xmlns="http://www.w3.org/2000/svg" in="_out_F07H6l0LZLSQkZIuTz6oxGFcKxAv36CZ" dx="0" dy="0"/><feGaussianBlur xmlns="http://www.w3.org/2000/svg" stdDeviation="0.8587218125678057" result="pf_101_offsetBlur"/><feComposite xmlns="http://www.w3.org/2000/svg" in="_out_F07H6l0LZLSQkZIuTz6oxGFcKxAv36CZ" in2="pf_101_offsetBlur" result="pf_101_inverse" operator="out"/><feFlood xmlns="http://www.w3.org/2000/svg" flood-color="#FFFFFF" flood-opacity="0.5" result="pf_101_color"/><feComposite xmlns="http://www.w3.org/2000/svg" in="pf_101_color" in2="pf_101_inverse" operator="in" result="pf_101_shadow"/><feComposite xmlns="http://www.w3.org/2000/svg" in="pf_101_shadow" in2="_out_F07H6l0LZLSQkZIuTz6oxGFcKxAv36CZ" operator="over" result="_out_3XpUsizom1c6oxX5nlylKVpWqGhR96fW"/><feMerge><feMergeNode in="_out_3XpUsizom1c6oxX5nlylKVpWqGhR96fW"/></feMerge></filter></defs><g filter="url(#IIJZy83Zi4XsrCPt6EWrYFaUw2fXm792)"><linearGradient id="_lgradient_3" x1="0" y1="0.5" x2="1" y2="0.5" gradientTransform="matrix(-42.09,0,0,-24.429,176.617,208.698)" gradientUnits="userSpaceOnUse"><stop offset="1.2499999999999956%" stop-opacity="1" style="stop-color:rgb(244,117,117)"/><stop offset="98.75%" stop-opacity="1" style="stop-color:rgb(255,186,186)"/></linearGradient><path d=" M 139.365 198.755 C 139.569 199.283 139.786 199.807 140.017 200.328 C 140.537 201.508 141.167 202.638 141.907 203.708 C 142.547 204.638 143.307 205.488 144.177 206.218 C 144.977 206.888 145.877 207.418 146.847 207.798 C 148.317 208.378 149.887 208.688 151.467 208.698 C 153.197 208.668 154.897 208.308 156.497 207.648 C 157.247 207.338 157.997 206.998 158.717 206.628 C 159.457 206.248 160.187 205.868 160.907 205.468 C 161.807 204.978 162.717 204.498 163.627 204.038 C 164.607 203.548 165.607 203.098 166.627 202.688 C 169.037 201.728 171.567 201.078 174.137 200.748 L 176.617 200.428 L 175.987 195.468 L 173.507 195.788 C 170.507 196.178 167.577 196.928 164.767 198.048 C 163.617 198.508 162.487 199.018 161.377 199.568 C 160.417 200.058 159.457 200.558 158.507 201.078 C 157.827 201.458 157.137 201.818 156.437 202.178 C 155.837 202.488 155.217 202.768 154.587 203.018 C 153.597 203.438 152.527 203.668 151.447 203.698 C 150.497 203.678 149.557 203.498 148.677 203.138 C 148.207 202.968 147.777 202.708 147.397 202.388 C 146.867 201.948 146.407 201.438 146.017 200.868 C 145.467 200.068 144.987 199.208 144.587 198.308 C 144.424 197.931 144.267 197.552 144.117 197.171 L 150.116 195.171 L 143.968 189.72 L 137.821 184.269 L 136.174 192.318 L 134.527 200.367 L 139.365 198.755 Z " fill-rule="evenodd" fill="url(#_lgradient_3)"/></g></svg>