<?xml version="1.0" encoding="UTF-8" standalone="no"?><!-- Generator: Gravit.io --><svg xmlns="http://www.w3.org/2000/svg" xmlns:xlink="http://www.w3.org/1999/xlink" style="isolation:isolate" viewBox="0 0 1280 800" width="1280pt" height="800pt"><linearGradient id="_lgradient_4" x1="0" y1="0.5" x2="1" y2="0.5" gradientTransform="matrix(711.032,0,0,326.583,291.445,355.238)" gradientUnits="userSpaceOnUse"><stop offset="0%" stop-opacity="1" style="stop-color:rgb(91,142,174)"/><stop offset="28.749999999999996%" stop-opacity="1" style="stop-color:rgb(54,97,124)"/><stop offset="100%" stop-opacity="1" style="stop-color:rgb(95,146,179)"/></linearGradient><path d=" M 311.176 477.596 L 311.176 477.596 L 311.176 477.596 Q 310.292 479.952 309.041 482.897 L 309.041 482.897 L 309.041 482.897 Q 307.789 485.842 306.17 489.081 L 306.17 489.081 L 306.17 489.081 Q 304.844 491.584 303.446 492.983 L 303.446 492.983 L 303.446 492.983 Q 302.047 494.382 299.838 494.382 L 299.838 494.382 L 299.838 494.382 Q 297.335 494.382 295.863 492.836 L 295.863 492.836 L 295.863 492.836 Q 294.39 491.29 294.39 489.228 L 294.39 489.228 L 294.39 489.228 Q 294.39 488.492 294.537 487.977 L 294.537 487.977 L 294.537 487.977 Q 294.685 487.461 295.274 486.283 L 295.274 486.283 L 295.274 486.283 Q 299.102 478.921 300.942 473.4 L 300.942 473.4 L 300.942 473.4 Q 302.783 467.878 303.961 461.841 L 303.961 461.841 L 303.961 461.841 Q 302.93 458.455 302.489 456.099 L 302.489 456.099 L 302.489 456.099 Q 302.047 453.743 302.047 451.24 L 302.047 451.24 L 302.047 451.24 Q 302.047 446.381 304.108 443.362 L 304.108 443.362 L 304.108 443.362 Q 306.17 440.344 309.851 440.344 L 309.851 440.344 L 309.851 440.344 Q 313.237 440.344 315.225 443.289 L 315.225 443.289 L 315.225 443.289 Q 317.213 446.234 317.213 450.504 L 317.213 450.504 L 317.213 450.504 Q 317.213 452.859 316.771 455.215 L 316.771 455.215 L 316.771 455.215 Q 316.329 457.571 315.593 461.105 L 315.593 461.105 L 315.593 461.105 Q 318.98 469.498 322.366 475.976 L 322.366 475.976 L 322.366 475.976 Q 325.753 482.455 328.403 487.829 L 328.403 487.829 L 328.403 487.829 Q 331.053 493.204 332.747 497.915 L 332.747 497.915 L 332.747 497.915 Q 334.44 502.627 334.44 507.339 L 334.44 507.339 L 334.44 507.339 Q 334.44 513.523 331.937 519.118 L 331.937 519.118 L 331.937 519.118 Q 329.434 524.714 323.691 528.542 L 323.691 528.542 L 323.691 528.542 Q 324.428 528.689 325.164 528.689 L 325.164 528.689 L 325.164 528.689 Q 325.9 528.689 326.636 528.689 L 326.636 528.689 L 326.636 528.689 Q 335.029 528.689 342.097 524.861 L 342.097 524.861 L 342.097 524.861 Q 349.164 521.032 354.833 514.922 L 354.833 514.922 L 354.833 514.922 Q 360.502 508.811 364.919 501.376 L 364.919 501.376 L 364.919 501.376 Q 369.336 493.94 372.576 486.578 L 372.576 486.578 L 372.576 486.578 Q 374.048 483.191 376.699 483.191 L 376.699 483.191 L 376.699 483.191 Q 379.202 483.191 380.6 484.958 L 380.6 484.958 L 380.6 484.958 Q 381.999 486.725 381.999 488.786 L 381.999 488.786 L 381.999 488.786 Q 381.999 489.964 381.557 490.995 L 381.557 490.995 L 381.557 490.995 Q 379.938 494.971 377.361 500.05 L 377.361 500.05 L 377.361 500.05 Q 374.784 505.13 371.177 510.505 L 371.177 510.505 L 371.177 510.505 Q 367.569 515.879 362.858 521.032 L 362.858 521.032 L 362.858 521.032 Q 358.146 526.186 352.33 530.235 L 352.33 530.235 L 352.33 530.235 Q 346.514 534.284 339.594 536.714 L 339.594 536.714 L 339.594 536.714 Q 332.673 539.143 324.428 539.143 L 324.428 539.143 L 324.428 539.143 Q 314.562 539.143 306.096 535.683 L 306.096 535.683 L 306.096 535.683 Q 297.63 532.223 292.329 524.272 L 292.329 524.272 L 292.329 524.272 Q 291.445 522.947 291.445 521.474 L 291.445 521.474 L 291.445 521.474 Q 291.445 519.266 293.139 517.572 L 293.139 517.572 L 293.139 517.572 Q 294.832 515.879 297.041 515.879 L 297.041 515.879 L 297.041 515.879 Q 299.396 515.879 301.016 517.499 L 301.016 517.499 L 301.016 517.499 Q 301.163 517.793 302.047 518.456 L 302.047 518.456 L 302.047 518.456 Q 302.93 519.118 304.182 519.928 L 304.182 519.928 L 304.182 519.928 Q 305.433 520.738 307.127 521.327 L 307.127 521.327 L 307.127 521.327 Q 308.82 521.916 310.587 521.916 L 310.587 521.916 L 310.587 521.916 Q 314.121 521.916 316.55 520.443 L 316.55 520.443 L 316.55 520.443 Q 318.98 518.971 320.452 516.836 L 320.452 516.836 L 320.452 516.836 Q 321.924 514.701 322.587 512.272 L 322.587 512.272 L 322.587 512.272 Q 323.25 509.842 323.25 508.075 L 323.25 508.075 L 323.25 508.075 Q 323.25 504.394 322.072 500.713 L 322.072 500.713 L 322.072 500.713 Q 320.894 497.032 319.053 493.351 L 319.053 493.351 L 319.053 493.351 Q 317.213 489.67 315.078 485.768 L 315.078 485.768 L 315.078 485.768 Q 312.943 481.866 311.176 477.596 Z  M 420.282 515.585 L 420.282 515.585 L 420.282 515.585 Q 415.129 523.977 408.282 528.836 L 408.282 528.836 L 408.282 528.836 Q 401.435 533.695 394.515 533.695 L 394.515 533.695 L 394.515 533.695 Q 388.92 533.695 384.502 531.634 L 384.502 531.634 L 384.502 531.634 Q 380.085 529.573 376.846 525.818 L 376.846 525.818 L 376.846 525.818 Q 373.606 522.063 371.913 516.762 L 371.913 516.762 L 371.913 516.762 Q 370.22 511.462 370.22 504.836 L 370.22 504.836 L 370.22 504.836 Q 370.22 494.529 372.208 486.578 L 372.208 486.578 L 372.208 486.578 Q 374.195 478.627 376.551 473.252 L 376.551 473.252 L 376.551 473.252 Q 378.907 467.878 380.969 465.08 L 380.969 465.08 L 380.969 465.08 Q 383.03 462.283 383.03 462.283 L 383.03 462.283 L 383.03 462.283 Q 383.766 461.399 384.87 460.958 L 384.87 460.958 L 384.87 460.958 Q 385.975 460.516 387.153 460.516 L 387.153 460.516 L 387.153 460.516 Q 389.509 460.516 391.055 462.209 L 391.055 462.209 L 391.055 462.209 Q 392.601 463.903 392.601 466.111 L 392.601 466.111 L 392.601 466.111 Q 392.601 466.995 392.233 467.878 L 392.233 467.878 L 392.233 467.878 Q 391.864 468.762 391.423 469.645 L 391.423 469.645 L 391.423 469.645 Q 390.687 470.97 389.067 473.694 L 389.067 473.694 L 389.067 473.694 Q 387.447 476.418 385.68 480.835 L 385.68 480.835 L 385.68 480.835 Q 383.913 485.253 382.588 491.216 L 382.588 491.216 L 382.588 491.216 Q 381.263 497.179 381.263 504.836 L 381.263 504.836 L 381.263 504.836 Q 381.263 513.523 384.723 518.014 L 384.723 518.014 L 384.723 518.014 Q 388.183 522.505 394.515 522.505 L 394.515 522.505 L 394.515 522.505 Q 397.165 522.505 400.625 520.812 L 400.625 520.812 L 400.625 520.812 Q 404.086 519.118 407.398 515.585 L 407.398 515.585 L 407.398 515.585 Q 410.711 512.051 413.215 506.603 L 413.215 506.603 L 413.215 506.603 Q 415.718 501.155 416.454 493.793 L 416.454 493.793 L 418.662 468.467 L 418.662 468.467 Q 418.957 466.258 420.577 464.786 L 420.577 464.786 L 420.577 464.786 Q 422.196 463.314 424.405 463.314 L 424.405 463.314 L 424.405 463.314 Q 426.908 463.314 428.38 465.154 L 428.38 465.154 L 428.38 465.154 Q 429.853 466.995 429.853 469.351 L 429.853 469.351 L 427.939 493.793 L 427.939 493.793 Q 427.644 496.885 428.16 501.891 L 428.16 501.891 L 428.16 501.891 Q 428.675 506.897 430.295 511.756 L 430.295 511.756 L 430.295 511.756 Q 431.914 516.615 435.154 520.075 L 435.154 520.075 L 435.154 520.075 Q 438.393 523.536 443.694 523.536 L 443.694 523.536 L 443.694 523.536 Q 447.522 523.536 451.203 521.548 L 451.203 521.548 L 451.203 521.548 Q 454.884 519.56 458.271 516.321 L 458.271 516.321 L 458.271 516.321 Q 461.657 513.081 464.528 509.032 L 464.528 509.032 L 464.528 509.032 Q 467.4 504.983 469.829 500.86 L 469.829 500.86 L 469.829 500.86 Q 472.259 496.738 474.025 492.983 L 474.025 492.983 L 474.025 492.983 Q 475.792 489.228 476.97 486.578 L 476.97 486.578 L 476.97 486.578 Q 477.707 484.958 479.032 484.075 L 479.032 484.075 L 479.032 484.075 Q 480.357 483.191 481.977 483.191 L 481.977 483.191 L 481.977 483.191 Q 484.627 483.191 486.099 484.958 L 486.099 484.958 L 486.099 484.958 Q 487.572 486.725 487.572 488.786 L 487.572 488.786 L 487.572 488.786 Q 487.572 489.964 487.13 490.995 L 487.13 490.995 L 487.13 490.995 Q 486.541 492.173 484.848 495.928 L 484.848 495.928 L 484.848 495.928 Q 483.155 499.682 480.431 504.468 L 480.431 504.468 L 480.431 504.468 Q 477.707 509.253 473.878 514.554 L 473.878 514.554 L 473.878 514.554 Q 470.05 519.855 465.338 524.345 L 465.338 524.345 L 465.338 524.345 Q 460.626 528.836 455.105 531.708 L 455.105 531.708 L 455.105 531.708 Q 449.583 534.579 443.252 534.579 L 443.252 534.579 L 443.252 534.579 Q 434.565 534.579 428.822 529.646 L 428.822 529.646 L 428.822 529.646 Q 423.08 524.714 420.282 515.585 Z  M 492.431 471.559 L 492.431 471.559 L 492.431 471.559 Q 491.842 475.535 490.958 478.995 L 490.958 478.995 L 490.958 478.995 Q 490.075 482.455 489.265 485.032 L 489.265 485.032 L 489.265 485.032 Q 488.455 487.609 487.866 489.228 L 487.866 489.228 L 487.866 489.228 Q 487.277 490.848 487.13 490.995 L 487.13 490.995 L 487.13 490.995 Q 485.658 494.382 481.977 494.382 L 481.977 494.382 L 481.977 494.382 Q 479.915 494.382 478.148 492.836 L 478.148 492.836 L 478.148 492.836 Q 476.381 491.29 476.381 488.934 L 476.381 488.934 L 476.381 488.934 Q 476.381 488.05 476.676 487.609 L 476.676 487.609 L 476.676 487.609 Q 476.97 487.167 477.559 485.842 L 477.559 485.842 L 477.559 485.842 Q 478.148 484.516 479.032 481.424 L 479.032 481.424 L 479.032 481.424 Q 479.915 478.332 481.24 471.854 L 481.24 471.854 L 481.24 471.854 Q 478.737 471.854 476.087 471.706 L 476.087 471.706 L 476.087 471.706 Q 473.437 471.559 471.154 470.676 L 471.154 470.676 L 471.154 470.676 Q 468.872 469.792 467.4 467.878 L 467.4 467.878 L 467.4 467.878 Q 465.927 465.964 465.927 462.577 L 465.927 462.577 L 465.927 462.577 Q 465.927 460.074 467.326 455.804 L 467.326 455.804 L 467.326 455.804 Q 468.725 451.534 471.081 447.411 L 471.081 447.411 L 471.081 447.411 Q 473.437 443.289 476.381 440.27 L 476.381 440.27 L 476.381 440.27 Q 479.326 437.252 482.271 437.252 L 482.271 437.252 L 482.271 437.252 Q 485.658 437.252 487.793 439.755 L 487.793 439.755 L 487.793 439.755 Q 489.928 442.258 491.106 445.865 L 491.106 445.865 L 491.106 445.865 Q 492.284 449.473 492.799 453.448 L 492.799 453.448 L 492.799 453.448 Q 493.314 457.424 493.314 460.369 L 493.314 460.369 L 493.314 460.369 Q 495.817 460.369 498.247 460.295 L 498.247 460.295 L 498.247 460.295 Q 500.676 460.222 502.885 460.222 L 502.885 460.222 L 502.885 460.222 Q 511.278 460.222 515.695 463.903 L 515.695 463.903 L 515.695 463.903 Q 520.112 467.584 520.112 475.976 L 520.112 475.976 L 520.112 475.976 Q 520.112 479.363 519.671 483.044 L 519.671 483.044 L 519.671 483.044 Q 519.229 486.725 518.64 490.627 L 518.64 490.627 L 518.64 490.627 Q 518.051 494.529 517.609 498.357 L 517.609 498.357 L 517.609 498.357 Q 517.167 502.185 517.167 505.867 L 517.167 505.867 L 517.167 505.867 Q 517.167 511.167 518.64 514.627 L 518.64 514.627 L 518.64 514.627 Q 520.112 518.088 522.321 520.149 L 522.321 520.149 L 522.321 520.149 Q 524.53 522.21 527.033 523.02 L 527.033 523.02 L 527.033 523.02 Q 529.536 523.83 531.597 523.83 L 531.597 523.83 L 531.597 523.83 Q 537.929 523.83 543.524 519.707 L 543.524 519.707 L 543.524 519.707 Q 549.119 515.585 553.831 509.768 L 553.831 509.768 L 553.831 509.768 Q 558.542 503.952 562.297 497.474 L 562.297 497.474 L 562.297 497.474 Q 566.052 490.995 568.555 486.136 L 568.555 486.136 L 568.555 486.136 Q 569.291 484.811 570.616 484.075 L 570.616 484.075 L 570.616 484.075 Q 571.941 483.339 573.414 483.339 L 573.414 483.339 L 573.414 483.339 Q 576.064 483.339 577.537 485.032 L 577.537 485.032 L 577.537 485.032 Q 579.009 486.725 579.009 488.786 L 579.009 488.786 L 579.009 488.786 Q 579.009 490.259 578.42 491.437 L 578.42 491.437 L 578.42 491.437 Q 575.034 497.474 570.543 505.057 L 570.543 505.057 L 570.543 505.057 Q 566.052 512.64 560.309 519.266 L 560.309 519.266 L 560.309 519.266 Q 554.567 525.891 547.426 530.456 L 547.426 530.456 L 547.426 530.456 Q 540.284 535.02 531.744 535.02 L 531.744 535.02 L 531.744 535.02 Q 526.444 535.02 521.732 533.033 L 521.732 533.033 L 521.732 533.033 Q 517.02 531.045 513.56 527.29 L 513.56 527.29 L 513.56 527.29 Q 510.1 523.536 508.038 518.014 L 508.038 518.014 L 508.038 518.014 Q 505.977 512.492 505.977 505.572 L 505.977 505.572 L 505.977 505.572 Q 505.977 498.21 507.449 490.921 L 507.449 490.921 L 507.449 490.921 Q 508.922 483.633 508.922 477.007 L 508.922 477.007 L 508.922 477.007 Q 508.922 474.209 507.67 472.811 L 507.67 472.811 L 507.67 472.811 Q 506.419 471.412 502.149 471.412 L 502.149 471.412 L 502.149 471.412 Q 500.087 471.412 497.658 471.412 L 497.658 471.412 L 497.658 471.412 Q 495.228 471.412 492.431 471.559 Z  M 476.087 460.663 L 482.566 460.663 L 482.566 460.663 Q 482.566 459.633 482.492 457.939 L 482.492 457.939 L 482.492 457.939 Q 482.418 456.246 482.197 454.626 L 482.197 454.626 L 482.197 454.626 Q 481.977 453.007 481.608 451.829 L 481.608 451.829 L 481.608 451.829 Q 481.24 450.651 480.799 450.651 L 480.799 450.651 L 480.799 450.651 Q 480.357 450.651 479.694 451.755 L 479.694 451.755 L 479.694 451.755 Q 479.032 452.859 478.296 454.405 L 478.296 454.405 L 478.296 454.405 Q 477.559 455.951 476.97 457.718 L 476.97 457.718 L 476.97 457.718 Q 476.381 459.485 476.087 460.663 L 476.087 460.663 L 476.087 460.663 Z  M 586.077 515.879 L 586.077 515.879 L 586.077 515.879 Q 589.169 520.149 594.028 522.726 L 594.028 522.726 L 594.028 522.726 Q 598.887 525.302 605.954 525.302 L 605.954 525.302 L 605.954 525.302 Q 613.169 525.302 619.059 521.842 L 619.059 521.842 L 619.059 521.842 Q 624.949 518.382 629.808 512.787 L 629.808 512.787 L 629.808 512.787 Q 634.667 507.192 638.495 500.271 L 638.495 500.271 L 638.495 500.271 Q 642.323 493.351 645.415 486.431 L 645.415 486.431 L 645.415 486.431 Q 646.151 484.811 647.477 484.001 L 647.477 484.001 L 647.477 484.001 Q 648.802 483.191 650.421 483.191 L 650.421 483.191 L 650.421 483.191 Q 652.925 483.191 654.471 484.958 L 654.471 484.958 L 654.471 484.958 Q 656.017 486.725 656.017 488.786 L 656.017 488.786 L 656.017 488.786 Q 656.017 489.523 655.869 490.038 L 655.869 490.038 L 655.869 490.038 Q 655.722 490.553 655.428 491.142 L 655.428 491.142 L 655.428 491.142 Q 645.268 513.523 633.268 524.861 L 633.268 524.861 L 633.268 524.861 Q 621.268 536.198 606.102 536.493 L 606.102 536.493 L 606.102 536.493 Q 596.384 536.493 589.316 532.738 L 589.316 532.738 L 589.316 532.738 Q 582.248 528.984 577.684 523.02 L 577.684 523.02 L 577.684 523.02 Q 573.119 517.057 570.911 509.548 L 570.911 509.548 L 570.911 509.548 Q 568.702 502.038 568.702 494.529 L 568.702 494.529 L 568.702 494.529 Q 568.702 487.02 570.543 480.688 L 570.543 480.688 L 570.543 480.688 Q 572.383 474.357 575.843 469.645 L 575.843 469.645 L 575.843 469.645 Q 579.304 464.933 584.089 462.283 L 584.089 462.283 L 584.089 462.283 Q 588.874 459.633 594.617 459.633 L 594.617 459.633 L 594.617 459.633 Q 598.003 459.633 601.316 461.031 L 601.316 461.031 L 601.316 461.031 Q 604.629 462.43 607.28 465.007 L 607.28 465.007 L 607.28 465.007 Q 609.93 467.584 611.55 471.265 L 611.55 471.265 L 611.55 471.265 Q 613.169 474.946 613.169 479.657 L 613.169 479.657 L 613.169 479.657 Q 613.169 485.694 611.108 490.995 L 611.108 490.995 L 611.108 490.995 Q 609.046 496.296 605.439 500.86 L 605.439 500.86 L 605.439 500.86 Q 601.832 505.425 596.825 509.253 L 596.825 509.253 L 596.825 509.253 Q 591.819 513.081 586.077 515.879 Z  M 581.659 506.308 L 581.659 506.308 L 581.659 506.308 Q 586.224 504.394 589.979 501.449 L 589.979 501.449 L 589.979 501.449 Q 593.733 498.504 596.384 494.971 L 596.384 494.971 L 596.384 494.971 Q 599.034 491.437 600.506 487.535 L 600.506 487.535 L 600.506 487.535 Q 601.979 483.633 601.979 479.657 L 601.979 479.657 L 601.979 479.657 Q 601.979 475.24 599.77 472.958 L 599.77 472.958 L 599.77 472.958 Q 597.562 470.676 594.617 470.676 L 594.617 470.676 L 594.617 470.676 Q 590.641 470.676 587.844 472.884 L 587.844 472.884 L 587.844 472.884 Q 585.046 475.093 583.279 478.627 L 583.279 478.627 L 583.279 478.627 Q 581.512 482.161 580.702 486.504 L 580.702 486.504 L 580.702 486.504 Q 579.893 490.848 579.893 495.118 L 579.893 495.118 L 579.893 495.118 Q 579.893 497.768 580.408 500.713 L 580.408 500.713 L 580.408 500.713 Q 580.923 503.658 581.659 506.308 Z  M 764.681 384.686 L 764.681 384.686 L 764.681 384.686 Q 764.681 387.042 763.062 388.441 L 763.062 388.441 L 763.062 388.441 Q 761.442 389.84 759.086 389.84 L 759.086 389.84 L 684.434 389.84 L 684.434 391.459 L 684.434 391.459 Q 684.434 400.441 683.109 410.601 L 683.109 410.601 L 683.109 410.601 Q 681.784 420.761 679.502 430.847 L 679.502 430.847 L 679.502 430.847 Q 677.22 440.933 674.348 450.504 L 674.348 450.504 L 674.348 450.504 Q 671.477 460.074 668.459 468.173 L 668.459 468.173 L 668.459 468.173 Q 665.44 476.271 662.495 482.234 L 662.495 482.234 L 662.495 482.234 Q 659.55 488.197 657.195 491.142 L 657.195 491.142 L 657.195 491.142 Q 659.109 497.915 661.759 503.732 L 661.759 503.732 L 661.759 503.732 Q 664.409 509.548 667.722 513.891 L 667.722 513.891 L 667.722 513.891 Q 671.035 518.235 674.864 520.738 L 674.864 520.738 L 674.864 520.738 Q 678.692 523.241 683.109 523.241 L 683.109 523.241 L 683.109 523.241 Q 688.263 523.241 693.343 518.897 L 693.343 518.897 L 693.343 518.897 Q 698.422 514.554 702.766 508.591 L 702.766 508.591 L 702.766 508.591 Q 707.11 502.627 710.423 496.517 L 710.423 496.517 L 710.423 496.517 Q 713.736 490.406 715.208 486.725 L 715.208 486.725 L 715.208 486.725 Q 716.68 483.191 720.361 483.191 L 720.361 483.191 L 720.361 483.191 Q 722.865 483.191 724.411 484.958 L 724.411 484.958 L 724.411 484.958 Q 725.957 486.725 725.957 488.786 L 725.957 488.786 L 725.957 488.786 Q 725.957 489.817 725.515 490.848 L 725.515 490.848 L 725.515 490.848 Q 725.073 491.879 723.38 495.56 L 723.38 495.56 L 723.38 495.56 Q 721.687 499.241 718.963 504.1 L 718.963 504.1 L 718.963 504.1 Q 716.239 508.959 712.631 514.333 L 712.631 514.333 L 712.631 514.333 Q 709.024 519.707 704.533 524.125 L 704.533 524.125 L 704.533 524.125 Q 700.042 528.542 694.889 531.487 L 694.889 531.487 L 694.889 531.487 Q 689.735 534.431 683.993 534.431 L 683.993 534.431 L 683.993 534.431 Q 673.833 534.431 665.735 527.806 L 665.735 527.806 L 665.735 527.806 Q 657.636 521.18 651.968 509.253 L 651.968 509.253 L 651.968 509.253 Q 646.299 497.326 643.354 480.983 L 643.354 480.983 L 643.354 480.983 Q 640.409 464.639 640.409 445.203 L 640.409 445.203 L 640.409 445.203 Q 640.409 440.344 640.556 433.792 L 640.556 433.792 L 640.556 433.792 Q 640.703 427.239 641.145 419.951 L 641.145 419.951 L 641.145 419.951 Q 641.587 412.662 642.47 404.932 L 642.47 404.932 L 642.47 404.932 Q 643.354 397.202 644.826 389.84 L 644.826 389.84 L 591.966 389.84 L 591.966 389.84 Q 589.611 389.84 587.991 388.441 L 587.991 388.441 L 587.991 388.441 Q 586.371 387.042 586.371 384.686 L 586.371 384.686 L 586.371 384.686 Q 586.371 382.33 587.991 380.932 L 587.991 380.932 L 587.991 380.932 Q 589.611 379.533 591.966 379.533 L 591.966 379.533 L 647.329 379.533 L 647.329 379.533 Q 648.802 374.232 650.79 369.815 L 650.79 369.815 L 650.79 369.815 Q 652.777 365.398 655.354 362.158 L 655.354 362.158 L 655.354 362.158 Q 657.931 358.919 661.097 357.078 L 661.097 357.078 L 661.097 357.078 Q 664.262 355.238 668.091 355.238 L 668.091 355.238 L 668.091 355.238 Q 671.772 355.238 674.496 357.078 L 674.496 357.078 L 674.496 357.078 Q 677.22 358.919 679.134 362.158 L 679.134 362.158 L 679.134 362.158 Q 681.048 365.398 682.152 369.815 L 682.152 369.815 L 682.152 369.815 Q 683.256 374.232 683.845 379.533 L 683.845 379.533 L 759.086 379.533 L 759.086 379.533 Q 761.442 379.533 763.062 380.932 L 763.062 380.932 L 763.062 380.932 Q 764.681 382.33 764.681 384.686 Z  M 653.808 476.418 L 653.808 476.418 L 653.808 476.418 Q 658.225 466.7 661.833 455.436 L 661.833 455.436 L 661.833 455.436 Q 665.44 444.172 668.017 432.687 L 668.017 432.687 L 668.017 432.687 Q 670.594 421.202 671.992 410.159 L 671.992 410.159 L 671.992 410.159 Q 673.391 399.116 673.391 389.84 L 673.391 389.84 L 656.017 389.84 L 656.017 389.84 Q 653.955 398.969 652.704 412.441 L 652.704 412.441 L 652.704 412.441 Q 651.452 425.914 651.452 445.203 L 651.452 445.203 L 651.452 445.203 Q 651.452 455.951 652.041 463.24 L 652.041 463.24 L 652.041 463.24 Q 652.63 470.528 653.808 476.418 Z  M 667.502 366.281 L 667.502 366.281 L 667.502 366.281 Q 666.176 366.281 663.673 369.152 L 663.673 369.152 L 663.673 369.152 Q 661.17 372.024 658.667 379.533 L 658.667 379.533 L 672.802 379.533 L 672.802 379.533 Q 672.066 373.349 670.667 369.815 L 670.667 369.815 L 670.667 369.815 Q 669.268 366.281 667.502 366.281 Z  M 656.164 487.167 L 656.164 487.02 L 656.164 487.167 L 656.164 487.167 Z  M 770.571 534.137 L 770.571 534.137 L 770.571 534.137 Q 775.724 528.984 781.025 523.609 L 781.025 523.609 L 781.025 523.609 Q 786.326 518.235 791.332 512.345 L 791.332 512.345 L 791.332 512.345 Q 796.338 506.456 800.682 500.05 L 800.682 500.05 L 800.682 500.05 Q 805.026 493.645 808.412 486.431 L 808.412 486.431 L 808.412 486.431 Q 809.148 484.811 810.474 484.001 L 810.474 484.001 L 810.474 484.001 Q 811.799 483.191 813.418 483.191 L 813.418 483.191 L 813.418 483.191 Q 815.922 483.191 817.468 484.958 L 817.468 484.958 L 817.468 484.958 Q 819.014 486.725 819.014 488.934 L 819.014 488.934 L 819.014 488.934 Q 819.014 490.112 818.572 491.142 L 818.572 491.142 L 818.572 491.142 Q 814.007 500.713 808.118 508.664 L 808.118 508.664 L 808.118 508.664 Q 802.228 516.615 795.749 523.756 L 795.749 523.756 L 795.749 523.756 Q 789.271 530.898 782.645 537.597 L 782.645 537.597 L 782.645 537.597 Q 776.019 544.297 769.982 551.07 L 769.982 551.07 L 769.982 551.07 Q 769.393 561.23 769.982 571.463 L 769.982 571.463 L 769.982 571.463 Q 770.571 581.696 770.571 593.181 L 770.571 593.181 L 770.571 593.181 Q 770.571 602.605 769.982 612.028 L 769.982 612.028 L 769.982 612.028 Q 769.393 621.452 768.068 630.065 L 768.068 630.065 L 768.068 630.065 Q 766.743 638.679 764.46 646.188 L 764.46 646.188 L 764.46 646.188 Q 762.178 653.698 758.644 659.219 L 758.644 659.219 L 758.644 659.219 Q 755.111 664.741 750.399 667.906 L 750.399 667.906 L 750.399 667.906 Q 745.687 671.072 739.356 671.072 L 739.356 671.072 L 739.356 671.072 Q 728.901 671.072 723.306 663.857 L 723.306 663.857 L 723.306 663.857 Q 717.711 656.642 717.711 643.685 L 717.711 643.685 L 717.711 643.685 Q 717.711 636.617 719.257 628.519 L 719.257 628.519 L 719.257 628.519 Q 720.803 620.421 723.601 611.807 L 723.601 611.807 L 723.601 611.807 Q 726.398 603.194 730.3 594.359 L 730.3 594.359 L 730.3 594.359 Q 734.202 585.524 738.767 577.132 L 738.767 577.132 L 738.767 577.132 Q 743.331 568.739 748.485 561.156 L 748.485 561.156 L 748.485 561.156 Q 753.638 553.573 758.939 547.389 L 758.939 547.389 L 758.939 547.389 Q 759.233 540.321 759.601 532.738 L 759.601 532.738 L 759.601 532.738 Q 759.97 525.155 760.411 518.677 L 760.411 518.677 L 760.411 518.677 Q 756.583 525.45 750.914 529.573 L 750.914 529.573 L 750.914 529.573 Q 745.245 533.695 738.472 533.695 L 738.472 533.695 L 738.472 533.695 Q 727.282 533.695 720.95 526.186 L 720.95 526.186 L 720.95 526.186 Q 714.619 518.677 714.619 505.572 L 714.619 505.572 L 714.619 505.572 Q 714.619 496.001 716.46 488.124 L 716.46 488.124 L 716.46 488.124 Q 718.3 480.246 720.435 474.578 L 720.435 474.578 L 720.435 474.578 Q 722.57 468.909 724.337 465.89 L 724.337 465.89 L 724.337 465.89 Q 726.104 462.872 726.104 463.019 L 726.104 463.019 L 726.104 463.019 Q 727.724 460.516 730.668 460.516 L 730.668 460.516 L 730.668 460.516 Q 733.171 460.516 734.718 462.209 L 734.718 462.209 L 734.718 462.209 Q 736.264 463.903 736.264 466.111 L 736.264 466.111 L 736.264 466.111 Q 736.264 467.731 735.38 469.056 L 735.38 469.056 L 735.38 469.056 Q 735.527 468.909 733.981 471.486 L 733.981 471.486 L 733.981 471.486 Q 732.435 474.062 730.595 478.921 L 730.595 478.921 L 730.595 478.921 Q 728.754 483.78 727.208 490.553 L 727.208 490.553 L 727.208 490.553 Q 725.662 497.326 725.662 505.425 L 725.662 505.425 L 725.662 505.425 Q 725.662 513.523 728.607 518.088 L 728.607 518.088 L 728.607 518.088 Q 731.552 522.652 738.178 522.652 L 738.178 522.652 L 738.178 522.652 Q 746.571 522.652 753.344 510.21 L 753.344 510.21 L 753.344 510.21 Q 760.117 497.768 764.829 474.062 L 764.829 474.062 L 764.829 474.062 Q 765.123 472.148 766.595 470.897 L 766.595 470.897 L 766.595 470.897 Q 768.068 469.645 770.129 469.645 L 770.129 469.645 L 770.129 469.645 Q 772.485 469.645 774.105 471.265 L 774.105 471.265 L 774.105 471.265 Q 775.724 472.884 775.724 475.24 L 775.724 475.24 L 775.724 475.24 Q 775.724 475.682 775.135 480.467 L 775.135 480.467 L 775.135 480.467 Q 774.547 485.253 773.737 493.204 L 773.737 493.204 L 773.737 493.204 Q 772.927 501.155 772.043 511.683 L 772.043 511.683 L 772.043 511.683 Q 771.16 522.21 770.571 534.137 Z  M 758.792 565.352 L 758.792 565.352 L 758.792 565.352 Q 752.166 574.923 746.644 585.524 L 746.644 585.524 L 746.644 585.524 Q 741.123 596.126 737.147 606.58 L 737.147 606.58 L 737.147 606.58 Q 733.171 617.034 730.963 626.605 L 730.963 626.605 L 730.963 626.605 Q 728.754 636.176 728.754 643.685 L 728.754 643.685 L 728.754 643.685 Q 728.754 651.342 731.257 655.685 L 731.257 655.685 L 731.257 655.685 Q 733.76 660.029 739.208 660.029 L 739.208 660.029 L 739.208 660.029 Q 744.067 660.029 747.822 655.244 L 747.822 655.244 L 747.822 655.244 Q 751.577 650.458 754.153 641.624 L 754.153 641.624 L 754.153 641.624 Q 756.73 632.789 758.055 620.2 L 758.055 620.2 L 758.055 620.2 Q 759.381 607.611 759.381 592.003 L 759.381 592.003 L 759.381 592.003 Q 759.381 585.672 759.16 579.193 L 759.16 579.193 L 759.16 579.193 Q 758.939 572.714 758.792 565.352 Z  M 883.947 490.995 L 883.947 490.995 L 883.947 490.995 Q 883.947 504.541 879.088 514.112 L 879.088 514.112 L 879.088 514.112 Q 874.229 523.683 867.162 528.689 L 867.162 528.689 L 867.751 528.689 L 867.751 528.689 Q 876.438 528.689 883.579 524.787 L 883.579 524.787 L 883.579 524.787 Q 890.72 520.885 896.463 514.775 L 896.463 514.775 L 896.463 514.775 Q 902.205 508.664 906.77 501.155 L 906.77 501.155 L 906.77 501.155 Q 911.334 493.645 914.868 486.578 L 914.868 486.578 L 914.868 486.578 Q 915.604 484.958 917.003 484.075 L 917.003 484.075 L 917.003 484.075 Q 918.402 483.191 920.022 483.191 L 920.022 483.191 L 920.022 483.191 Q 922.525 483.191 923.997 484.958 L 923.997 484.958 L 923.997 484.958 Q 925.47 486.725 925.47 488.786 L 925.47 488.786 L 925.47 488.786 Q 925.47 489.964 925.028 490.995 L 925.028 490.995 L 925.028 490.995 Q 921.2 499.535 915.899 508.149 L 915.899 508.149 L 915.899 508.149 Q 910.598 516.762 903.531 523.683 L 903.531 523.683 L 903.531 523.683 Q 896.463 530.603 887.628 534.947 L 887.628 534.947 L 887.628 534.947 Q 878.794 539.29 868.045 539.29 L 868.045 539.29 L 868.045 539.29 Q 860.241 539.29 852.879 536.861 L 852.879 536.861 L 852.879 536.861 Q 845.517 534.431 839.922 529.278 L 839.922 529.278 L 839.922 529.278 Q 837.861 527.658 836.388 525.818 L 836.388 525.818 L 836.388 525.818 Q 834.916 523.977 834.032 522.358 L 834.032 522.358 L 834.032 522.358 Q 833.738 522.063 833.738 521.769 L 833.738 521.769 L 833.738 521.769 Q 832.854 520.443 832.854 518.971 L 832.854 518.971 L 832.854 518.971 Q 832.854 517.057 834.18 515.437 L 834.18 515.437 L 834.18 515.437 Q 834.327 515.143 834.474 515.069 L 834.474 515.069 L 834.474 515.069 Q 834.621 514.996 834.769 514.848 L 834.769 514.848 L 834.769 514.848 Q 836.241 513.523 838.008 513.376 L 838.008 513.376 L 838.45 513.376 L 838.45 513.376 Q 839.186 513.376 839.48 513.523 L 839.48 513.523 L 839.48 513.523 Q 839.627 513.523 839.701 513.597 L 839.701 513.597 L 839.701 513.597 Q 839.775 513.67 839.922 513.67 L 839.922 513.67 L 839.922 513.67 Q 840.364 513.67 840.953 513.965 L 840.953 513.965 L 840.953 513.965 Q 841.1 514.112 841.247 514.112 L 841.247 514.112 L 841.247 514.112 Q 842.572 514.996 843.456 516.321 L 843.456 516.321 L 843.456 516.321 Q 844.486 518.088 845.812 519.56 L 845.812 519.56 L 845.812 519.56 Q 846.99 520.738 848.609 521.695 L 848.609 521.695 L 848.609 521.695 Q 850.229 522.652 852.29 522.652 L 852.29 522.652 L 852.29 522.652 Q 855.971 522.652 859.652 520.443 L 859.652 520.443 L 859.652 520.443 Q 863.333 518.235 866.278 514.112 L 866.278 514.112 L 866.278 514.112 Q 869.223 509.989 871.064 504.1 L 871.064 504.1 L 871.064 504.1 Q 872.904 498.21 872.904 490.995 L 872.904 490.995 L 872.904 490.995 Q 872.904 485.694 871.8 481.94 L 871.8 481.94 L 871.8 481.94 Q 870.696 478.185 869.002 475.829 L 869.002 475.829 L 869.002 475.829 Q 867.309 473.473 865.395 472.369 L 865.395 472.369 L 865.395 472.369 Q 863.481 471.265 861.714 471.265 L 861.714 471.265 L 861.714 471.265 Q 857.738 471.265 853.689 475.387 L 853.689 475.387 L 853.689 475.387 Q 849.64 479.51 845.664 485.842 L 845.664 485.842 L 845.664 485.842 Q 841.689 492.173 837.787 499.83 L 837.787 499.83 L 837.787 499.83 Q 833.885 507.486 829.91 514.701 L 829.91 514.701 L 829.91 514.701 Q 829.615 538.554 829.1 560.199 L 829.1 560.199 L 829.1 560.199 Q 828.584 581.843 827.333 600.396 L 827.333 600.396 L 827.333 600.396 Q 826.081 618.948 823.873 633.967 L 823.873 633.967 L 823.873 633.967 Q 821.664 648.986 817.836 659.661 L 817.836 659.661 L 817.836 659.661 Q 814.007 670.336 808.412 676.078 L 808.412 676.078 L 808.412 676.078 Q 802.817 681.821 794.719 681.821 L 794.719 681.821 L 794.719 681.821 Q 792.216 681.821 788.976 680.79 L 788.976 680.79 L 788.976 680.79 Q 785.737 679.759 782.939 676.594 L 782.939 676.594 L 782.939 676.594 Q 780.142 673.428 778.228 667.538 L 778.228 667.538 L 778.228 667.538 Q 776.313 661.649 776.313 651.783 L 776.313 651.783 L 776.313 651.783 Q 776.313 639.268 779.405 622.777 L 779.405 622.777 L 779.405 622.777 Q 782.498 606.286 788.166 587.807 L 788.166 587.807 L 788.166 587.807 Q 793.835 569.328 801.639 549.892 L 801.639 549.892 L 801.639 549.892 Q 809.443 530.456 818.866 512.051 L 818.866 512.051 L 818.866 512.051 Q 818.866 506.897 818.94 501.891 L 818.94 501.891 L 818.94 501.891 Q 819.014 496.885 819.014 492.173 L 819.014 492.173 L 819.014 492.173 Q 817.099 494.382 814.449 494.382 L 814.449 494.382 L 814.449 494.382 Q 811.946 494.382 810.474 492.615 L 810.474 492.615 L 810.474 492.615 Q 809.001 490.848 809.001 488.786 L 809.001 488.786 L 809.001 488.786 Q 809.001 487.756 809.443 486.578 L 809.443 486.578 L 809.443 486.578 Q 812.977 478.48 814.891 471.191 L 814.891 471.191 L 814.891 471.191 Q 816.805 463.903 817.762 458.381 L 817.762 458.381 L 817.762 458.381 Q 818.719 452.859 818.866 449.62 L 818.866 449.62 L 818.866 449.62 Q 819.014 446.381 819.014 446.234 L 819.014 446.234 L 819.014 446.234 Q 819.014 444.025 820.633 442.405 L 820.633 442.405 L 820.633 442.405 Q 822.253 440.786 824.609 440.786 L 824.609 440.786 L 824.609 440.786 Q 826.817 440.786 828.437 442.332 L 828.437 442.332 L 828.437 442.332 Q 830.057 443.878 830.057 446.234 L 830.057 446.234 L 830.057 491.437 L 830.057 491.437 Q 833.443 485.694 836.83 480.099 L 836.83 480.099 L 836.83 480.099 Q 840.216 474.504 843.971 470.087 L 843.971 470.087 L 843.971 470.087 Q 847.726 465.669 852.069 462.945 L 852.069 462.945 L 852.069 462.945 Q 856.413 460.222 861.714 460.222 L 861.714 460.222 L 861.714 460.222 Q 866.72 460.222 870.843 462.577 L 870.843 462.577 L 870.843 462.577 Q 874.966 464.933 877.91 469.056 L 877.91 469.056 L 877.91 469.056 Q 880.855 473.179 882.401 478.848 L 882.401 478.848 L 882.401 478.848 Q 883.947 484.516 883.947 490.995 Z  M 818.572 538.26 L 818.572 538.26 L 818.572 538.26 Q 811.357 554.456 805.541 570.8 L 805.541 570.8 L 805.541 570.8 Q 799.725 587.144 795.676 602.31 L 795.676 602.31 L 795.676 602.31 Q 791.627 617.476 789.418 630.728 L 789.418 630.728 L 789.418 630.728 Q 787.209 643.98 787.209 653.992 L 787.209 653.992 L 787.209 653.992 Q 787.209 656.495 787.504 659.44 L 787.504 659.44 L 787.504 659.44 Q 787.798 662.385 788.682 664.888 L 788.682 664.888 L 788.682 664.888 Q 789.565 667.391 791.185 669.084 L 791.185 669.084 L 791.185 669.084 Q 792.805 670.778 795.455 670.778 L 795.455 670.778 L 795.455 670.778 Q 800.314 670.778 803.848 664.667 L 803.848 664.667 L 803.848 664.667 Q 807.381 658.557 809.811 648.176 L 809.811 648.176 L 809.811 648.176 Q 812.24 637.795 813.86 624.323 L 813.86 624.323 L 813.86 624.323 Q 815.48 610.85 816.437 596.126 L 816.437 596.126 L 816.437 596.126 Q 817.394 581.402 817.836 566.457 L 817.836 566.457 L 817.836 566.457 Q 818.277 551.512 818.572 538.26 Z  M 932.537 515.879 L 932.537 515.879 L 932.537 515.879 Q 935.629 520.149 940.488 522.726 L 940.488 522.726 L 940.488 522.726 Q 945.347 525.302 952.415 525.302 L 952.415 525.302 L 952.415 525.302 Q 959.63 525.302 965.519 521.842 L 965.519 521.842 L 965.519 521.842 Q 971.409 518.382 976.268 512.787 L 976.268 512.787 L 976.268 512.787 Q 981.127 507.192 984.955 500.271 L 984.955 500.271 L 984.955 500.271 Q 988.784 493.351 991.876 486.431 L 991.876 486.431 L 991.876 486.431 Q 992.612 484.811 993.937 484.001 L 993.937 484.001 L 993.937 484.001 Q 995.262 483.191 996.882 483.191 L 996.882 483.191 L 996.882 483.191 Q 999.385 483.191 1000.931 484.958 L 1000.931 484.958 L 1000.931 484.958 Q 1002.477 486.725 1002.477 488.786 L 1002.477 488.786 L 1002.477 488.786 Q 1002.477 489.523 1002.33 490.038 L 1002.33 490.038 L 1002.33 490.038 Q 1002.183 490.553 1001.888 491.142 L 1001.888 491.142 L 1001.888 491.142 Q 991.729 513.523 979.728 524.861 L 979.728 524.861 L 979.728 524.861 Q 967.728 536.198 952.562 536.493 L 952.562 536.493 L 952.562 536.493 Q 942.844 536.493 935.777 532.738 L 935.777 532.738 L 935.777 532.738 Q 928.709 528.984 924.144 523.02 L 924.144 523.02 L 924.144 523.02 Q 919.58 517.057 917.371 509.548 L 917.371 509.548 L 917.371 509.548 Q 915.163 502.038 915.163 494.529 L 915.163 494.529 L 915.163 494.529 Q 915.163 487.02 917.003 480.688 L 917.003 480.688 L 917.003 480.688 Q 918.844 474.357 922.304 469.645 L 922.304 469.645 L 922.304 469.645 Q 925.764 464.933 930.549 462.283 L 930.549 462.283 L 930.549 462.283 Q 935.335 459.633 941.077 459.633 L 941.077 459.633 L 941.077 459.633 Q 944.464 459.633 947.777 461.031 L 947.777 461.031 L 947.777 461.031 Q 951.09 462.43 953.74 465.007 L 953.74 465.007 L 953.74 465.007 Q 956.39 467.584 958.01 471.265 L 958.01 471.265 L 958.01 471.265 Q 959.63 474.946 959.63 479.657 L 959.63 479.657 L 959.63 479.657 Q 959.63 485.694 957.568 490.995 L 957.568 490.995 L 957.568 490.995 Q 955.507 496.296 951.9 500.86 L 951.9 500.86 L 951.9 500.86 Q 948.292 505.425 943.286 509.253 L 943.286 509.253 L 943.286 509.253 Q 938.28 513.081 932.537 515.879 Z  M 928.12 506.308 L 928.12 506.308 L 928.12 506.308 Q 932.684 504.394 936.439 501.449 L 936.439 501.449 L 936.439 501.449 Q 940.194 498.504 942.844 494.971 L 942.844 494.971 L 942.844 494.971 Q 945.495 491.437 946.967 487.535 L 946.967 487.535 L 946.967 487.535 Q 948.439 483.633 948.439 479.657 L 948.439 479.657 L 948.439 479.657 Q 948.439 475.24 946.231 472.958 L 946.231 472.958 L 946.231 472.958 Q 944.022 470.676 941.077 470.676 L 941.077 470.676 L 941.077 470.676 Q 937.102 470.676 934.304 472.884 L 934.304 472.884 L 934.304 472.884 Q 931.507 475.093 929.74 478.627 L 929.74 478.627 L 929.74 478.627 Q 927.973 482.161 927.163 486.504 L 927.163 486.504 L 927.163 486.504 Q 926.353 490.848 926.353 495.118 L 926.353 495.118 L 926.353 495.118 Q 926.353 497.768 926.868 500.713 L 926.868 500.713 L 926.868 500.713 Q 927.384 503.658 928.12 506.308 Z " fill="url(#_lgradient_4)"/><linearGradient id="_lgradient_5" x1="-0.5403645217873487" y1="0.49999999999999956" x2="1.5882194574079485" y2="0.49999999999999956" gradientTransform="matrix(331.398,0,0,286.309,474.301,42.5)" gradientUnits="userSpaceOnUse"><stop offset="0%" stop-opacity="1" style="stop-color:rgb(54,97,124)"/><stop offset="100%" stop-opacity="1" style="stop-color:rgb(95,146,179)"/></linearGradient><path d=" M 771.227 266.967 C 770.383 264.751 771.438 262.323 773.654 261.479 C 783.047 257.891 791.595 253.353 799.088 247.971 C 800.987 246.705 803.625 247.127 804.892 248.921 C 805.553 249.829 805.824 250.964 805.646 252.073 C 805.467 253.182 804.854 254.175 803.942 254.831 C 795.922 260.635 786.635 265.489 776.609 269.394 C 776.187 269.605 775.659 269.711 775.132 269.711 C 773.443 269.711 771.86 268.655 771.227 266.967 L 771.227 266.967 Z  M 753.709 316.778 C 743.05 319.205 731.864 320.366 720.572 320.366 C 718.25 320.366 716.35 322.266 716.35 324.587 C 716.35 326.909 718.25 328.809 720.572 328.809 C 732.497 328.809 744.316 327.542 755.608 325.01 C 757.93 324.482 759.302 322.266 758.774 319.944 C 758.247 317.622 756.03 316.25 753.709 316.778 L 753.709 316.778 Z  M 680.681 314.667 C 667.383 310.763 654.931 305.064 643.428 297.571 C 607.652 274.354 569.977 272.454 559.319 272.454 C 556.997 272.454 555.097 274.354 555.097 276.676 C 555.097 278.997 556.997 280.897 559.319 280.897 C 569.45 280.897 605.014 282.586 638.784 304.642 C 650.92 312.557 664.218 318.678 678.253 322.793 C 678.675 322.899 679.098 323.004 679.414 323.004 C 681.208 323.004 682.897 321.844 683.424 319.944 C 684.163 317.622 682.897 315.301 680.681 314.667 Z  M 798.665 273.299 C 778.087 288.179 750.332 296.41 720.466 296.41 C 704.742 296.41 673.821 293.455 643.322 273.615 C 607.547 250.398 569.872 248.499 559.213 248.499 C 527.659 248.499 498.11 257.258 476.054 273.299 C 474.16 274.668 473.734 277.314 475.104 279.209 C 476.474 281.103 479.12 281.528 481.014 280.158 C 501.593 265.278 529.347 257.047 559.213 257.047 C 569.344 257.047 604.908 258.735 638.679 280.792 C 671.077 301.792 703.792 304.958 720.466 304.958 C 752.02 304.958 781.569 296.199 803.625 280.158 C 805.52 278.789 805.945 276.143 804.575 274.249 C 803.206 272.354 800.56 271.929 798.665 273.299 L 798.665 273.299 Z  M 508.663 51.048 C 507.608 50.098 507.08 48.726 507.291 47.354 C 507.502 45.983 508.241 44.822 509.507 44.189 C 511.618 43.028 514.045 42.5 516.578 42.5 C 520.694 42.5 524.915 43.977 528.609 46.616 C 532.725 49.571 535.574 53.475 538.423 57.169 C 538.951 57.908 539.373 58.541 539.901 59.174 C 554.253 77.642 595.622 112.89 621.688 125.976 C 624.643 125.343 627.598 122.704 630.447 120.172 L 631.503 119.327 C 645.222 107.191 663.584 100.332 681.841 100.332 L 682.264 100.332 C 689.123 100.332 693.767 103.075 695.138 107.719 C 696.088 110.779 695.666 115.423 689.018 120.488 C 687.435 121.755 685.641 123.021 683.952 124.182 C 699.465 119.222 715.401 115.001 731.336 111.518 C 736.718 110.357 742.1 109.407 747.377 111.096 C 753.603 112.995 759.196 119.538 757.402 126.609 C 756.242 130.936 752.442 134.63 747.377 136.107 C 744.105 137.057 740.834 137.057 737.668 137.057 L 736.19 136.951 C 727.009 137.057 718.25 137.162 709.385 139.801 C 710.335 140.961 711.074 142.122 711.601 143.389 L 713.396 142.228 C 716.561 140.328 720.044 139.273 723.421 139.273 C 725.637 139.273 727.853 139.695 729.753 140.645 C 733.763 142.65 736.824 146.449 738.618 151.831 C 741.678 160.696 740.517 170.51 735.557 177.37 C 731.336 183.069 724.476 186.657 717.511 186.657 C 715.084 186.657 712.762 186.129 710.546 185.285 C 709.702 184.968 708.858 184.23 708.435 183.385 C 705.586 178.214 701.998 171.671 701.681 164.495 L 701.681 163.862 C 700.31 164.284 698.938 164.601 697.671 164.706 C 696.932 164.812 696.299 164.812 695.561 164.812 C 690.178 164.812 685.218 163.018 680.786 161.435 L 671.816 158.269 C 662.529 165.023 655.036 172.41 650.92 176.842 C 634.985 194.044 618.944 209.557 597.416 212.407 C 596.149 212.618 594.672 212.723 593.089 212.723 C 590.767 212.723 588.234 212.407 585.807 211.457 C 581.058 209.663 577.681 205.547 577.259 201.009 C 576.415 192.461 584.857 187.29 588.023 185.285 C 602.903 176.104 618.311 165.762 633.297 155.841 C 636.885 153.414 640.473 150.987 644.166 148.56 L 643.85 148.454 C 642.267 147.927 640.578 147.293 638.995 146.766 C 602.27 161.646 588.868 163.334 565.228 166.289 C 562.907 166.606 560.479 166.922 557.947 167.239 C 555.203 167.556 552.459 167.872 549.715 167.872 C 546.866 167.872 544.016 167.556 541.167 166.606 C 534.096 164.179 529.347 157.952 529.664 151.409 C 529.875 146.133 533.252 139.062 547.393 134.841 C 564.49 129.775 579.581 128.087 596.044 128.403 C 592.139 126.187 588.34 123.865 584.646 121.227 C 578.737 117.111 558.474 97.693 543.7 83.446 C 537.579 77.642 532.83 72.999 530.719 71.099 L 508.663 51.048 L 508.663 51.048 Z  M 710.018 164.179 C 710.23 168.927 712.657 173.676 714.978 178.003 C 715.612 178.214 716.35 178.32 717.089 178.32 C 712.657 172.938 710.018 165.445 712.129 159.641 C 714.345 153.625 720.15 149.404 726.376 148.56 C 726.27 148.454 726.165 148.454 726.059 148.349 C 723.843 147.293 720.572 147.821 717.722 149.51 C 712.868 152.464 709.702 158.374 710.018 164.179 L 710.018 164.179 Z  M 683.635 133.047 C 683.53 133.152 683.319 133.258 683.213 133.363 C 668.333 142.544 652.926 152.887 637.94 162.807 C 622.954 172.832 607.441 183.174 592.456 192.461 C 587.601 195.416 585.385 197.949 585.596 200.059 C 585.702 201.431 586.968 202.803 588.762 203.542 C 590.662 204.281 592.983 204.386 596.149 203.964 C 614.934 201.537 629.814 186.973 644.589 171.038 C 652.82 162.173 673.821 142.017 697.777 136.424 C 698.199 135.685 698.832 134.946 699.782 134.524 C 712.34 128.825 724.476 128.72 736.296 128.614 L 737.773 128.614 C 740.412 128.614 742.945 128.614 745.161 127.981 C 747.271 127.348 748.96 125.976 749.276 124.498 C 749.804 122.388 747.377 119.75 744.95 119.011 C 741.573 117.955 737.668 118.694 733.236 119.644 C 716.561 123.232 699.887 127.77 683.635 133.047 L 683.635 133.047 Z  M 618.839 138.323 C 592.983 136.001 573.354 136.001 549.715 143.072 C 545.388 144.338 538.212 147.188 538.001 151.937 C 537.896 154.892 540.85 157.636 543.805 158.691 C 547.605 159.957 551.931 159.535 556.786 158.902 C 559.424 158.585 561.851 158.269 564.173 157.952 C 587.074 155.103 600.054 153.52 635.724 138.956 C 635.724 138.745 635.618 138.64 635.618 138.429 C 635.402 137.322 635.638 136.176 636.272 135.244 C 636.906 134.313 637.887 133.673 638.995 133.469 C 655.247 130.514 670.866 123.654 683.847 113.734 C 686.485 111.835 687.118 110.357 687.012 110.041 C 686.801 109.618 685.324 108.774 682.158 108.774 L 681.841 108.774 C 665.347 108.827 649.424 114.822 636.99 125.659 L 636.04 126.504 C 632.558 129.564 628.442 133.258 623.377 134.313 L 623.377 134.524 C 623.166 136.846 621.16 138.534 618.839 138.323 L 618.839 138.323 Z  M 595.094 231.402 C 583.591 228.764 571.56 227.392 559.319 227.392 C 545.177 227.392 531.353 229.186 518.267 232.669 C 516.204 233.227 514.879 235.233 515.173 237.349 C 515.468 239.465 517.291 241.032 519.427 241.006 C 519.744 241.006 520.166 241.006 520.483 240.9 C 532.936 237.629 546.022 235.94 559.424 235.94 C 571.033 235.94 582.43 237.207 593.3 239.74 C 595.516 240.267 597.838 238.79 598.365 236.574 C 598.893 234.357 597.416 231.93 595.094 231.402 L 595.094 231.402 Z " fill="url(#_lgradient_5)"/><g><linearGradient id="_lgradient_6" x1="0" y1="0.5" x2="1" y2="0.5" gradientTransform="matrix(932.046,0,0,49.505,127.43,697.482)" gradientUnits="userSpaceOnUse"><stop offset="0%" stop-opacity="1" style="stop-color:rgb(54,97,124)"/><stop offset="100%" stop-opacity="1" style="stop-color:rgb(95,146,179)"/></linearGradient><path d=" M 998.362 717.786 L 998.362 717.786 L 998.362 714.117 L 998.362 714.117 Q 996.904 713.364 993.989 713.364 L 993.989 713.364 L 993.989 713.364 Q 986.551 713.364 986.551 724.571 L 986.551 724.571 L 986.551 724.571 Q 986.551 732.763 991.527 732.763 L 991.527 732.763 L 991.527 732.763 Q 993.637 732.763 995.07 731.331 L 995.07 731.331 L 995.07 731.331 Q 996.502 729.899 997.206 727.436 L 997.206 727.436 L 997.206 727.436 Q 998.362 723.164 998.362 717.786 Z  M 991.175 735.528 L 991.175 735.528 L 991.175 735.528 Q 986.802 735.528 984.792 732.512 L 984.792 732.512 L 984.792 732.512 Q 982.782 729.497 982.782 723.943 L 982.782 723.943 L 982.782 723.943 Q 982.782 718.389 985.621 714.545 L 985.621 714.545 L 985.621 714.545 Q 988.461 710.7 993.989 710.7 L 993.989 710.7 L 993.989 710.7 Q 995.949 710.7 997.884 711.102 L 997.884 711.102 L 997.884 711.102 Q 999.819 711.504 1001.729 712.258 L 1001.729 712.258 L 1001.729 725.023 L 1001.729 725.023 Q 1001.729 730.15 1002.634 731.507 L 1002.634 731.507 L 1002.634 731.507 Q 1003.488 732.864 1005.498 732.864 L 1005.498 732.864 L 1005.599 735.125 L 1005.599 735.125 Q 1004.795 735.327 1003.589 735.327 L 1003.589 735.327 L 1003.589 735.327 Q 1000.925 735.327 999.769 733.467 L 999.769 733.467 L 999.769 733.467 Q 998.915 732.11 998.915 730.25 L 998.915 730.25 L 998.915 730.25 Q 998.915 729.647 999.015 728.944 L 999.015 728.944 L 998.714 728.944 L 998.714 728.944 Q 997.859 731.959 995.974 733.743 L 995.974 733.743 L 995.974 733.743 Q 994.09 735.528 991.175 735.528 Z  M 1014.796 710.851 L 1014.796 712.308 L 1014.796 712.308 Q 1014.796 714.972 1014.394 716.781 L 1014.394 716.781 L 1014.696 716.781 L 1014.696 716.781 Q 1015.399 713.967 1017.435 712.333 L 1017.435 712.333 L 1017.435 712.333 Q 1019.47 710.7 1022.385 710.7 L 1022.385 710.7 L 1022.385 710.7 Q 1026.356 710.7 1027.864 712.685 L 1027.864 712.685 L 1027.864 712.685 Q 1029.371 714.67 1029.371 718.641 L 1029.371 718.641 L 1029.371 718.641 Q 1029.371 718.791 1029.296 723.767 L 1029.296 723.767 L 1029.296 723.767 Q 1029.221 728.743 1029.221 730.1 L 1029.221 730.1 L 1029.221 730.1 Q 1029.221 731.457 1029.547 732.11 L 1029.547 732.11 L 1029.547 732.11 Q 1029.874 732.763 1031.683 732.763 L 1031.683 732.763 L 1031.784 735.025 L 1031.784 735.025 Q 1031.08 735.327 1029.723 735.327 L 1029.723 735.327 L 1029.723 735.327 Q 1027.311 735.327 1026.431 734.221 L 1026.431 734.221 L 1026.431 734.221 Q 1025.552 733.115 1025.552 730.703 L 1025.552 730.703 L 1025.552 730.703 Q 1025.552 730.602 1025.652 725.275 L 1025.652 725.275 L 1025.652 725.275 Q 1025.753 719.947 1025.753 719.746 L 1025.753 719.746 L 1025.753 719.746 Q 1025.753 716.831 1024.999 715.198 L 1024.999 715.198 L 1024.999 715.198 Q 1024.245 713.565 1022.008 713.565 L 1022.008 713.565 L 1022.008 713.565 Q 1019.772 713.565 1018.289 714.972 L 1018.289 714.972 L 1018.289 714.972 Q 1016.807 716.379 1016.053 718.641 L 1016.053 718.641 L 1016.053 718.641 Q 1014.696 723.013 1014.696 727.938 L 1014.696 727.938 L 1014.696 734.924 L 1011.228 734.924 L 1011.228 711.303 L 1014.796 710.851 L 1014.796 710.851 Z  M 1045.253 735.528 L 1045.253 735.528 L 1045.253 735.528 Q 1040.881 735.528 1038.87 732.512 L 1038.87 732.512 L 1038.87 732.512 Q 1036.86 729.497 1036.86 723.943 L 1036.86 723.943 L 1036.86 723.943 Q 1036.86 718.389 1039.699 714.545 L 1039.699 714.545 L 1039.699 714.545 Q 1042.539 710.7 1048.067 710.7 L 1048.067 710.7 L 1048.067 710.7 Q 1050.229 710.7 1052.44 711.604 L 1052.44 711.604 L 1052.44 698.085 L 1055.807 697.482 L 1055.807 725.023 L 1055.807 725.023 Q 1055.807 729.497 1056.461 731.18 L 1056.461 731.18 L 1056.461 731.18 Q 1057.114 732.864 1059.376 732.864 L 1059.376 732.864 L 1059.476 735.125 L 1059.476 735.125 Q 1058.823 735.327 1057.466 735.327 L 1057.466 735.327 L 1057.466 735.327 Q 1054.953 735.327 1053.973 733.819 L 1053.973 733.819 L 1053.973 733.819 Q 1052.993 732.311 1052.993 730.351 L 1052.993 730.351 L 1052.993 730.351 Q 1052.993 729.848 1053.043 729.245 L 1053.043 729.245 L 1052.742 729.245 L 1052.742 729.245 Q 1050.731 735.528 1045.253 735.528 Z  M 1052.44 719.294 L 1052.44 719.294 L 1052.44 714.117 L 1052.44 714.117 Q 1050.982 713.364 1048.067 713.364 L 1048.067 713.364 L 1048.067 713.364 Q 1040.629 713.364 1040.629 724.571 L 1040.629 724.571 L 1040.629 724.571 Q 1040.629 732.763 1045.605 732.763 L 1045.605 732.763 L 1045.605 732.763 Q 1047.565 732.763 1048.997 731.482 L 1048.997 731.482 L 1048.997 731.482 Q 1050.43 730.2 1051.133 728.089 L 1051.133 728.089 L 1051.133 728.089 Q 1052.44 724.119 1052.44 719.294 Z  M 820.396 713.967 L 816.375 713.967 L 816.375 711.805 L 820.396 711.303 L 820.396 707.885 L 820.396 707.885 Q 820.396 697.482 828.035 697.482 L 828.035 697.482 L 828.035 697.482 Q 829.694 697.482 831.001 698.135 L 831.001 698.135 L 830.498 700.347 L 830.498 700.347 Q 829.794 700.145 828.387 700.145 L 828.387 700.145 L 828.387 700.145 Q 826.98 700.145 826.05 700.774 L 826.05 700.774 L 826.05 700.774 Q 825.12 701.402 824.718 702.608 L 824.718 702.608 L 824.718 702.608 Q 824.015 704.518 824.015 707.986 L 824.015 707.986 L 824.015 711.303 L 830.498 711.303 L 830.498 713.967 L 824.015 713.967 L 823.964 739.598 L 823.964 739.598 Q 823.964 741.709 823.713 742.639 L 823.713 742.639 L 823.713 742.639 Q 823.462 743.569 822.557 743.72 L 822.557 743.72 L 819.743 743.117 L 819.743 743.117 Q 820.496 742.212 820.496 738.895 L 820.496 738.895 L 820.396 713.967 L 820.396 713.967 Z  M 842.711 732.864 L 842.711 732.864 L 842.711 732.864 Q 845.224 732.864 846.832 731.306 L 846.832 731.306 L 846.832 731.306 Q 848.44 729.748 849.018 727.536 L 849.018 727.536 L 849.018 727.536 Q 849.596 725.325 849.596 722.46 L 849.596 722.46 L 849.596 722.46 Q 849.596 713.464 843.213 713.464 L 843.213 713.464 L 843.213 713.464 Q 840.851 713.464 839.293 714.972 L 839.293 714.972 L 839.293 714.972 Q 836.479 717.635 836.479 723.465 L 836.479 723.465 L 836.479 723.465 Q 836.479 732.864 842.711 732.864 Z  M 853.366 722.511 L 853.366 722.511 L 853.366 722.511 Q 853.366 728.039 850.576 731.783 L 850.576 731.783 L 850.576 731.783 Q 847.787 735.528 842.535 735.528 L 842.535 735.528 L 842.535 735.528 Q 837.283 735.528 835.071 732.487 L 835.071 732.487 L 835.071 732.487 Q 832.86 729.446 832.86 723.566 L 832.86 723.566 L 832.86 723.566 Q 832.86 717.686 835.423 714.193 L 835.423 714.193 L 835.423 714.193 Q 837.986 710.7 843.163 710.7 L 843.163 710.7 L 843.163 710.7 Q 848.34 710.7 850.853 713.841 L 850.853 713.841 L 850.853 713.841 Q 853.366 716.982 853.366 722.511 Z  M 860.251 711.202 L 863.317 710.851 L 863.317 710.851 Q 864.322 711.253 864.322 713.439 L 864.322 713.439 L 864.322 713.439 Q 864.322 715.625 863.97 717.485 L 863.97 717.485 L 864.272 717.485 L 864.272 717.485 Q 865.377 713.916 866.835 712.308 L 866.835 712.308 L 866.835 712.308 Q 868.292 710.7 871.408 710.7 L 871.408 710.7 L 872.966 710.901 L 872.514 714.369 L 872.514 714.369 Q 871.861 714.218 870.906 714.218 L 870.906 714.218 L 870.906 714.218 Q 868.946 714.218 867.564 715.499 L 867.564 715.499 L 867.564 715.499 Q 866.182 716.781 865.528 718.942 L 865.528 718.942 L 865.528 718.942 Q 864.272 722.812 864.272 727.637 L 864.272 727.637 L 864.272 734.924 L 860.804 734.924 L 860.804 718.691 L 860.804 718.691 Q 860.804 713.615 860.251 711.202 L 860.251 711.202 L 860.251 711.202 Z  M 628.383 717.786 L 628.383 717.786 L 628.383 717.786 Q 628.86 716.128 628.86 714.218 L 628.86 714.218 L 628.86 714.218 Q 628.86 712.308 628.408 711.052 L 628.408 711.052 L 631.474 710.7 L 631.474 710.7 Q 632.529 711.303 632.529 713.539 L 632.529 713.539 L 632.529 713.539 Q 632.529 715.776 631.826 718.063 L 631.826 718.063 L 631.826 718.063 Q 631.122 720.349 628.961 725.225 L 628.961 725.225 L 624.689 734.924 L 621.523 734.924 L 616.597 718.44 L 616.597 718.44 Q 615.089 713.414 613.883 711.303 L 613.883 711.303 L 616.497 710.8 L 616.497 710.8 Q 617.251 710.8 617.728 711.554 L 617.728 711.554 L 617.728 711.554 Q 618.206 712.308 618.909 714.57 L 618.909 714.57 L 623.734 730.552 L 624.036 730.552 L 624.036 730.552 Q 623.885 730.15 623.885 729.471 L 623.885 729.471 L 623.885 729.471 Q 623.885 728.793 624.337 727.737 L 624.337 727.737 L 624.337 727.737 Q 627.905 719.445 628.383 717.786 Z  M 653.135 717.786 L 653.135 717.786 L 653.135 714.117 L 653.135 714.117 Q 651.678 713.364 648.763 713.364 L 648.763 713.364 L 648.763 713.364 Q 641.324 713.364 641.324 724.571 L 641.324 724.571 L 641.324 724.571 Q 641.324 732.763 646.3 732.763 L 646.3 732.763 L 646.3 732.763 Q 648.411 732.763 649.843 731.331 L 649.843 731.331 L 649.843 731.331 Q 651.276 729.899 651.979 727.436 L 651.979 727.436 L 651.979 727.436 Q 653.135 723.164 653.135 717.786 Z  M 645.948 735.528 L 645.948 735.528 L 645.948 735.528 Q 641.576 735.528 639.565 732.512 L 639.565 732.512 L 639.565 732.512 Q 637.555 729.497 637.555 723.943 L 637.555 723.943 L 637.555 723.943 Q 637.555 718.389 640.395 714.545 L 640.395 714.545 L 640.395 714.545 Q 643.234 710.7 648.763 710.7 L 648.763 710.7 L 648.763 710.7 Q 650.723 710.7 652.658 711.102 L 652.658 711.102 L 652.658 711.102 Q 654.593 711.504 656.503 712.258 L 656.503 712.258 L 656.503 725.023 L 656.503 725.023 Q 656.503 730.15 657.407 731.507 L 657.407 731.507 L 657.407 731.507 Q 658.262 732.864 660.272 732.864 L 660.272 732.864 L 660.373 735.125 L 660.373 735.125 Q 659.568 735.327 658.362 735.327 L 658.362 735.327 L 658.362 735.327 Q 655.698 735.327 654.543 733.467 L 654.543 733.467 L 654.543 733.467 Q 653.688 732.11 653.688 730.25 L 653.688 730.25 L 653.688 730.25 Q 653.688 729.647 653.789 728.944 L 653.789 728.944 L 653.487 728.944 L 653.487 728.944 Q 652.633 731.959 650.748 733.743 L 650.748 733.743 L 650.748 733.743 Q 648.863 735.528 645.948 735.528 Z  M 666.102 730.602 L 666.102 730.602 L 666.102 698.085 L 669.721 697.482 L 669.721 728.542 L 669.721 728.542 Q 669.721 731.205 670.123 731.984 L 670.123 731.984 L 670.123 731.984 Q 670.525 732.763 672.435 732.763 L 672.435 732.763 L 672.535 734.975 L 672.535 734.975 Q 671.731 735.327 669.821 735.327 L 669.821 735.327 L 669.821 735.327 Q 667.911 735.327 667.007 734.221 L 667.007 734.221 L 667.007 734.221 Q 666.102 733.115 666.102 730.602 Z  M 683.491 735.327 L 683.491 735.327 L 683.491 735.327 Q 681.18 735.327 680.275 734.221 L 680.275 734.221 L 680.275 734.221 Q 679.37 733.115 679.37 730.602 L 679.37 730.602 L 679.37 711.303 L 682.989 711.303 L 682.989 728.542 L 682.989 728.542 Q 682.989 731.205 683.391 731.984 L 683.391 731.984 L 683.391 731.984 Q 683.793 732.763 685.703 732.763 L 685.703 732.763 L 685.803 734.975 L 685.803 734.975 Q 684.647 735.327 683.491 735.327 Z  M 679.018 703.412 L 679.018 703.412 L 679.018 703.412 Q 679.018 701.05 681.33 701.05 L 681.33 701.05 L 681.33 701.05 Q 683.441 701.05 683.441 703.337 L 683.441 703.337 L 683.441 703.337 Q 683.441 705.624 681.23 705.624 L 681.23 705.624 L 681.23 705.624 Q 679.018 705.624 679.018 703.412 Z  M 699.172 735.528 L 699.172 735.528 L 699.172 735.528 Q 694.8 735.528 692.789 732.512 L 692.789 732.512 L 692.789 732.512 Q 690.779 729.497 690.779 723.943 L 690.779 723.943 L 690.779 723.943 Q 690.779 718.389 693.619 714.545 L 693.619 714.545 L 693.619 714.545 Q 696.458 710.7 701.987 710.7 L 701.987 710.7 L 701.987 710.7 Q 704.148 710.7 706.359 711.604 L 706.359 711.604 L 706.359 698.085 L 709.726 697.482 L 709.726 725.023 L 709.726 725.023 Q 709.726 729.497 710.38 731.18 L 710.38 731.18 L 710.38 731.18 Q 711.033 732.864 713.295 732.864 L 713.295 732.864 L 713.395 735.125 L 713.395 735.125 Q 712.742 735.327 711.385 735.327 L 711.385 735.327 L 711.385 735.327 Q 708.872 735.327 707.892 733.819 L 707.892 733.819 L 707.892 733.819 Q 706.912 732.311 706.912 730.351 L 706.912 730.351 L 706.912 730.351 Q 706.912 729.848 706.962 729.245 L 706.962 729.245 L 706.661 729.245 L 706.661 729.245 Q 704.65 735.528 699.172 735.528 Z  M 706.359 719.294 L 706.359 719.294 L 706.359 714.117 L 706.359 714.117 Q 704.902 713.364 701.987 713.364 L 701.987 713.364 L 701.987 713.364 Q 694.548 713.364 694.548 724.571 L 694.548 724.571 L 694.548 724.571 Q 694.548 732.763 699.524 732.763 L 699.524 732.763 L 699.524 732.763 Q 701.484 732.763 702.916 731.482 L 702.916 731.482 L 702.916 731.482 Q 704.349 730.2 705.052 728.089 L 705.052 728.089 L 705.052 728.089 Q 706.359 724.119 706.359 719.294 Z  M 733.046 717.786 L 733.046 717.786 L 733.046 714.117 L 733.046 714.117 Q 731.589 713.364 728.674 713.364 L 728.674 713.364 L 728.674 713.364 Q 721.236 713.364 721.236 724.571 L 721.236 724.571 L 721.236 724.571 Q 721.236 732.763 726.211 732.763 L 726.211 732.763 L 726.211 732.763 Q 728.322 732.763 729.755 731.331 L 729.755 731.331 L 729.755 731.331 Q 731.187 729.899 731.891 727.436 L 731.891 727.436 L 731.891 727.436 Q 733.046 723.164 733.046 717.786 Z  M 725.859 735.528 L 725.859 735.528 L 725.859 735.528 Q 721.487 735.528 719.477 732.512 L 719.477 732.512 L 719.477 732.512 Q 717.466 729.497 717.466 723.943 L 717.466 723.943 L 717.466 723.943 Q 717.466 718.389 720.306 714.545 L 720.306 714.545 L 720.306 714.545 Q 723.146 710.7 728.674 710.7 L 728.674 710.7 L 728.674 710.7 Q 730.634 710.7 732.569 711.102 L 732.569 711.102 L 732.569 711.102 Q 734.504 711.504 736.414 712.258 L 736.414 712.258 L 736.414 725.023 L 736.414 725.023 Q 736.414 730.15 737.318 731.507 L 737.318 731.507 L 737.318 731.507 Q 738.173 732.864 740.183 732.864 L 740.183 732.864 L 740.284 735.125 L 740.284 735.125 Q 739.48 735.327 738.273 735.327 L 738.273 735.327 L 738.273 735.327 Q 735.61 735.327 734.454 733.467 L 734.454 733.467 L 734.454 733.467 Q 733.599 732.11 733.599 730.25 L 733.599 730.25 L 733.599 730.25 Q 733.599 729.647 733.7 728.944 L 733.7 728.944 L 733.398 728.944 L 733.398 728.944 Q 732.544 731.959 730.659 733.743 L 730.659 733.743 L 730.659 733.743 Q 728.774 735.528 725.859 735.528 Z  M 757.422 732.412 L 757.422 732.412 L 757.924 734.623 L 757.924 734.623 Q 756.065 735.528 753.451 735.528 L 753.451 735.528 L 753.451 735.528 Q 749.732 735.528 748.526 733.517 L 748.526 733.517 L 748.526 733.517 Q 747.32 731.507 747.32 727.134 L 747.32 727.134 L 747.32 713.967 L 743.299 713.967 L 743.299 711.805 L 747.32 711.303 L 747.32 706.076 L 750.939 705.473 L 750.939 711.303 L 757.422 711.303 L 757.422 713.967 L 750.939 713.967 L 750.939 726.029 L 750.939 726.029 Q 750.939 730.703 751.743 731.708 L 751.743 731.708 L 751.743 731.708 Q 752.748 732.864 754.457 732.864 L 754.457 732.864 L 754.457 732.864 Q 756.165 732.864 757.422 732.412 Z  M 772.047 732.864 L 772.047 732.864 L 772.047 732.864 Q 774.56 732.864 776.168 731.306 L 776.168 731.306 L 776.168 731.306 Q 777.777 729.748 778.355 727.536 L 778.355 727.536 L 778.355 727.536 Q 778.933 725.325 778.933 722.46 L 778.933 722.46 L 778.933 722.46 Q 778.933 713.464 772.55 713.464 L 772.55 713.464 L 772.55 713.464 Q 770.188 713.464 768.63 714.972 L 768.63 714.972 L 768.63 714.972 Q 765.815 717.635 765.815 723.465 L 765.815 723.465 L 765.815 723.465 Q 765.815 732.864 772.047 732.864 Z  M 782.702 722.511 L 782.702 722.511 L 782.702 722.511 Q 782.702 728.039 779.913 731.783 L 779.913 731.783 L 779.913 731.783 Q 777.123 735.528 771.871 735.528 L 771.871 735.528 L 771.871 735.528 Q 766.619 735.528 764.408 732.487 L 764.408 732.487 L 764.408 732.487 Q 762.196 729.446 762.196 723.566 L 762.196 723.566 L 762.196 723.566 Q 762.196 717.686 764.76 714.193 L 764.76 714.193 L 764.76 714.193 Q 767.323 710.7 772.499 710.7 L 772.499 710.7 L 772.499 710.7 Q 777.676 710.7 780.189 713.841 L 780.189 713.841 L 780.189 713.841 Q 782.702 716.982 782.702 722.511 Z  M 789.587 711.202 L 792.653 710.851 L 792.653 710.851 Q 793.658 711.253 793.658 713.439 L 793.658 713.439 L 793.658 713.439 Q 793.658 715.625 793.307 717.485 L 793.307 717.485 L 793.608 717.485 L 793.608 717.485 Q 794.714 713.916 796.171 712.308 L 796.171 712.308 L 796.171 712.308 Q 797.629 710.7 800.745 710.7 L 800.745 710.7 L 802.303 710.901 L 801.851 714.369 L 801.851 714.369 Q 801.197 714.218 800.242 714.218 L 800.242 714.218 L 800.242 714.218 Q 798.282 714.218 796.9 715.499 L 796.9 715.499 L 796.9 715.499 Q 795.518 716.781 794.865 718.942 L 794.865 718.942 L 794.865 718.942 Q 793.608 722.812 793.608 727.637 L 793.608 727.637 L 793.608 734.924 L 790.14 734.924 L 790.14 718.691 L 790.14 718.691 Q 790.14 713.615 789.587 711.202 L 789.587 711.202 L 789.587 711.202 Z  M 442.954 710.851 L 442.954 712.308 L 442.954 712.308 Q 442.954 714.972 442.552 716.781 L 442.552 716.781 L 442.853 716.781 L 442.853 716.781 Q 443.607 713.916 445.366 712.308 L 445.366 712.308 L 445.366 712.308 Q 447.125 710.7 449.739 710.7 L 449.739 710.7 L 449.739 710.7 Q 455.92 710.7 455.92 716.781 L 455.92 716.781 L 456.222 716.781 L 456.222 716.781 Q 457.78 710.7 463.158 710.7 L 463.158 710.7 L 463.158 710.7 Q 467.178 710.7 468.485 712.584 L 468.485 712.584 L 468.485 712.584 Q 469.792 714.469 469.792 718.54 L 469.792 718.54 L 469.792 718.54 Q 469.792 718.741 469.716 723.591 L 469.716 723.591 L 469.716 723.591 Q 469.641 728.441 469.641 729.949 L 469.641 729.949 L 469.641 729.949 Q 469.641 731.457 469.968 732.11 L 469.968 732.11 L 469.968 732.11 Q 470.294 732.763 472.104 732.763 L 472.104 732.763 L 472.204 735.025 L 472.204 735.025 Q 471.501 735.327 470.144 735.327 L 470.144 735.327 L 470.144 735.327 Q 467.731 735.327 466.852 734.221 L 466.852 734.221 L 466.852 734.221 Q 465.972 733.115 465.972 730.703 L 465.972 730.703 L 465.972 730.703 Q 465.972 730.602 466.073 725.149 L 466.073 725.149 L 466.073 725.149 Q 466.173 719.696 466.173 719.244 L 466.173 719.244 L 466.173 719.244 Q 466.173 716.429 465.57 714.997 L 465.57 714.997 L 465.57 714.997 Q 464.967 713.565 462.705 713.565 L 462.705 713.565 L 462.705 713.565 Q 456.373 713.565 456.373 727.536 L 456.373 727.536 L 456.373 734.924 L 452.905 734.924 L 452.905 720.148 L 452.905 720.148 Q 452.905 715.675 452.151 714.72 L 452.151 714.72 L 452.151 714.72 Q 451.146 713.565 449.286 713.565 L 449.286 713.565 L 449.286 713.565 Q 442.853 713.565 442.853 727.938 L 442.853 727.938 L 442.853 734.924 L 439.385 734.924 L 439.385 711.303 L 442.954 710.851 L 442.954 710.851 Z  M 492.861 717.786 L 492.861 717.786 L 492.861 714.117 L 492.861 714.117 Q 491.403 713.364 488.488 713.364 L 488.488 713.364 L 488.488 713.364 Q 481.05 713.364 481.05 724.571 L 481.05 724.571 L 481.05 724.571 Q 481.05 732.763 486.025 732.763 L 486.025 732.763 L 486.025 732.763 Q 488.136 732.763 489.569 731.331 L 489.569 731.331 L 489.569 731.331 Q 491.001 729.899 491.705 727.436 L 491.705 727.436 L 491.705 727.436 Q 492.861 723.164 492.861 717.786 Z  M 485.674 735.528 L 485.674 735.528 L 485.674 735.528 Q 481.301 735.528 479.291 732.512 L 479.291 732.512 L 479.291 732.512 Q 477.28 729.497 477.28 723.943 L 477.28 723.943 L 477.28 723.943 Q 477.28 718.389 480.12 714.545 L 480.12 714.545 L 480.12 714.545 Q 482.96 710.7 488.488 710.7 L 488.488 710.7 L 488.488 710.7 Q 490.448 710.7 492.383 711.102 L 492.383 711.102 L 492.383 711.102 Q 494.318 711.504 496.228 712.258 L 496.228 712.258 L 496.228 725.023 L 496.228 725.023 Q 496.228 730.15 497.133 731.507 L 497.133 731.507 L 497.133 731.507 Q 497.987 732.864 499.997 732.864 L 499.997 732.864 L 500.098 735.125 L 500.098 735.125 Q 499.294 735.327 498.087 735.327 L 498.087 735.327 L 498.087 735.327 Q 495.424 735.327 494.268 733.467 L 494.268 733.467 L 494.268 733.467 Q 493.413 732.11 493.413 730.25 L 493.413 730.25 L 493.413 730.25 Q 493.413 729.647 493.514 728.944 L 493.514 728.944 L 493.212 728.944 L 493.212 728.944 Q 492.358 731.959 490.473 733.743 L 490.473 733.743 L 490.473 733.743 Q 488.589 735.528 485.674 735.528 Z  M 519.9 733.417 L 519.9 733.417 L 519.9 733.417 Q 519.9 731.055 520.251 728.944 L 520.251 728.944 L 519.95 728.944 L 519.95 728.944 Q 518.04 735.528 512.411 735.528 L 512.411 735.528 L 512.411 735.528 Q 508.139 735.528 506.079 732.437 L 506.079 732.437 L 506.079 732.437 Q 504.018 729.346 504.018 723.868 L 504.018 723.868 L 504.018 723.868 Q 504.018 718.389 506.858 714.545 L 506.858 714.545 L 506.858 714.545 Q 509.697 710.7 515.226 710.7 L 515.226 710.7 L 515.226 710.7 Q 517.286 710.7 519.322 711.127 L 519.322 711.127 L 519.322 711.127 Q 521.357 711.554 523.317 712.409 L 523.317 712.409 L 523.368 733.417 L 523.368 733.417 Q 523.368 739.8 521.03 743.393 L 521.03 743.393 L 521.03 743.393 Q 518.693 746.987 513.165 746.987 L 513.165 746.987 L 513.165 746.987 Q 511.155 746.987 509.044 746.258 L 509.044 746.258 L 509.044 746.258 Q 506.933 745.529 505.676 744.222 L 505.676 744.222 L 506.229 742.262 L 506.229 742.262 Q 509.144 744.172 513.039 744.172 L 513.039 744.172 L 513.039 744.172 Q 516.934 744.172 518.417 741.433 L 518.417 741.433 L 518.417 741.433 Q 519.9 738.694 519.9 733.417 Z  M 512.763 732.763 L 512.763 732.763 L 512.763 732.763 Q 519.95 732.763 519.95 714.268 L 519.95 714.268 L 519.95 714.268 Q 518.342 713.364 515.226 713.364 L 515.226 713.364 L 515.226 713.364 Q 507.787 713.364 507.787 724.571 L 507.787 724.571 L 507.787 724.571 Q 507.787 728.039 508.943 730.401 L 508.943 730.401 L 508.943 730.401 Q 510.099 732.763 512.763 732.763 Z  M 536.636 735.327 L 536.636 735.327 L 536.636 735.327 Q 534.324 735.327 533.419 734.221 L 533.419 734.221 L 533.419 734.221 Q 532.515 733.115 532.515 730.602 L 532.515 730.602 L 532.515 711.303 L 536.133 711.303 L 536.133 728.542 L 536.133 728.542 Q 536.133 731.205 536.535 731.984 L 536.535 731.984 L 536.535 731.984 Q 536.937 732.763 538.847 732.763 L 538.847 732.763 L 538.948 734.975 L 538.948 734.975 Q 537.792 735.327 536.636 735.327 Z  M 532.163 703.412 L 532.163 703.412 L 532.163 703.412 Q 532.163 701.05 534.475 701.05 L 534.475 701.05 L 534.475 701.05 Q 536.586 701.05 536.586 703.337 L 536.586 703.337 L 536.586 703.337 Q 536.586 705.624 534.374 705.624 L 534.374 705.624 L 534.374 705.624 Q 532.163 705.624 532.163 703.412 Z  M 553.271 735.528 L 553.271 735.528 L 553.271 735.528 Q 543.873 735.528 543.873 723.968 L 543.873 723.968 L 543.873 723.968 Q 543.873 718.239 546.662 714.469 L 546.662 714.469 L 546.662 714.469 Q 549.452 710.7 554.628 710.7 L 554.628 710.7 L 554.628 710.7 Q 557.594 710.7 559.906 711.705 L 559.906 711.705 L 559.353 714.318 L 559.353 714.318 Q 557.292 713.615 555.03 713.615 L 555.03 713.615 L 555.03 713.615 Q 547.642 713.615 547.642 724.069 L 547.642 724.069 L 547.642 724.069 Q 547.642 732.562 553.874 732.562 L 553.874 732.562 L 553.874 732.562 Q 557.041 732.562 559.805 730.803 L 559.805 730.803 L 560.358 732.763 L 560.358 732.763 Q 559.101 734.02 557.116 734.774 L 557.116 734.774 L 557.116 734.774 Q 555.131 735.528 553.271 735.528 Z  M 580.21 717.786 L 580.21 717.786 L 580.21 714.117 L 580.21 714.117 Q 578.753 713.364 575.838 713.364 L 575.838 713.364 L 575.838 713.364 Q 568.399 713.364 568.399 724.571 L 568.399 724.571 L 568.399 724.571 Q 568.399 732.763 573.375 732.763 L 573.375 732.763 L 573.375 732.763 Q 575.486 732.763 576.918 731.331 L 576.918 731.331 L 576.918 731.331 Q 578.35 729.899 579.054 727.436 L 579.054 727.436 L 579.054 727.436 Q 580.21 723.164 580.21 717.786 Z  M 573.023 735.528 L 573.023 735.528 L 573.023 735.528 Q 568.651 735.528 566.64 732.512 L 566.64 732.512 L 566.64 732.512 Q 564.63 729.497 564.63 723.943 L 564.63 723.943 L 564.63 723.943 Q 564.63 718.389 567.469 714.545 L 567.469 714.545 L 567.469 714.545 Q 570.309 710.7 575.838 710.7 L 575.838 710.7 L 575.838 710.7 Q 577.798 710.7 579.733 711.102 L 579.733 711.102 L 579.733 711.102 Q 581.668 711.504 583.577 712.258 L 583.577 712.258 L 583.577 725.023 L 583.577 725.023 Q 583.577 730.15 584.482 731.507 L 584.482 731.507 L 584.482 731.507 Q 585.336 732.864 587.347 732.864 L 587.347 732.864 L 587.447 735.125 L 587.447 735.125 Q 586.643 735.327 585.437 735.327 L 585.437 735.327 L 585.437 735.327 Q 582.773 735.327 581.617 733.467 L 581.617 733.467 L 581.617 733.467 Q 580.763 732.11 580.763 730.25 L 580.763 730.25 L 580.763 730.25 Q 580.763 729.647 580.863 728.944 L 580.863 728.944 L 580.562 728.944 L 580.562 728.944 Q 579.707 731.959 577.823 733.743 L 577.823 733.743 L 577.823 733.743 Q 575.938 735.528 573.023 735.528 Z  M 593.177 730.602 L 593.177 730.602 L 593.177 698.085 L 596.795 697.482 L 596.795 728.542 L 596.795 728.542 Q 596.795 731.205 597.197 731.984 L 597.197 731.984 L 597.197 731.984 Q 597.599 732.763 599.509 732.763 L 599.509 732.763 L 599.61 734.975 L 599.61 734.975 Q 598.806 735.327 596.896 735.327 L 596.896 735.327 L 596.896 735.327 Q 594.986 735.327 594.081 734.221 L 594.081 734.221 L 594.081 734.221 Q 593.177 733.115 593.177 730.602 Z  M 361.887 717.786 L 361.887 717.786 L 361.887 714.117 L 361.887 714.117 Q 360.429 713.364 357.514 713.364 L 357.514 713.364 L 357.514 713.364 Q 350.076 713.364 350.076 724.571 L 350.076 724.571 L 350.076 724.571 Q 350.076 732.763 355.051 732.763 L 355.051 732.763 L 355.051 732.763 Q 357.162 732.763 358.595 731.331 L 358.595 731.331 L 358.595 731.331 Q 360.027 729.899 360.731 727.436 L 360.731 727.436 L 360.731 727.436 Q 361.887 723.164 361.887 717.786 Z  M 354.7 735.528 L 354.7 735.528 L 354.7 735.528 Q 350.327 735.528 348.317 732.512 L 348.317 732.512 L 348.317 732.512 Q 346.306 729.497 346.306 723.943 L 346.306 723.943 L 346.306 723.943 Q 346.306 718.389 349.146 714.545 L 349.146 714.545 L 349.146 714.545 Q 351.986 710.7 357.514 710.7 L 357.514 710.7 L 357.514 710.7 Q 359.474 710.7 361.409 711.102 L 361.409 711.102 L 361.409 711.102 Q 363.344 711.504 365.254 712.258 L 365.254 712.258 L 365.254 725.023 L 365.254 725.023 Q 365.254 730.15 366.159 731.507 L 366.159 731.507 L 366.159 731.507 Q 367.013 732.864 369.023 732.864 L 369.023 732.864 L 369.124 735.125 L 369.124 735.125 Q 368.32 735.327 367.113 735.327 L 367.113 735.327 L 367.113 735.327 Q 364.45 735.327 363.294 733.467 L 363.294 733.467 L 363.294 733.467 Q 362.439 732.11 362.439 730.25 L 362.439 730.25 L 362.439 730.25 Q 362.439 729.647 362.54 728.944 L 362.54 728.944 L 362.238 728.944 L 362.238 728.944 Q 361.384 731.959 359.499 733.743 L 359.499 733.743 L 359.499 733.743 Q 357.615 735.528 354.7 735.528 Z  M 378.321 710.851 L 378.321 712.308 L 378.321 712.308 Q 378.321 714.972 377.919 716.781 L 377.919 716.781 L 378.221 716.781 L 378.221 716.781 Q 378.924 713.967 380.96 712.333 L 380.96 712.333 L 380.96 712.333 Q 382.995 710.7 385.91 710.7 L 385.91 710.7 L 385.91 710.7 Q 389.881 710.7 391.388 712.685 L 391.388 712.685 L 391.388 712.685 Q 392.896 714.67 392.896 718.641 L 392.896 718.641 L 392.896 718.641 Q 392.896 718.791 392.821 723.767 L 392.821 723.767 L 392.821 723.767 Q 392.745 728.743 392.745 730.1 L 392.745 730.1 L 392.745 730.1 Q 392.745 731.457 393.072 732.11 L 393.072 732.11 L 393.072 732.11 Q 393.399 732.763 395.208 732.763 L 395.208 732.763 L 395.309 735.025 L 395.309 735.025 Q 394.605 735.327 393.248 735.327 L 393.248 735.327 L 393.248 735.327 Q 390.836 735.327 389.956 734.221 L 389.956 734.221 L 389.956 734.221 Q 389.076 733.115 389.076 730.703 L 389.076 730.703 L 389.076 730.703 Q 389.076 730.602 389.177 725.275 L 389.177 725.275 L 389.177 725.275 Q 389.278 719.947 389.278 719.746 L 389.278 719.746 L 389.278 719.746 Q 389.278 716.831 388.524 715.198 L 388.524 715.198 L 388.524 715.198 Q 387.77 713.565 385.533 713.565 L 385.533 713.565 L 385.533 713.565 Q 383.297 713.565 381.814 714.972 L 381.814 714.972 L 381.814 714.972 Q 380.331 716.379 379.578 718.641 L 379.578 718.641 L 379.578 718.641 Q 378.221 723.013 378.221 727.938 L 378.221 727.938 L 378.221 734.924 L 374.753 734.924 L 374.753 711.303 L 378.321 710.851 L 378.321 710.851 Z  M 408.778 735.528 L 408.778 735.528 L 408.778 735.528 Q 404.405 735.528 402.395 732.512 L 402.395 732.512 L 402.395 732.512 Q 400.385 729.497 400.385 723.943 L 400.385 723.943 L 400.385 723.943 Q 400.385 718.389 403.224 714.545 L 403.224 714.545 L 403.224 714.545 Q 406.064 710.7 411.592 710.7 L 411.592 710.7 L 411.592 710.7 Q 413.753 710.7 415.965 711.604 L 415.965 711.604 L 415.965 698.085 L 419.332 697.482 L 419.332 725.023 L 419.332 725.023 Q 419.332 729.497 419.986 731.18 L 419.986 731.18 L 419.986 731.18 Q 420.639 732.864 422.901 732.864 L 422.901 732.864 L 423.001 735.125 L 423.001 735.125 Q 422.348 735.327 420.991 735.327 L 420.991 735.327 L 420.991 735.327 Q 418.478 735.327 417.498 733.819 L 417.498 733.819 L 417.498 733.819 Q 416.518 732.311 416.518 730.351 L 416.518 730.351 L 416.518 730.351 Q 416.518 729.848 416.568 729.245 L 416.568 729.245 L 416.266 729.245 L 416.266 729.245 Q 414.256 735.528 408.778 735.528 Z  M 415.965 719.294 L 415.965 719.294 L 415.965 714.117 L 415.965 714.117 Q 414.507 713.364 411.592 713.364 L 411.592 713.364 L 411.592 713.364 Q 404.154 713.364 404.154 724.571 L 404.154 724.571 L 404.154 724.571 Q 404.154 732.763 409.13 732.763 L 409.13 732.763 L 409.13 732.763 Q 411.09 732.763 412.522 731.482 L 412.522 731.482 L 412.522 731.482 Q 413.955 730.2 414.658 728.089 L 414.658 728.089 L 414.658 728.089 Q 415.965 724.119 415.965 719.294 Z  M 259.61 713.967 L 255.59 713.967 L 255.59 711.805 L 259.61 711.303 L 259.61 707.885 L 259.61 707.885 Q 259.61 697.482 267.25 697.482 L 267.25 697.482 L 267.25 697.482 Q 268.908 697.482 270.215 698.135 L 270.215 698.135 L 269.712 700.347 L 269.712 700.347 Q 269.009 700.145 267.601 700.145 L 267.601 700.145 L 267.601 700.145 Q 266.194 700.145 265.264 700.774 L 265.264 700.774 L 265.264 700.774 Q 264.335 701.402 263.933 702.608 L 263.933 702.608 L 263.933 702.608 Q 263.229 704.518 263.229 707.986 L 263.229 707.986 L 263.229 711.303 L 269.712 711.303 L 269.712 713.967 L 263.229 713.967 L 263.179 739.598 L 263.179 739.598 Q 263.179 741.709 262.927 742.639 L 262.927 742.639 L 262.927 742.639 Q 262.676 743.569 261.771 743.72 L 261.771 743.72 L 258.957 743.117 L 258.957 743.117 Q 259.711 742.212 259.711 738.895 L 259.711 738.895 L 259.61 713.967 L 259.61 713.967 Z  M 287.604 717.786 L 287.604 717.786 L 287.604 714.117 L 287.604 714.117 Q 286.147 713.364 283.232 713.364 L 283.232 713.364 L 283.232 713.364 Q 275.794 713.364 275.794 724.571 L 275.794 724.571 L 275.794 724.571 Q 275.794 732.763 280.769 732.763 L 280.769 732.763 L 280.769 732.763 Q 282.88 732.763 284.312 731.331 L 284.312 731.331 L 284.312 731.331 Q 285.745 729.899 286.448 727.436 L 286.448 727.436 L 286.448 727.436 Q 287.604 723.164 287.604 717.786 Z  M 280.417 735.528 L 280.417 735.528 L 280.417 735.528 Q 276.045 735.528 274.035 732.512 L 274.035 732.512 L 274.035 732.512 Q 272.024 729.497 272.024 723.943 L 272.024 723.943 L 272.024 723.943 Q 272.024 718.389 274.864 714.545 L 274.864 714.545 L 274.864 714.545 Q 277.703 710.7 283.232 710.7 L 283.232 710.7 L 283.232 710.7 Q 285.192 710.7 287.127 711.102 L 287.127 711.102 L 287.127 711.102 Q 289.062 711.504 290.972 712.258 L 290.972 712.258 L 290.972 725.023 L 290.972 725.023 Q 290.972 730.15 291.876 731.507 L 291.876 731.507 L 291.876 731.507 Q 292.731 732.864 294.741 732.864 L 294.741 732.864 L 294.842 735.125 L 294.842 735.125 Q 294.037 735.327 292.831 735.327 L 292.831 735.327 L 292.831 735.327 Q 290.168 735.327 289.012 733.467 L 289.012 733.467 L 289.012 733.467 Q 288.157 732.11 288.157 730.25 L 288.157 730.25 L 288.157 730.25 Q 288.157 729.647 288.258 728.944 L 288.258 728.944 L 287.956 728.944 L 287.956 728.944 Q 287.102 731.959 285.217 733.743 L 285.217 733.743 L 285.217 733.743 Q 283.332 735.528 280.417 735.528 Z  M 304.793 732.763 L 304.793 732.763 L 304.793 732.763 Q 307.004 732.763 308.512 731.733 L 308.512 731.733 L 308.512 731.733 Q 310.02 730.703 310.02 728.793 L 310.02 728.793 L 310.02 728.793 Q 310.02 726.783 308.11 725.627 L 308.11 725.627 L 308.11 725.627 Q 307.155 725.074 305.798 724.496 L 305.798 724.496 L 305.798 724.496 Q 304.441 723.918 304.139 723.767 L 304.139 723.767 L 304.139 723.767 Q 301.626 722.661 300.244 721.154 L 300.244 721.154 L 300.244 721.154 Q 298.862 719.646 298.862 716.856 L 298.862 716.856 L 298.862 716.856 Q 298.862 714.067 301.124 712.383 L 301.124 712.383 L 301.124 712.383 Q 303.386 710.7 306.451 710.7 L 306.451 710.7 L 306.451 710.7 Q 309.517 710.7 311.98 711.906 L 311.98 711.906 L 311.427 714.168 L 311.427 714.168 Q 308.914 713.464 306.979 713.464 L 306.979 713.464 L 306.979 713.464 Q 305.044 713.464 303.637 714.344 L 303.637 714.344 L 303.637 714.344 Q 302.23 715.223 302.23 716.781 L 302.23 716.781 L 302.23 716.781 Q 302.23 718.339 303.185 719.219 L 303.185 719.219 L 303.185 719.219 Q 304.139 720.098 305.17 720.55 L 305.17 720.55 L 305.17 720.55 Q 306.2 721.003 307.381 721.48 L 307.381 721.48 L 307.381 721.48 Q 308.562 721.958 308.914 722.159 L 308.914 722.159 L 308.914 722.159 Q 309.266 722.36 310.221 722.888 L 310.221 722.888 L 310.221 722.888 Q 311.176 723.415 311.553 723.868 L 311.553 723.868 L 311.553 723.868 Q 311.93 724.32 312.432 725.074 L 312.432 725.074 L 312.432 725.074 Q 313.387 726.33 313.387 728.642 L 313.387 728.642 L 313.387 728.642 Q 313.387 731.959 310.924 733.743 L 310.924 733.743 L 310.924 733.743 Q 308.462 735.528 304.667 735.528 L 304.667 735.528 L 304.667 735.528 Q 300.873 735.528 297.958 733.015 L 297.958 733.015 L 298.51 731.004 L 298.51 731.004 Q 301.375 732.763 304.793 732.763 Z  M 331.028 732.412 L 331.028 732.412 L 331.53 734.623 L 331.53 734.623 Q 329.671 735.528 327.057 735.528 L 327.057 735.528 L 327.057 735.528 Q 323.338 735.528 322.132 733.517 L 322.132 733.517 L 322.132 733.517 Q 320.926 731.507 320.926 727.134 L 320.926 727.134 L 320.926 713.967 L 316.905 713.967 L 316.905 711.805 L 320.926 711.303 L 320.926 706.076 L 324.544 705.473 L 324.544 711.303 L 331.028 711.303 L 331.028 713.967 L 324.544 713.967 L 324.544 726.029 L 324.544 726.029 Q 324.544 730.703 325.349 731.708 L 325.349 731.708 L 325.349 731.708 Q 326.354 732.864 328.063 732.864 L 328.063 732.864 L 328.063 732.864 Q 329.771 732.864 331.028 732.412 Z  M 127.43 732.21 L 128.234 729.547 L 128.234 729.547 Q 132.205 732.261 135.899 732.261 L 135.899 732.261 L 135.899 732.261 Q 139.593 732.261 141.678 730.552 L 141.678 730.552 L 141.678 730.552 Q 143.764 728.843 143.764 725.828 L 143.764 725.828 L 143.764 725.828 Q 143.764 723.365 142.256 721.958 L 142.256 721.958 L 142.256 721.958 Q 140.648 720.4 137.231 718.842 L 137.231 718.842 L 137.231 718.842 Q 136.225 718.339 135.823 718.138 L 135.823 718.138 L 135.823 718.138 Q 132.406 716.53 130.521 714.419 L 130.521 714.419 L 130.521 714.419 Q 128.636 712.308 128.636 708.438 L 128.636 708.438 L 128.636 708.438 Q 128.636 704.568 131.526 702.106 L 131.526 702.106 L 131.526 702.106 Q 134.416 699.643 138.487 699.643 L 138.487 699.643 L 138.487 699.643 Q 142.558 699.643 145.925 701.1 L 145.925 701.1 L 145.171 703.865 L 145.171 703.865 Q 142.156 702.859 139.291 702.859 L 139.291 702.859 L 139.291 702.859 Q 136.426 702.859 134.466 704.342 L 134.466 704.342 L 134.466 704.342 Q 132.506 705.825 132.506 708.237 L 132.506 708.237 L 132.506 708.237 Q 132.506 710.65 133.863 712.107 L 133.863 712.107 L 133.863 712.107 Q 135.421 713.715 139.392 715.525 L 139.392 715.525 L 139.392 715.525 Q 143.01 717.233 144.317 718.389 L 144.317 718.389 L 144.317 718.389 Q 146.126 720.048 146.579 721.053 L 146.579 721.053 L 146.579 721.053 Q 147.534 723.465 147.534 725.627 L 147.534 725.627 L 147.534 725.627 Q 147.534 730.2 144.392 732.864 L 144.392 732.864 L 144.392 732.864 Q 141.251 735.528 136.351 735.528 L 136.351 735.528 L 136.351 735.528 Q 131.451 735.528 127.43 732.21 L 127.43 732.21 L 127.43 732.21 Z  M 154.218 714.771 L 154.218 714.771 L 154.218 714.771 Q 154.218 712.358 153.615 711.202 L 153.615 711.202 L 156.48 710.7 L 156.48 710.7 Q 157.334 710.901 157.56 711.705 L 157.56 711.705 L 157.56 711.705 Q 157.786 712.509 157.786 713.364 L 157.786 713.364 L 157.786 713.364 Q 157.786 713.967 157.585 720.274 L 157.585 720.274 L 157.585 720.274 Q 157.384 726.582 157.384 727.285 L 157.384 727.285 L 157.384 727.285 Q 157.384 727.989 157.46 728.868 L 157.46 728.868 L 157.46 728.868 Q 157.535 729.748 157.937 730.703 L 157.937 730.703 L 157.937 730.703 Q 158.641 732.663 161.355 732.663 L 161.355 732.663 L 161.355 732.663 Q 163.365 732.663 164.797 731.23 L 164.797 731.23 L 164.797 731.23 Q 166.23 729.798 166.883 727.436 L 166.883 727.436 L 166.883 727.436 Q 168.14 723.164 168.14 718.088 L 168.14 718.088 L 168.14 711.303 L 171.507 711.303 L 171.507 725.023 L 171.507 725.023 Q 171.507 729.497 172.16 731.18 L 172.16 731.18 L 172.16 731.18 Q 172.814 732.864 175.075 732.864 L 175.075 732.864 L 175.176 735.125 L 175.176 735.125 Q 174.372 735.327 173.165 735.327 L 173.165 735.327 L 173.165 735.327 Q 170.653 735.327 169.672 733.844 L 169.672 733.844 L 169.672 733.844 Q 168.692 732.361 168.692 730.401 L 168.692 730.401 L 168.692 730.401 Q 168.692 729.848 168.743 729.245 L 168.743 729.245 L 168.441 729.245 L 168.441 729.245 Q 167.637 732.311 165.501 733.919 L 165.501 733.919 L 165.501 733.919 Q 163.365 735.528 159.922 735.528 L 159.922 735.528 L 159.922 735.528 Q 156.48 735.528 155.123 733.417 L 155.123 733.417 L 155.123 733.417 Q 153.766 731.306 153.766 727.637 L 153.766 727.637 L 153.766 727.637 Q 153.766 727.185 153.992 721.154 L 153.992 721.154 L 153.992 721.154 Q 154.218 715.123 154.218 714.771 Z  M 180.553 711.202 L 183.619 710.851 L 183.619 710.851 Q 184.624 711.253 184.624 713.188 L 184.624 713.188 L 184.624 713.188 Q 184.624 715.123 184.273 716.982 L 184.273 716.982 L 184.574 716.982 L 184.574 716.982 Q 186.283 710.7 192.163 710.7 L 192.163 710.7 L 192.163 710.7 Q 196.536 710.7 198.295 713.539 L 198.295 713.539 L 198.295 713.539 Q 200.054 716.379 200.054 722.058 L 200.054 722.058 L 200.054 722.058 Q 200.054 727.737 197.264 731.633 L 197.264 731.633 L 197.264 731.633 Q 194.475 735.528 188.846 735.528 L 188.846 735.528 L 188.846 735.528 Q 186.685 735.528 184.474 734.623 L 184.474 734.623 L 184.474 746.383 L 181.106 746.383 L 181.106 718.691 L 181.106 718.691 Q 181.106 713.615 180.553 711.202 L 180.553 711.202 L 180.553 711.202 Z  M 184.474 726.933 L 184.474 726.933 L 184.474 732.11 L 184.474 732.11 Q 185.931 732.864 188.846 732.864 L 188.846 732.864 L 188.846 732.864 Q 196.284 732.864 196.284 721.103 L 196.284 721.103 L 196.284 721.103 Q 196.284 713.565 191.56 713.565 L 191.56 713.565 L 191.56 713.565 Q 189.6 713.565 188.143 714.846 L 188.143 714.846 L 188.143 714.846 Q 186.685 716.128 185.931 718.239 L 185.931 718.239 L 185.931 718.239 Q 184.474 722.259 184.474 726.933 Z  M 219.554 716.48 L 219.554 716.48 L 219.554 716.48 Q 219.554 715.022 218.65 714.268 L 218.65 714.268 L 218.65 714.268 Q 217.745 713.514 216.237 713.514 L 216.237 713.514 L 216.237 713.514 Q 213.222 713.514 211.513 716.002 L 211.513 716.002 L 211.513 716.002 Q 209.804 718.49 209.553 722.008 L 209.553 722.008 L 209.553 722.008 Q 219.554 722.008 219.554 716.48 Z  M 215.232 735.528 L 215.232 735.528 L 215.232 735.528 Q 205.783 735.528 205.783 723.465 L 205.783 723.465 L 205.783 723.465 Q 205.783 717.937 208.573 714.318 L 208.573 714.318 L 208.573 714.318 Q 211.362 710.7 216.438 710.7 L 216.438 710.7 L 216.438 710.7 Q 219.554 710.7 221.389 712.182 L 221.389 712.182 L 221.389 712.182 Q 223.223 713.665 223.223 716.253 L 223.223 716.253 L 223.223 716.253 Q 223.223 718.842 221.992 720.475 L 221.992 720.475 L 221.992 720.475 Q 220.76 722.108 218.65 722.963 L 218.65 722.963 L 218.65 722.963 Q 214.679 724.571 209.452 724.571 L 209.452 724.571 L 209.452 724.571 Q 209.452 732.562 215.835 732.562 L 215.835 732.562 L 215.835 732.562 Q 219.052 732.562 221.916 730.803 L 221.916 730.803 L 222.469 732.763 L 222.469 732.763 Q 221.213 734.02 219.177 734.774 L 219.177 734.774 L 219.177 734.774 Q 217.142 735.528 215.232 735.528 Z  M 228.802 711.202 L 231.868 710.851 L 231.868 710.851 Q 232.873 711.253 232.873 713.439 L 232.873 713.439 L 232.873 713.439 Q 232.873 715.625 232.521 717.485 L 232.521 717.485 L 232.822 717.485 L 232.822 717.485 Q 233.928 713.916 235.386 712.308 L 235.386 712.308 L 235.386 712.308 Q 236.843 710.7 239.959 710.7 L 239.959 710.7 L 241.517 710.901 L 241.065 714.369 L 241.065 714.369 Q 240.412 714.218 239.457 714.218 L 239.457 714.218 L 239.457 714.218 Q 237.497 714.218 236.114 715.499 L 236.114 715.499 L 236.114 715.499 Q 234.732 716.781 234.079 718.942 L 234.079 718.942 L 234.079 718.942 Q 232.822 722.812 232.822 727.637 L 232.822 727.637 L 232.822 734.924 L 229.355 734.924 L 229.355 718.691 L 229.355 718.691 Q 229.355 713.615 228.802 711.202 L 228.802 711.202 L 228.802 711.202 Z " fill="url(#_lgradient_6)"/><g><path d="M 896.192 678.52 L 959.738 678.52 C 963.994 678.52 967.45 681.976 967.45 686.233 L 967.45 749.787 C 967.45 754.044 963.994 757.5 959.738 757.5 L 896.192 757.5 C 891.936 757.5 888.48 754.044 888.48 749.787 L 888.48 686.233 C 888.48 681.976 891.936 678.52 896.192 678.52 Z" style="stroke:none;fill:#3178C6;stroke-miterlimit:10;"/><path d="M 896.192 678.52 L 959.738 678.52 C 963.994 678.52 967.45 681.976 967.45 686.233 L 967.45 749.787 C 967.45 754.044 963.994 757.5 959.738 757.5 L 896.192 757.5 C 891.936 757.5 888.48 754.044 888.48 749.787 L 888.48 686.233 C 888.48 681.976 891.936 678.52 896.192 678.52 Z" style="stroke:none;fill:#3178C6;stroke-miterlimit:10;"/><path d=" M 937.365 741.369 L 937.365 749.091 C 938.62 749.735 940.105 750.217 941.819 750.539 C 943.533 750.861 945.339 751.022 947.238 751.022 C 949.089 751.022 950.847 750.845 952.513 750.491 C 954.179 750.137 955.639 749.554 956.895 748.741 C 958.15 747.929 959.144 746.867 959.876 745.556 C 960.608 744.245 960.974 742.624 960.974 740.694 C 960.974 739.294 960.765 738.067 960.347 737.014 C 959.928 735.96 959.325 735.023 958.536 734.203 C 957.748 733.382 956.802 732.646 955.7 731.995 C 954.597 731.343 953.354 730.728 951.97 730.149 C 950.956 729.73 950.047 729.324 949.242 728.93 C 948.437 728.536 947.753 728.134 947.19 727.724 C 946.627 727.313 946.192 726.879 945.887 726.42 C 945.581 725.962 945.428 725.443 945.428 724.864 C 945.428 724.333 945.565 723.855 945.838 723.428 C 946.112 723.002 946.498 722.636 946.997 722.33 C 947.496 722.025 948.107 721.787 948.832 721.618 C 949.556 721.45 950.36 721.365 951.246 721.365 C 951.889 721.365 952.569 721.413 953.285 721.51 C 954.002 721.606 954.722 721.755 955.446 721.956 C 956.17 722.157 956.874 722.411 957.558 722.716 C 958.242 723.022 958.874 723.376 959.453 723.778 L 959.453 716.563 C 958.279 716.113 956.995 715.779 955.603 715.562 C 954.211 715.345 952.614 715.236 950.811 715.236 C 948.976 715.236 947.238 715.433 945.597 715.827 C 943.955 716.221 942.511 716.837 941.264 717.673 C 940.016 718.51 939.031 719.575 938.306 720.87 C 937.582 722.165 937.22 723.714 937.22 725.516 C 937.22 727.816 937.884 729.779 939.212 731.403 C 940.539 733.028 942.555 734.404 945.259 735.53 C 946.321 735.964 947.311 736.39 948.228 736.809 C 949.145 737.227 949.938 737.661 950.606 738.112 C 951.274 738.562 951.801 739.053 952.187 739.584 C 952.573 740.115 952.767 740.718 952.767 741.394 C 952.767 741.892 952.646 742.355 952.404 742.781 C 952.163 743.207 951.797 743.577 951.306 743.891 C 950.815 744.205 950.204 744.45 949.471 744.627 C 948.739 744.804 947.882 744.892 946.9 744.892 C 945.227 744.892 943.569 744.599 941.927 744.012 C 940.286 743.425 938.765 742.544 937.365 741.369 L 937.365 741.369 Z  M 924.384 722.344 L 934.289 722.344 L 934.289 716.007 L 906.679 716.007 L 906.679 722.344 L 916.536 722.344 L 916.536 750.559 L 924.384 750.559 L 924.384 722.344 Z " fill-rule="evenodd" fill="rgb(255,255,255)"/></g><g><path d="M 1083.163 678.52 L 1146.717 678.52 C 1150.974 678.52 1154.43 681.976 1154.43 686.233 L 1154.43 749.787 C 1154.43 754.044 1150.974 757.5 1146.717 757.5 L 1083.163 757.5 C 1078.906 757.5 1075.45 754.044 1075.45 749.787 L 1075.45 686.233 C 1075.45 681.976 1078.906 678.52 1083.163 678.52 Z" style="stroke:none;fill:#F7DF1E;stroke-miterlimit:10;"/><path d=" M 1128.506 740.224 C 1130.096 742.822 1132.166 744.731 1135.826 744.731 C 1138.901 744.731 1140.866 743.194 1140.866 741.071 C 1140.866 738.526 1138.848 737.625 1135.463 736.144 L 1133.608 735.348 C 1128.252 733.067 1124.695 730.208 1124.695 724.166 C 1124.695 718.6 1128.936 714.363 1135.563 714.363 C 1140.282 714.363 1143.674 716.005 1146.118 720.305 L 1140.339 724.016 C 1139.067 721.734 1137.694 720.835 1135.563 720.835 C 1133.389 720.835 1132.012 722.214 1132.012 724.016 C 1132.012 726.242 1133.391 727.143 1136.575 728.522 L 1138.43 729.317 C 1144.736 732.021 1148.296 734.778 1148.296 740.975 C 1148.296 747.657 1143.047 751.317 1135.998 751.317 C 1129.106 751.317 1124.653 748.033 1122.475 743.728 L 1128.506 740.224 Z  M 1102.29 740.868 C 1103.455 742.936 1104.516 744.685 1107.066 744.685 C 1109.504 744.685 1111.042 743.731 1111.042 740.021 L 1111.042 714.787 L 1118.463 714.787 L 1118.463 740.122 C 1118.463 747.806 1113.958 751.304 1107.382 751.304 C 1101.44 751.304 1097.999 748.229 1096.249 744.525 L 1102.29 740.868 Z " fill="rgb(0,0,0)"/></g></g></svg>